<?xml version="1.0" standalone="no"?>
<!DOCTYPE svg PUBLIC "-//W3C//DTD SVG 1.1//EN" "http://www.w3.org/Graphics/SVG/1.1/DTD/svg11.dtd" >
<svg xmlns="http://www.w3.org/2000/svg">
<metadata>
This is a custom SVG webfont generated by Font Squirrel.
Copyright   :  2007 Igino Marini
Designer    : Igino Marini
Foundry     : Igino Marini
Foundry URL : wwwiginomarinicom
</metadata>
<defs>
<font id="webfontHNMAzryn" horiz-adv-x="764" >
<font-face units-per-em="2048" ascent="1638" descent="-410" />
<missing-glyph horiz-adv-x="451" />
<glyph unicode=" "  horiz-adv-x="451" />
<glyph unicode="&#x09;" horiz-adv-x="451" />
<glyph unicode="&#xa0;" horiz-adv-x="451" />
<glyph unicode="!" horiz-adv-x="655" d="M332 682l1 1q1 1 12 13.5t13 14.5q15 35 19 42q10 23 21 65.5t20 65.5q1 3 19.5 46.5t20.5 48.5t11 43t11 42q4 7 4 9q3 7 12 20t12 21l2 4q21 52 29 83q0 2 2 15l2 12q1 2 1 4l2 3q1 2 12.5 20.5t11.5 19.5q6 12 34 80.5t34 80.5q24 43 80 90.5t96 47.5q32 0 48.5 -18.5 t26.5 -50.5q0 -4 1 -16v-12l-5 -12q-11 -26 -14 -29q0 -19 -1 -23q-2 -8 -4 -12q-8 -8 -8 -15q-6 -15 -40.5 -81t-41.5 -77q-1 -4 -10.5 -27.5t-11.5 -25.5q-1 -3 -12.5 -15.5t-11.5 -14.5q-2 -1 -7.5 -11t-12.5 -21.5t-10 -15.5q-10 -23 -32 -67.5l-32 -65.5 q-4 -11 -11.5 -39t-14.5 -44q-14 -33 -19 -40q-16 -12 -32 -33t-21 -35q-1 -2 -6.5 -21.5t-6.5 -21.5q0 -2 -24 -40q0 -1 -7 -9.5t-8 -10.5q-5 -7 -17.5 -27t-20 -30t-20 -23.5t-26.5 -19.5t-31 -6q-21 0 -33.5 23.5t-12.5 54.5q0 26 7 40zM53 69q-7 43 -7 106v26l21 34 q1 2 4 7t5 8l4.5 6.5t6 5t6.5 1.5q1 0 13 1t20 1t20.5 6t13.5 6q29 15 63 15q24 0 39 -1q4 -8 26 -21q3 0 14.5 -6t13.5 -8q4 -3 35 -55q7 -14 7 -19q0 -2 0.5 -5t0.5 -4q0 -11 -10 -31t-10 -30q-2 -6 -2 -19v-13q0 -14 -5 -25q-1 0 -10.5 -9t-12.5 -11q-12 -11 -45 -32 q-16 -10 -114 -10q-4 0 -28 12q0 4 -64 57q0 7 -5 7z" />
<glyph unicode="&#x22;" horiz-adv-x="1014" d="M767 1022v2q5 14 12 17q23 7 61.5 17l60 16t49 19.5t42 29.5t25 44t10.5 65q0 22 -16.5 41t-36.5 31t-36.5 32t-16.5 43q0 26 10.5 41.5t22.5 20t35.5 11.5t37.5 13h57q91 0 131 -42t40 -139q0 -101 -31 -161q-27 -52 -99.5 -110t-122.5 -58h-122q-14 7 -32 7l-36 -7 q-12 0 -24.5 21t-20.5 46zM312 1019v2q4 6 12 14q24 8 61.5 18t59.5 16.5t49.5 19.5t42 29t25 43t10.5 64q0 22 -16.5 41t-36.5 31t-36.5 31.5t-16.5 41.5q0 21 5.5 35.5t17.5 22.5t23 12t29.5 9.5t30.5 10.5h57q91 0 130 -42.5t39 -139.5q0 -106 -29 -159 q-31 -54 -101.5 -111.5t-120.5 -57.5h-122q-14 5 -32 5l-36 -5q-13 0 -27 23.5t-18 45.5z" />
<glyph unicode="#" horiz-adv-x="1644" d="M860 163q0 23 20 57t22 53q1 19 3 29t6.5 20t5.5 12q8 10 13 28q1 5 2.5 11.5t2 9.5t3 8t7 11t12.5 15q-1 9 -1 22q0 18 1 32q0 2 3.5 9t3.5 10q-3 1 -8 1q-29 0 -130 -14l-95 13q-25 0 -25 -9h-64q0 -18 -13 -26q-3 -1 -9.5 -7.5t-9.5 -6.5q0 -5 0.5 -13t0.5 -11 q0 -35 -14 -43q0 -73 -7 -89q-1 -3 -11.5 -11.5t-15.5 -10.5q-11 -17 -11 -45q0 -14 -1 -17q-5 -19 -16 -29t-14 -27l-53 -20q-10 0 -32 30.5t-22 36.5q0 24 15 56t18 48l3 14q2 13 6 17q1 10 9.5 28t10.5 29q0 20 5 45q1 2 14 15t14 18q0 17 -5 17q-33 -17 -48 -17 q-6 2 -16 2q-15 0 -36 -8t-35 -8l-66 9l-38 -7q-97 0 -97 52q0 16 17 42.5t32 35.5q79 12 143 12q59 0 89 -2q36 -10 43 -10q42 12 64 36t26 48t12 63.5t22 68.5q4 9 17 18t13 23q-2 6 -2 7q-8 0 -12.5 1t-11 3.5t-16.5 4.5q-16 -4 -24 -4l-38 7q-12 0 -36.5 -13.5 t-37.5 -13.5l-63 15q-37 -10 -38 -10q-35 0 -65 12.5t-30 42.5q0 16 16 43.5t31 34.5h28l204 10l39 -12q11 0 32 8.5t31 10.5q4 0 15 -3.5t12 -3.5q6 2 6 7q46 76 67 179v26q0 3 5.5 11t6.5 11q16 13 16 33q0 78 95 135q25 0 36.5 -26t11.5 -47q0 -10 -8.5 -19t-8.5 -12 q6 -12 10 -40q0 -12 -4.5 -19.5t-13 -14.5t-11.5 -12q-3 -7 -11 -37.5t-8 -39.5q0 -39 -21.5 -76.5t-25.5 -51.5l135 -7h75q99 0 129 23l11 29l20 59t9 35v31q2 6 18.5 20t16.5 25q0 22 6 45t13 37t19.5 36.5t16.5 31.5q18 4 24 4q33 0 33 -9q12 -24 31 -43q0 -7 -10 -32 l-10 -25q1 -16 1 -33q0 -13 -1.5 -18.5t-9 -13t-11.5 -13.5q-6 -8 -10 -27.5t-13 -38.5l7 -33q0 -19 -6.5 -40.5t-19.5 -26.5l68 5q6 0 18.5 -7.5t22.5 -7.5q6 0 23.5 7.5t28.5 7.5l102 -5l76 5q28 0 40 -48q-55 -68 -131 -68q-18 0 -18 2q-40 -6 -60 -14q-22 -9 -30 -9 q-11 0 -20 9q-21 -2 -31 -2q-44 0 -47 2q-42 -21 -61 -21q-24 6 -38 6q-16 -15 -26 -33t-12.5 -30t-6 -38.5t-5.5 -37.5q-5 -13 -31 -50t-26 -43q4 -18 9 -23q35 12 122 12l39 -12q7 0 24.5 6t28.5 6l102 -7l76 7q30 0 42 -46q-50 -71 -133 -71q-3 0 -7.5 1t-8.5 3l-3 1 q-1 0 -13 -5t-15 -5q-10 0 -33 -7q-14 -6 -24 -6q-31 6 -36 6q-7 -2 -20 -2q-45 0 -46 2q-24 -21 -59 -21l-78 15q-9 -7 -9 -34l-32 -76q-9 -16 -9 -54q0 -19 -3.5 -32.5t-7.5 -20t-16.5 -23t-19.5 -26.5q-5 -12 -5 -16q0 -9 1 -16.5t1 -9.5q0 -3 -1 -7t-1 -5 q-2 -4 -9.5 -13.5t-11.5 -10.5q0 -3 -3.5 -14t-3.5 -14q-25 -15 -53 -15q-11 0 -33.5 27.5t-22.5 38.5zM928 862l-94 15q-53 0 -67.5 -17.5t-18.5 -70.5q-1 -10 -3.5 -19t-5.5 -15t-6.5 -11l-5.5 -8l-2 -2q-5 -10 -5 -33q-8 -14 -19 -21.5t-16 -13.5t-5 -19q-3 -3 -3 -28 v-29l170 10q22 0 91 -10q61 0 82 10q2 0 11.5 33l20.5 74t14 49q4 8 10.5 9t10.5 8q17 35 17 87q-24 26 -52 26z" />
<glyph unicode="$" horiz-adv-x="1156" d="M358 -64q0 13 3 25.5t5 18.5t9.5 21.5t8.5 18.5l-1 1q-1 0 -13.5 7t-14.5 7l-35 7l-76 55h-26q-36 0 -112 -21q-7 -2 -22.5 -12t-29.5 -10q-45 0 -45 22q0 14 7 35q4 16 13 31t22.5 32.5t19.5 26.5q27 45 28 48q0 3 3 15t4 13q1 5 12 21t16 20q5 6 48 49l7 21 q6 15 19 33.5t20.5 28t28.5 32t22 23.5h36q17 0 21 -12l-1 -12q-1 -12 -1 -19q0 -10 2 -12q6 -157 74 -249l7 -7q3 -2 8 -6t8 -6q3 3 7.5 6.5t7.5 5.5l3 3v46q1 17 18.5 41.5t21.5 35.5q26 68 26 72q0 15 20.5 79t36.5 70q20 36 48 146l-94 95q-9 33 -43.5 84.5t-44.5 76.5 q2 37 -7 101t-9 96q0 14 3 21.5t11.5 17.5t13.5 18q7 14 7 23q1 2 4 17t3 17q2 5 36 35q1 1 10 8.5l19.5 15.5t12.5 10q9 18 19 28q18 15 50.5 27t74 24t56.5 18q1 0 14 7l12 7l12 1q12 1 16 1q42 0 84 -6q9 30 10 37q3 21 6 31t10.5 22.5t22 17.5t37.5 5q38 0 59 -21v-55 q-2 -2 -8 -13t-6 -12q-1 -5 -4 -52q4 -2 8.5 -4.5t7 -4.5t3.5 -2q1 -1 10.5 -4t10.5 -5q9 -6 24 -20t27.5 -20.5t31.5 -6.5q22 0 39 14t26 31t26 31t39 14q29 0 29 -43q0 -45 -7 -69q-2 -2 -11 -16.5t-10 -18.5q-9 -14 -12 -44.5t-10 -43.5q-1 -5 -20 -36t-20 -33 q-15 -35 -29 -55q-8 -28 -26 -64q-28 -28 -37 -35q-10 -5 -12 -5h-3q-53 0 -66 21q-4 4 -12.5 20t-9.5 21q-15 100 -35 173q-7 34 -24 52q-15 -26 -41 -61q-14 -21 -14 -33l-1 -31q-11 -58 -40 -95q0 -7 0.5 -16t0.5 -12q0 -16 -2.5 -27t-4.5 -15t-8 -11t-7 -9 q-6 -10 -13.5 -36t-7.5 -39q0 -23 -5 -43q57 -66 63 -74q8 -10 15 -21t15 -25.5t13 -22.5q1 -3 13.5 -22.5t12.5 -20.5q50 -77 50 -230v-47q0 -10 -15 -48q0 -7 -5 -39t-7 -36q-3 -14 -8.5 -21.5t-16.5 -15t-17 -13.5l-7 -14q-29 -49 -84 -83q-2 -2 -19.5 -14t-20.5 -15 q-29 -20 -68.5 -27.5t-94.5 -9t-74 -3.5q-1 0 -10.5 -3.5t-10.5 -3.5h-23q-12 -12 -12 -33v-12q0 -9 -2 -13q-5 -16 -14 -25.5t-12 -27.5l-57 -21q-10 0 -30 30.5t-20 37.5zM597 145q12 6 43 6q8 3 15 9t14.5 15.5t12.5 13.5q2 0 10.5 5.5t8.5 6.5q18 18 40 50.5t29 52.5 q1 10 4.5 66t4.5 66q0 1 3.5 17t3.5 18v17q0 15 -7 30t-14.5 24t-22 24t-20.5 22q0 1 -2.5 4.5t-2.5 4.5q-2 1 -6 5t-6 5q-1 -1 -2 -2.5t-1 -2.5q-10 -14 -10 -44q0 -53 -6 -62q-8 -11 -14 -24.5t-8.5 -22t-3.5 -8.5q-1 -4 -14.5 -17.5t-17.5 -15.5q-7 -10 -12.5 -63.5 t-13.5 -64.5q-1 -4 -12 -15t-11 -13q7 -17 7 -28q0 -38 -31 -57q-2 -8 -3 -19.5t-2 -15.5q10 1 25 6t22 7zM744 1289q-26 -17 -27 -17l-57 -59l-7 -21l-1 -24q-2 -25 -3.5 -55.5t-1.5 -46.5v-54q0 -3 6.5 -15t6.5 -13q3 -7 7.5 -19t9 -20.5t10.5 -17.5l8 -8q8 22 14 27 l14 38q2 19 7.5 33t15 30t15.5 30q9 22 18.5 49.5t15.5 47.5t14.5 51.5t13.5 47.5q4 16 8 24h-5q-2 0 -82 -8z" />
<glyph unicode="%" horiz-adv-x="1799" d="M582 -36l1 3q-5 -8 -19 -22t-26 -24l-12 -10h-13q-20 2 -28.5 3.5t-20.5 10t-18 24.5q-9 18 -9 26q0 5 0.5 9.5t1 7.5t3 7.5l4 7l6.5 10.5l8 13l-2 -3q1 2 4.5 7t4.5 7l60 77q7 8 25.5 26t29.5 32t19 30l205 261q115 153 146 188l-2 -2q13 20 41.5 57.5t37.5 50.5l23 25 q2 2 7 10t6 10v-1q10 18 26 39.5t26.5 34l34.5 40l31 35.5l88 101q8 3 15.5 6.5t17.5 6.5q21 -2 34.5 -17.5t13.5 -35.5q-2 -9 -2 -23q-1 -9 -4.5 -19t-10.5 -22t-11.5 -18l-14.5 -20t-12 -16q-9 -4 -24.5 -22t-27.5 -44q-50 -73 -113 -148t-103 -133l3 10q-15 -23 -18 -26 l1 1q-11 -14 -24.5 -29t-21.5 -25.5l-15 -20.5q-14 -22 -30 -41l-36 -41q-7 -14 -33 -46l-47 -59.5t-21 -35.5q-14 -16 -21.5 -26.5l-18.5 -27t-27 -37.5q-8 -11 -21 -21q-2 -4 -8 -17t-9 -17q-14 -13 -32 -39v1q-10 -15 -15.5 -22l-19 -23.5t-33.5 -43.5zM1278 404z M1290 102l-14 6q0 1 3 1l3 -1zM1146 249q0 -22 38 -68q25 -25 93 -71q6 0 8 1l7 2q3 0 9.5 -0.5t9.5 -0.5h16q33 0 61 36q8 0 8 3q36 20 54 65q5 -1 7.5 6t3.5 16t3 11q-18 83 -56 113q-9 6 -16 19l-6.5 9.5t-4.5 4.5t-5 3l-6 4q-5 2 -7 3h-46q-3 0 -10 1.5t-8 1.5 q-8 0 -23 -5l-15.5 -11.5t-12 -8.5t-9.5 -4t-14 -2q0 -1 -2.5 -3l-6.5 -5l-7.5 -5.5t-6 -4.5t-1.5 -2h-35q3 -3 -4 -10l-2 -3q-6 -6 -7 -6q0 -1 1.5 -6.5t1.5 -7.5v-9q0 -32 -4 -53zM1038 299q1 -15 6 -63.5t5 -55.5q6 -25 28 -60t50 -57l15 -6l17 -16q47 -47 91 -47h8 q1 0 5 0.5t6 0.5h6l25 -9h17l8 2q5 2 29.5 4.5t37.5 7.5q69 9 124 67.5t62 123.5v49q10 18 10 25v16q0 73 -43.5 132.5t-113.5 87.5q-3 1 -17 10.5t-25 10.5h-29q-43 9 -68 9h-10q-4 -1 -24 -5.5t-23 -5.5q-9 -5 -38 -13t-37 -20q-15 -9 -28 -19.5t-29 -25l-23 -20.5 l-10 -11l-2 -12q-2 0 -8.5 -10.5t-14 -35.5t-7.5 -54zM481 985zM479 689l14 -6q-4 4 -8 6l-3 1q-3 0 -3 -1zM349 830q5 9 6 13q4 21 4 53v9q0 2 -1.5 7.5t-1.5 6.5q1 0 7 6l2 3q7 7 4 10h35q-1 0 1.5 2t6 4.5l7.5 5.5l6.5 5t2.5 3q8 0 14 2t9.5 4t12 8.5l15.5 11.5 q15 5 23 5q1 0 8 -1.5t10 -1.5h46q2 -1 7 -3q2 -2 6.5 -4.5t7.5 -5.5t8 -11q7 -13 16 -19q38 -30 56 -113q-2 -2 -3 -11t-3.5 -16t-7.5 -6q-18 -45 -54 -65q0 -3 -8 -3q-29 -36 -61 -36h-16q-3 0 -9.5 0.5t-9.5 0.5l-7 -2q-2 -1 -8 -1q-68 46 -93 71q-38 46 -38 68zM241 880 q1 -15 6 -63.5t5 -55.5q6 -25 28 -60t50 -57l15 -6l17 -16q47 -47 91 -47h8q1 0 5 0.5t6 0.5h6l25 -9h17l8 2q5 2 29.5 4.5t37.5 7.5q69 9 124 67.5t62 123.5v49q10 18 10 25v16q0 73 -43.5 132.5t-113.5 87.5q-3 1 -17 10.5t-25 10.5h-29q-43 9 -68 9h-10q-3 -1 -23 -5.5 t-24 -5.5q-9 -5 -38 -13t-37 -20q-15 -9 -28 -19.5t-29 -25l-23 -20.5l-10 -11l-2 -12q-2 0 -8.5 -10.5t-14 -35.5t-7.5 -54z" />
<glyph unicode="&#x26;" horiz-adv-x="1868" d="M247 408q0 -14 1.5 -28.5t5.5 -34t14.5 -32t25.5 -12.5q13 0 24.5 3.5t23.5 13.5l17.5 14.5t19 20t15.5 17.5q7 22 28 55.5t28 51.5q2 5 14.5 40t13.5 42q2 6 27.5 49.5t27.5 47.5q2 3 9 15t9.5 17l7.5 15t6.5 18.5t1.5 17.5q0 18 -4.5 26t-22.5 8q-13 0 -61 -13.5 t-55 -20.5q-4 -2 -17.5 -15.5t-17.5 -19.5q-4 -5 -22 -23t-25 -26t-16.5 -23.5t-14.5 -31.5q0 -9 -6 -27q-1 -2 -14 -18t-14 -17q-5 -7 -7.5 -16t-3.5 -20.5t-3 -18.5q0 -1 -7 -30t-9 -33v-12zM547 -308q-23 13 -68 27t-64 23q-5 2 -25 13.5t-23 14.5q-10 0 -12 7 q-108 94 -161 185q-1 1 -4 10.5t-3 11.5q-6 13 -21.5 37.5t-21.5 37.5q0 1 0.5 5.5t0.5 6.5q0 3 -1 3q-1 3 -6.5 12l-12 19t-7.5 11q-6 9 -6 29v16q0 35 -15 52v48v49q0 2 3.5 13.5t3.5 12.5v91q0 1 6 34.5t8 41.5q0 2 5 16t9 19q11 25 24 74.5t22 72.5q4 9 9 18.5t9.5 17 t12 18.5t12 17t14 17.5t13.5 15.5t15 16.5t13.5 15t15 16t13.5 14.5l76 76q12 5 36.5 20t40.5 20q17 8 52.5 21t51.5 21h104q18 0 33 18t30 49t18 36l16 16q12 18 12 19q1 2 10.5 28t12.5 29q1 4 13.5 21l25.5 34t14 19q7 11 12 33t11 31q0 2 9.5 17t10.5 18q7 16 7 40v17 v40q-6 18 -26 28t-40 13t-36.5 15t-16.5 34q0 6 7 41q8 27 9 28q1 5 7 10t17 11l10 5q1 3 13.5 15.5t12.5 13.5q6 6 16 6q124 31 174 31l26 -2q1 0 13.5 -7t14.5 -7q7 -3 27 -9t29 -10.5t18 -17t9 -30.5q0 -17 -4.5 -33.5t-16 -41.5t-14.5 -31q-19 -47 -45.5 -90.5t-70 -104 t-57.5 -82.5q-9 -13 -15 -29.5t-11 -37t-8 -29.5q-2 -3 -7.5 -15t-6.5 -13q-10 -20 -16 -23q-3 -6 -10.5 -29t-16.5 -33q-5 -6 -24.5 -27.5t-24 -27.5l-18 -23.5t-19.5 -28.5t-14.5 -28.5t-15.5 -37.5q-7 -19 -7 -26q-1 -2 -3 -10.5t-3.5 -16t-2.5 -7.5q0 -9 -26 -35 q-9 -13 -24.5 -42t-25.5 -43q-3 -4 -22 -27t-25 -35q-11 -22 -34.5 -83t-42.5 -90q-25 -31 -26 -35q-22 -31 -50.5 -95.5l-34.5 -77.5q-6 -10 -21.5 -32.5t-21.5 -38.5t-6 -39q0 -70 52.5 -113t127.5 -60q56 -16 57 -16q50 -5 132 -5q3 -16 26 -16h7q12 0 28.5 7t26.5 9 q4 0 33.5 2.5t35.5 2.5q83 8 139 42q14 8 41 28.5t44 28.5q1 1 16 6.5t18 5.5l15 8q15 7 20 14l97 132q11 15 15.5 23t9 21.5t9.5 24.5l7 7q7 7 7 14q2 6 7.5 26t6.5 22q0 5 6.5 66.5t7.5 78.5v14v14q-28 95 -35 111q-4 12 -21.5 32t-19.5 23q-1 3 -10.5 21t-10.5 21 q-13 22 -48.5 50t-55.5 28h-126q-5 -5 -31 -29t-30 -29q-5 -5 -15 -5q-56 -49 -56 -109q0 -16 18.5 -27t35.5 -11q11 0 19 4.5t17 12.5t16 11q4 3 14 8.5t18 9t9 3.5h89l15 -6q58 -36 62 -91q0 -6 -20 -42q-2 -1 -7.5 -14t-6.5 -13q-29 -39 -104 -63h-7q-7 0 -21.5 6 t-21.5 6q-2 2 -24 5t-23 4l-34 21q-32 19 -42.5 26t-25.5 23t-29 41q-23 36 -23 62v14q2 13 4.5 40.5t5 50t6.5 40.5q16 88 104 166q12 12 25 15.5t32.5 4.5t30.5 3q4 0 18.5 5t15.5 7q31 14 44 14q0 2 36 2q38 0 40 -2q1 0 19.5 -7t21.5 -7h75q3 0 15.5 -6t13.5 -6 q6 -3 30 -12.5t37.5 -16t31 -17.5t26.5 -23l34 -63q13 -40 23 -57q0 -1 2 -6.5t3 -5.5q16 -21 69 -69q22 -9 42 -9q52 0 71.5 31.5t19.5 86.5v35q-7 12 -8 14l-15.5 25.5t-17.5 29.5t-10.5 26.5t-5.5 32.5v5q15 39 27.5 50.5t52.5 11.5h12q32 0 54 -15q12 -8 43 -42 l13 -13.5l12.5 -13t11 -12t10 -13t8 -12.5t7.5 -13.5t5.5 -13.5t5 -16t2.5 -17.5t1 -19.5q0 -80 -16.5 -140.5t-59.5 -116.5q-7 -8 -14.5 -14t-17 -11.5t-16 -8t-19 -8t-18.5 -7.5l-28 -14h-15q-52 0 -95 9q-2 0 -20.5 6t-21.5 6h-19q-32 0 -43 -34q-9 -27 -9 -61 q0 -11 1 -31t1 -31q0 -22 -5 -50q-21 -67 -30 -85l-10.5 -20.5t-9.5 -19.5q-1 -2 -4 -12t-6 -19t-4 -10q-1 -3 -14 -21.5t-14 -20.5q-18 -65 -21 -69l-13 -20q-13 -20 -16 -23q-8 -8 -19 -35q-5 -7 -9.5 -10.5t-11.5 -7t-14 -8.5q-5 -5 -39.5 -36t-36.5 -33q-28 -28 -34 -28 q-21 -12 -64.5 -27t-60.5 -23q-2 -1 -20.5 -14t-21.5 -14q-3 0 -14.5 -3t-12.5 -4q-23 -6 -62 -27.5t-49 -25.5l-18.5 -9l-21.5 -10t-10 -4h-144q-30 14 -57 14q-3 0 -26.5 1t-39.5 1t-39.5 -1t-25.5 -1z" />
<glyph unicode="'" horiz-adv-x="559" d="M357 953q-35 20 -45 66q0 16 12 21q23 7 61.5 17l60 16t49.5 19t42.5 29t25 43t10.5 64q0 23 -16 42t-35.5 31t-35.5 31.5t-16 42.5q0 26 10 41.5t22 21t35 12.5t36 14h66q86 0 123.5 -43.5t37.5 -136.5q0 -107 -29 -161q-29 -53 -101 -111.5t-124 -58.5q-27 -3 -54 -3 q-32 0 -64 3q-16 5 -33 5z" />
<glyph unicode="(" horiz-adv-x="643" d="M714 1384v-5q-6 -11 -7 -12q-1 -4 -10 -18.5t-11 -16.5q-1 -2 -7 -18t-7 -17q-1 0 -6.5 -7t-8.5 -8q-18 -14 -54 -54q-2 -3 -20.5 -21l-22.5 -22q-5 -5 -22.5 -25.5t-19.5 -22.5q-1 -1 -6 -14t-6 -14l-6 -5q-5 -5 -10 -9.5t-6 -6.5q-5 -5 -7 -13.5t-3.5 -19t-2.5 -15.5 q-1 -4 -13.5 -29l-13.5 -27q-7 -5 -7 -20q-3 -8 -14.5 -23.5t-13.5 -25.5q-7 -12 -7 -41q-7 -14 -8 -14q-26 -62 -26 -118q0 -20 6 -59t6 -60v-7q-3 -12 -12.5 -40t-16 -51.5t-6.5 -38.5v-15q0 -4 7 -44.5t7 -45.5q-9 -40 -14 -54q0 -2 -2.5 -12t-2.5 -11v-1v-5q5 -35 5 -56 q2 -2 23 -34q7 -60 12 -92q8 -14 29 -69q0 -11 5 -26q2 -2 12 -14.5t11 -13.5q13 -23 28.5 -81t33.5 -85q1 -3 11.5 -15l23.5 -26.5t14 -15.5q5 -7 40 -60.5t41 -64.5q3 -1 11.5 -13t10.5 -13q6 -3 6 -8q2 -1 10 -5.5l15.5 -9t8.5 -4.5q16 -12 36.5 -53.5t20.5 -62.5 q0 -11 -6 -21t-16 -10q-61 0 -83 20h-5q-16 4 -56 33l-41 30q-1 0 -8 3.5t-8 3.5q-15 37 -19 41q-9 14 -39.5 31.5t-38.5 30.5q0 5 -5.5 19.5t-8.5 15.5q0 1 -6 11t-6 12v5v14q-2 4 -10 10t-15.5 11t-8.5 6q-14 10 -24.5 24.5t-14 22.5t-10 30t-8.5 27q0 1 -3 8t-3 8 q-11 11 -29 41q-10 17 -19 46.5t-16 43.5q-2 6 -17 34.5t-17 48.5v40q0 3 -14 38l-7 19v62q-2 38 -18.5 112.5t-16.5 121.5v2q1 2 7.5 34t8.5 35l-1 24q-1 23 -1 36q0 21 2 25l3 16q2 16 2 18q0 4 3.5 34t3.5 35q16 10 23.5 38.5t11.5 65.5t7 49q32 87 34 103q1 3 14 27.5 t14 28.5q1 1 4 13t3 14q6 12 8 14q0 8 20 28q6 12 6 22q2 3 11 20.5l10 19.5l133 152q0 1 13 21q62 99 128 99q24 0 59.5 -18.5t35.5 -40.5z" />
<glyph unicode=")" horiz-adv-x="671" d="M70 -498v5q4 10 7 12q1 4 10 18.5t11 16.5q0 1 3 10.5t6 16.5t5 7q6 12 14 16q19 13 55 53q3 4 21 22.5t22 21.5q6 5 21.5 24t18.5 24q2 1 7.5 14t6.5 14q20 20 21 22q7 6 9.5 24.5t4.5 22.5q1 4 14 29t13 28q7 7 7 19q3 6 14.5 22.5t13.5 27.5q1 3 4 20t3 20q4 14 8 14 q26 62 26 119q0 19 -6.5 58.5t-6.5 59.5v7q1 4 17.5 57t16.5 73v15q0 4 -6 44.5t-6 45.5q9 40 12 56q0 1 3.5 10t3.5 10v2v5l-7 56q-3 6 -21 34q-8 75 -13 92q-1 3 -14 33.5t-14 35.5q0 3 -2.5 14t-4.5 12q-14 21 -21 28q-13 24 -29.5 82t-32.5 84q-2 3 -12.5 15.5l-23 26.5 t-13.5 15q-7 9 -42.5 62.5t-38.5 61.5q-2 2 -10.5 13t-11.5 13q-1 2 -4 5t-3 4q-1 1 -17 10t-18 11q-15 11 -35 52t-20 62q0 11 5.5 22t15.5 11q12 0 12 -12v-14q3 0 31.5 1.5t39.5 1.5h6q15 -2 54 -31t43 -31q1 0 7.5 -3.5t8.5 -3.5q1 -1 9.5 -20t9.5 -21q8 -14 39 -31.5 t39 -31.5q0 -2 5.5 -17.5t6.5 -16.5q0 -1 7 -10.5t7 -10.5v-7v-14q2 -6 18 -17l16 -10q9 -7 16.5 -15.5t12 -14.5t9.5 -18t6.5 -16.5t6 -20.5t5.5 -19q0 -1 3.5 -7.5t3.5 -8.5q0 -1 13 -19.5t14 -20.5q12 -19 21.5 -50.5t13.5 -40.5t14 -25t15 -28.5t6 -28.5v-41 q0 -3 6.5 -18t8.5 -18l7 -21v-63q1 -39 18 -113t17 -120v-2q-1 -3 -8 -34t-8 -35v-61v-24q0 -1 -3.5 -16t-3.5 -18q0 -4 -2.5 -34t-2.5 -36q-17 -9 -24.5 -37t-11 -65t-6.5 -48q-3 -10 -11.5 -35.5l-15 -46t-7.5 -22.5q-1 -3 -14 -28t-14 -29q-2 -1 -4.5 -13t-2.5 -15 q-4 -2 -8 -13q0 -2 -4.5 -8.5t-9.5 -12.5t-5 -7q-7 -3 -7 -21q-3 -4 -12 -21t-11 -20l-131 -153l-3 -4l-6 -10t-3 -6q-66 -97 -128 -97q-24 0 -60 18t-36 39z" />
<glyph unicode="*" horiz-adv-x="826" d="M694 1299q9 16 19 55t26.5 58t52.5 19h26q23 -17 23 -54q0 -40 -8.5 -78t-35 -71.5t-67.5 -33.5q-8 0 -22 6.5t-14 13.5v85zM408 1317v24q4 8 14.5 14.5t20.5 6.5q6 0 25 -3.5t23 -5.5q3 0 30 -19q71 -71 81 -85q22 -37 22 -64q0 -17 -34 -17q-9 0 -19 2t-17.5 4t-18.5 8 t-16 8.5t-16.5 11l-15 11t-16 12.5t-14.5 12t-10 8t-9.5 7t-7.5 5.5t-6.5 6t-4.5 6t-4.5 7t-2.5 7.5t-2.5 9.5t-1 10.5t-0.5 13zM803 1076v7q6 11 29 43q4 4 15 11.5t13 7.5h69q9 -9 31 -14t31 -13q4 -2 14.5 -12.5t13.5 -15.5q0 -1 -2.5 -9.5t-2.5 -9.5q-3 -3 -10 -13.5 l-12.5 -19t-7.5 -9.5q-14 -15 -45 -15h-19h-33q-3 0 -41 22l-12 6t-12.5 7l-8.5 6.5t-8 9.5t-2 11zM367 986v9q0 3 2 11.5t3 15.5l2 7q4 9 25.5 17.5t53 16t33.5 8.5q1 0 12.5 6t13.5 6h3q6 0 37 -10.5t31 -18.5v-6q-1 0 -7 -5.5t-9 -6.5q-4 -4 -33 -31t-43.5 -38.5 t-40 -24.5t-47.5 -13t-29 14.5t-7 42.5zM687 1021q16 -3 29.5 -11t21.5 -17t16 -26t11.5 -27t10 -30.5t8.5 -27.5v-7q0 -97 -61 -97q-30 0 -52 42q-5 7 -12 23.5t-7 19.5v109q0 26 35 49z" />
<glyph unicode="+" horiz-adv-x="1059" d="M144 699q25 22 83 22q31 0 40 -5h151q75 0 91 16q18 18 18 71l-19 235q0 61 19 81q16 14 50 14q54 0 76 -24l28 -61q5 -5 12 -72q-10 -4 -16 -11q-15 -21 -15 -45q0 -52 12 -98q1 -10 2 -17t1 -9q0 -11 -1.5 -32t-1.5 -27l1 -3q7 -7 9 -7q23 0 71.5 8.5t68.5 8.5 q24 0 50 -10h154q9 0 23 -7q8 -10 8 -30v-76l-17 -19q-33 -33 -90 -33q-32 0 -92 11t-82 12l-23 -9l-62 -5q-9 -17 -16 -65.5t-7 -93.5q0 -37 9 -75q5 -20 5 -29q0 -3 -2.5 -17.5t-2.5 -15.5l3 -48q0 -22 -8 -30q-16 -10 -45 -10q-53 0 -80 17q-19 37 -26.5 125.5 t-13.5 115.5l21 77q0 11 -7 21q-22 19 -45 19q-10 0 -33 -4t-38 -4q-24 0 -29 1q-6 7 -24 7l-25 -2q-24 -6 -65 -6q-40 0 -66 6q-34 0 -48 21q-13 23 -13 61q2 18 3.5 30t2.5 16z" />
<glyph unicode="," horiz-adv-x="495" d="M-213 -304q0 12 7 20q41 56 97 102q24 21 74.5 54.5t70.5 49.5q3 3 12 10t12.5 9.5t9.5 9t8.5 11.5t4.5 12.5t2 15.5q0 17 -18.5 33t-40.5 27t-40.5 31.5t-18.5 46.5q0 84 62 126q1 0 9 3l18 6.5t15 4.5q31 0 47 -7l27 -7q2 -1 12 -14t11 -13q2 -6 9 -6h5q8 0 12 -3 q2 -2 7 -2t8 -1q3 -5 14 -21l14 -20.5l11.5 -18t11.5 -20t8 -19t7 -21.5t3.5 -22t1.5 -26q0 -2 -0.5 -23t-0.5 -26q-14 -22 -24 -67.5t-18 -61.5q0 -1 -22 -30q-2 -4 -9 -13t-12.5 -17t-6.5 -10q0 -2 -5 -14t-7 -15q-13 -17 -32 -30.5t-43 -28t-36 -22.5q-34 -26 -48 -35.5 t-40 -18.5t-57 -9h-21q-9 0 -36 3t-28 3q-16 5 -31.5 25.5t-15.5 38.5z" />
<glyph unicode="-" horiz-adv-x="808" d="M134 452q0 55 97 60h24h59q8 1 87 4.5t88 4.5h41h40q19 -8 35.5 -23.5t24.5 -26.5l25 -35l7 -12q0 -34 -28 -78q-8 -11 -29.5 -24t-27.5 -18q-7 0 -51.5 -3t-52.5 -3h-10h-9q-5 0 -52.5 3t-52.5 3h-61q-6 0 -35.5 3.5t-36.5 3.5q-36 6 -54 25.5t-21.5 36t-5.5 59.5 q-1 7 -1 11v9z" />
<glyph unicode="." horiz-adv-x="499" d="M-8 76q-7 43 -7 106v26q0 6 21 34q15 28 25 28q2 0 14 1t19 1q8 0 21 6t14 6q27 15 62 15q24 0 40 -1q4 -8 26 -21q2 0 14.5 -6t13.5 -8q4 -3 34 -55q1 -1 4 -9.5t3 -9.5q0 -2 1 -5t1 -4q0 -12 -10 -31.5t-11 -29.5q-2 -7 -2 -19v-14q0 -13 -5 -24q-17 -17 -22 -20 q-18 -14 -45 -32q-18 -10 -114 -10q-8 0 -28 12q0 1 -64 57q0 1 -2 4t-3 3z" />
<glyph unicode="/" horiz-adv-x="495" d="M-13 -112q0 19 5 35t14.5 35.5t13.5 32.5l8 31q1 11 8 27.5t9 23.5l9 50q0 2 4 6t8.5 8t9.5 8l4 4v46q1 17 18.5 41.5t21.5 35.5q26 68 26 72q0 15 20.5 79t36.5 70q8 14 15 31t13 37t9.5 33.5t9 37.5t7.5 32l39 95q29 130 42 139l14 38q2 19 7.5 33t15 30t15.5 30 q9 22 18.5 49.5t15.5 47.5t14.5 51.5t13.5 47.5q3 13 8 24t14.5 28t12.5 24q21 59 34 118q3 21 6 31t10.5 22.5t22 17.5t37.5 5q38 0 59 -21v-55q-2 -2 -8 -13t-6 -12q-3 -13 -3.5 -40t-4.5 -41q-2 -10 -6.5 -16t-14 -13.5t-12.5 -10.5q-5 -8 -5 -38q-7 -35 -61 -107 q-14 -21 -14 -33l-1 -31q-11 -58 -40 -95q0 -7 0.5 -16t0.5 -12q0 -16 -2.5 -27t-4.5 -15t-8 -11t-7 -9q-6 -10 -13.5 -36t-7.5 -39q0 -31 -9 -54t-19.5 -36.5t-11.5 -16.5q0 -3 -4 -11.5t-4 -9.5q-2 -19 -8 -36t-12 -27t-19.5 -29.5t-19.5 -29.5q-10 -14 -10 -44 q0 -53 -6 -62q-8 -11 -14 -24.5t-8.5 -22t-3.5 -8.5q-1 -4 -14.5 -17.5t-17.5 -15.5q-7 -10 -12.5 -63.5t-13.5 -64.5q-1 -4 -12 -15t-11 -13q7 -17 7 -28q0 -38 -31 -57l-2.5 -19.5t-2.5 -16t-3.5 -9t-7.5 -7.5q0 -1 1 -12t1 -20q0 -32 -6.5 -48t-28.5 -34q-13 -13 -13 -34 v-12q0 -9 -2 -13q-5 -16 -14 -25.5t-12 -27.5l-57 -21q-10 0 -30 30.5t-20 37.5z" />
<glyph unicode="0" horiz-adv-x="930" d="M310 277q0 -25 15.5 -48.5t39.5 -31.5q1 0 19.5 -5t23.5 -9l2 -3q1 -4 3 -7.5t2 -4.5h2h5q11 7 12 7l63 34l11.5 11.5t10.5 11.5t10.5 23.5l19 42t12.5 24.5q8 16 13 19l30 38q2 6 16.5 35t17.5 34q24 24 28 35v8q0 6 -4 15.5t-4 15.5q0 12 10 27t10 25v12q0 1 2 14t2 14 q-10 79 -16 97q-1 3 -11 22t-11 20v20q0 2 -3 7.5t-3 6.5q-45 7 -64 16h-3q-27 0 -83 -48.5t-66 -71.5q-2 -4 -8 -24.5t-6 -25.5q-3 -8 -13 -23t-14 -24q-5 -11 -13.5 -36l-15 -45t-6.5 -22q-14 -49 -14 -57q-2 -13 -1.5 -35t-2 -38.5t-10.5 -30.5q-6 -8 -6 -16 q-2 -21 -2 -29zM95 346q0 24 4.5 42.5t15.5 47t15 40.5v12q4 27 12.5 43.5t21.5 34t21 33.5q6 12 10 38t11 39q7 12 26.5 48.5t35.5 61.5t35 43q7 7 25.5 15t24.5 12q9 8 30 31.5t39 40t35 25.5q7 7 62 23q5 1 29 6.5t26 5.5q9 2 14 2q10 0 20.5 -2t17.5 -4.5t18 -8 t15.5 -8.5l17 -11l15.5 -10q7 -2 36.5 -16t34.5 -18q29 -19 56 -59.5t27 -72.5v-7q0 -2 -7 -15l-7 -12q0 -2 9.5 -21t9.5 -21q16 -28 16 -69q0 -83 -50 -216q0 -8 -6 -14q-13 -12 -13 -14q-7 -11 -21 -62q-8 -18 -29 -45t-28 -40q0 -2 -12 -26q-2 -2 -15.5 -22t-14.5 -21 q-12 -24 -12 -28q-29 -29 -43 -41q-3 -1 -25 -14t-24 -14q-81 -52 -116 -65q-38 -13 -77 -13q-59 0 -116 21.5t-85 64.5q-3 2 -16 35q-49 103 -57 132q0 45 -5 53q0 3 -3.5 15.5t-3.5 14.5v10z" />
<glyph unicode="1" horiz-adv-x="719" d="M144 90q0 62 56 176q8 17 16.5 54t9.5 42q2 4 5.5 13t6 19t3.5 11q10 25 19 53t19 65t16 55q3 11 18 51t23.5 71t8.5 56q0 21 -20.5 31t-45.5 11t-45.5 10.5t-20.5 30.5q0 10 4.5 20t14 19t19.5 16.5t25.5 15.5l26 13t28.5 11.5l26 9.5t24 8t18 6q8 1 46 12t45 14 q25 9 56 9q27 -4 51.5 -37.5t24.5 -62.5q0 -15 -12.5 -39t-15.5 -34q-1 -6 -5 -36t-9 -42q0 -1 -3.5 -5.5t-6.5 -9t-4 -6.5q-2 -2 -7.5 -20t-5.5 -19q-1 -4 -10.5 -29.5t-10.5 -27.5q0 -25 -7 -42q0 -1 -7 -17.5l-13.5 -32.5t-7.5 -19q0 -2 -3.5 -10.5t-3.5 -10.5 q0 -1 -3.5 -13.5t-3.5 -14.5t-13 -26.5t-14 -28.5v-35q0 -2 -7 -15l-7 -12q-3 -8 -10.5 -24.5l-11 -24t-8 -21t-6 -25.5t-1.5 -26q0 -4 1 -20t1 -18q46 -28 107 -28q5 0 12.5 1t10.5 1q2 -2 7.5 -7t10 -9.5t4.5 -6.5v-3v-4q-1 -3 -5 -11t-5 -10.5t-4 -8.5t-5 -9t-5.5 -7.5 t-7.5 -8t-9 -7.5q-16 -13 -57 -21t-54 -14q-2 -1 -22 -9.5l-38.5 -16.5t-22.5 -8l-22 -1q-23 -1 -30 -1q-3 0 -25 1t-27 1q-12 12 -34.5 24.5t-32 25t-9.5 38.5z" />
<glyph unicode="2" horiz-adv-x="769" d="M220 16h-8q-3 -3 -17 -6t-18 -3q-12 0 -21 9q-6 0 -41.5 2.5t-41.5 2.5q-3 2 -12.5 9t-14 11t-9.5 12t-5 16q0 22 28 69q0 1 6.5 10.5t6.5 10.5v12v30q6 25 14 43q8 14 35.5 28.5t33.5 19.5q10 7 20 28.5t15 27.5q19 19 21 19q3 3 28.5 15.5t26.5 13.5l7 5q3 6 9.5 26 t14 32t19.5 20q1 1 23 14t24 16q7 0 7 5l46 67.5t29.5 60.5t16.5 78v20q0 14 -7 23q-3 5 -31.5 15.5t-38.5 12.5q-14 7 -77 7q-6 1 -7 1l-7 -1q-35 -8 -40 -13q-4 -2 -19 -14.5t-16 -14.5h-8h-7q-4 4 -9 14.5t-5 14.5q9 35 14 47q8 36 15 43q7 19 25.5 34.5t37.5 19.5 q0 1 9.5 3t19.5 3.5t12 2.5q19 6 41.5 20t40.5 14q10 0 22 2t16 2q1 0 19 -4l19 -3q18 -3 20 -5q81 -15 161 -139q21 -26 21 -131q0 -19 -5.5 -36t-9.5 -24t-20 -26.5l-20 -24.5q-10 -10 -28 -40q-21 -49 -29 -57q0 -1 -7.5 -9.5t-11.5 -11.5q-14 -9 -61.5 -48t-51.5 -42 q-12 -9 -21.5 -12t-25.5 -4t-29 -4q-1 0 -3.5 -1.5t-5 -3.5t-3.5 -2q-7 -7 -9 -7q0 -1 -4.5 -2.5l-9 -3t-5.5 -3.5q-12 -5 -41 -34q-2 -1 -22 -3t-22 -3q0 -1 -12 -15.5t-15 -18.5q0 -2 -6.5 -14.5t-7.5 -15.5v-1v-4q5 -11 11.5 -17t10.5 -7.5t15.5 -4t19.5 -5.5q6 -2 20 -9 t25 -10.5t24 -3.5q10 0 23.5 7.5t23.5 8.5q3 0 28 6t29 6q1 0 9 3t17.5 7t13.5 5q8 0 15 7l7 28q3 7 28.5 21t32.5 14q29 0 46 -13.5t32 -42.5v-7q0 -15 -3.5 -28.5t-13.5 -36t-11 -26.5q-1 -2 -10 -27t-11 -29q-2 -5 -15.5 -18.5t-18.5 -15.5q-7 -4 -31 -15t-32 -13 q-6 0 -28.5 -3t-26.5 -4l-14 -7h-10q-29 0 -149 14q-2 1 -9 2.5t-13 3t-7 3.5h-6z" />
<glyph unicode="3" horiz-adv-x="776" d="M-70 -265q0 6 7 28q16 43 25 51q12 11 50 11q53 0 78 -14q30 -18 41 -29q21 0 69 -5h9q17 0 33.5 7.5t27 15.5t27.5 24l3 6q4 6 4 9q1 1 4.5 10.5t4.5 10.5q1 0 13 3t13 4q5 0 8 7q27 33 34.5 54.5t7.5 66.5t-6 73t-29 55q-23 28 -43 42.5t-54 28.5h-17h-5q-36 3 -95 35 t-59 63q0 16 3 18q7 9 34 35.5t36 33.5q1 6 19 15q2 1 16 4t26 6t13 4q2 1 11.5 13.5t10.5 14.5q15 20 54.5 25.5t49.5 9.5q7 3 35 41q3 3 32 38t41 59t12 50l-4 12q0 4 -7.5 20.5t-11.5 21.5q-11 17 -48 27.5t-49 27.5h-27q-23 0 -35.5 -7t-23.5 -7q-15 0 -45 8t-30 20 q-8 19 -8 36q0 20 8 42q6 8 7 12q29 50 97 69q9 7 50 7q1 1 13 8.5t13 7.5h33h16q32 0 43 -16q130 -35 187 -131q0 -1 4 -13l3 -13l8 -23t8 -24l5.5 -20t4.5 -24t1 -24q0 -19 -4.5 -31.5t-16.5 -29.5t-18 -29q-4 -2 -16.5 -27t-13.5 -26q-1 -2 -14 -14.5t-13 -13.5 q-1 -3 -13.5 -18t-14.5 -16l-14 -7q-4 -5 -17.5 -19.5t-17.5 -15.5q-1 -1 -24 -4.5t-24 -4.5q-1 0 -8 -4l-15 -8.5t-12 -6.5q-7 -5 -7 -15v-7q2 -7 12.5 -28t15.5 -26q1 -1 7 -8.5l12.5 -15.5t8.5 -12l26 -26q56 -71 78 -175v-14v-12q-1 -7 -14.5 -52t-13.5 -46 q-7 -14 -7 -35q-3 -12 -10.5 -26t-13 -22t-17 -23l-14.5 -19q-2 -3 -15.5 -21l-26 -35t-15.5 -20q-27 -27 -63 -50q0 -12 -7 -12q0 -1 -6.5 -5l-15.5 -9.5t-12 -8.5l-12 -5q-4 -2 -16 -12l-12 -10q-5 0 -19.5 -2.5t-15.5 -4.5q-3 -1 -19 -7.5l-32.5 -13.5t-17.5 -7 q-42 -7 -91 -7l-28 7l-30 8t-30.5 8.5t-25.5 10t-24 17t-16 25.5q-1 5 -7 23.5t-6 19.5v7z" />
<glyph unicode="4" horiz-adv-x="965" d="M161 176q28 -8 90 -8h31q61 0 71 2q6 3 30.5 12t41.5 19.5t25 23.5q50 119 50 192q0 22 -11.5 37t-33.5 15q-31 0 -53.5 -17t-49 -56t-33.5 -47q-13 -16 -61 -55q-2 -1 -17.5 -10.5l-29.5 -18.5t-15 -12q-3 -1 -12.5 -20.5l-10.5 -21.5q0 -1 -3.5 -6t-6 -9.5t-2.5 -5.5 q-2 0 -2 -7t2 -7zM353 -334v10q1 3 3 13.5l3.5 19t2.5 9.5q1 2 17 36.5t17 39.5q4 8 11 43t8 47q2 2 2 14q0 8 -1 21t-1 14q2 2 5 14t4 13v18q0 44 -40 44h-15q-3 0 -18.5 -2.5t-16.5 -2.5q-19 -3 -59.5 -7.5t-72 -7t-34.5 -2.5h-22q-11 -2 -73 -6.5t-73 -5.5h-8 q-17 0 -27 9t-14 26t-5 28t-1 29q0 16 1 26.5t5.5 19t8.5 13.5t14 16.5l18 20.5q2 0 5 7l3 7l35 35q0 1 3 5.5t6.5 9t4.5 6.5l5 10.5t6 9.5t9 7q3 2 28.5 14.5t29.5 15.5q3 3 6 5l47 99q5 2 18.5 12.5t16.5 14.5q101 88 175 173q0 1 2.5 4t3.5 3q1 1 5.5 4l9 6t4.5 4 q4 3 24 35.5t20 33.5t7 9.5l14.5 18l15.5 20.5t11 16q7 4 7 5l38 48l40 51q7 0 12 5l17.5 18t17.5 17q9 8 34 8q6 0 16 -0.5t12 -0.5h41q28 0 28 -54q0 -72 -40 -147l-22 -161q-8 -13 -12 -34q-7 -7 -7 -40q-1 -3 -8.5 -16t-7.5 -14q0 -28 -7 -46q0 -5 -2.5 -36t-2.5 -35 q-2 -11 -15.5 -51t-13.5 -60q0 -21 22 -35q2 0 24 1t37 1t37.5 -1t24.5 -1q11 -1 43 -9t42 -13q29 -18 29 -80q0 -1 -1 -18t-1 -18q-7 -27 -37.5 -38.5t-64.5 -11.5q-17 0 -40 7.5t-41 7.5h-33l-9 -7q-9 -7 -10 -8q-5 0 -23 -2.5t-20 -4.5q-2 0 -10 -8t-9 -13v-2 q0 -6 2.5 -16t2.5 -15v-15q0 -1 -2.5 -14t-2.5 -14q-2 -2 -2 -17q0 -11 1 -27.5t1 -17.5q-2 -5 -9 -43t-7 -40q-3 -80 -13 -153q-17 -42 -43 -64.5t-70 -33.5h-9q-22 0 -37 6t-22.5 13.5t-12 23t-5 26t-1 32t-1.5 32.5q0 2 -4 14.5t-5 13.5v10z" />
<glyph unicode="5" horiz-adv-x="788" d="M486 315q0 -9 -2 -11l1 -1q1 -1 1 -2q12 -14 12 -31q7 -65 7 -81q0 -17 -7 -78q0 -4 -5.5 -23.5t-8.5 -25.5q-10 -20 -50 -84q-2 -2 -7 -16.5t-5 -18.5q-12 -28 -39 -58.5t-64 -65t-51 -49.5q-2 -2 -10 -13.5t-9 -14.5q-3 -3 -15 -14l-22.5 -20.5t-13.5 -11.5 q0 -7 -12 -7q-48 -14 -64 -23l-24 -10.5t-28 -11.5t-28 -8t-32 -4q-12 8 -40 13q-9 5 -9 16q0 3 1 12t1 16q6 22 20.5 40t24.5 25.5t38.5 24l35.5 20.5q56 37 89 63q19 13 33 35t20.5 39t16 48t14.5 44q1 4 10.5 29.5t12 34l9.5 31t9.5 35.5t5 32t2.5 35q0 4 -1 15l-1 11 q0 1 -6 13t-6 13q-2 2 -2 10q0 5 0.5 10.5t1.5 9.5v4q-4 28 -20.5 52.5t-37.5 43.5l-41 37.5t-34 42.5t-14 51q0 42 11.5 75t36.5 81q1 2 14 26.5t16 26.5q2 6 34 38q4 18 6 19q3 4 21 26t20 25q21 10 28 19q3 2 37.5 28.5t54.5 33.5q21 7 25 7h2q4 0 15 -4t11 -7l50 -8 q15 -2 39.5 -24.5t42.5 -22.5l98 -17q5 -14 28 -14q12 0 37 14t41 14q12 0 12 -14q0 -1 -2.5 -10.5t-2.5 -10.5q-2 -3 -5 -24.5t-4 -23.5q0 -1 -6 -10t-8 -11q-7 -11 -16.5 -54t-30.5 -57l-22.5 -11l-20.5 -10h-29q-1 1 -14 7.5l-25.5 13l-14.5 7.5q-3 1 -30.5 3t-31.5 4 q-11 2 -37.5 17.5t-38.5 17.5h-14l-59 -6l-29 -26l-11.5 -18.5l-9.5 -15t-7.5 -16t-9.5 -29.5l14 -10q14 -10 29.5 -24t18.5 -23q1 -1 2.5 -8.5t3.5 -16t3 -10.5q1 -7 6 -23t7 -17q1 -3 14 -15t14 -14q9 -10 9 -38q21 -32 21 -69v-14z" />
<glyph unicode="6" horiz-adv-x="967" d="M250 279q16 -12 16 -35q0 -5 -1 -15t-1 -14q0 -13 10 -27t13 -22q0 -24 7 -28l10 -9q9 -9 9 -10q1 -2 6 -10.5t9 -16.5l5 -7q7 -9 26 -9h16q61 7 62 9q18 5 31.5 15t32 32.5t21.5 26.5l36 39t44 52.5t24 47.5q7 35 7 50q2 11 9.5 26t10.5 22q30 70 30 178v23 q-2 2 -8.5 14.5t-7.5 13.5v25q0 13 -3 25t-6.5 20t-12 19t-13 16t-17.5 17.5t-17 17.5h-28q-14 0 -25 -1.5t-23 -7t-18 -8t-18 -13.5t-15 -13.5t-17.5 -17.5l-16.5 -17l-47 -47q-1 -4 -7.5 -19t-7.5 -16l-6 -10q-6 -10 -6 -12q-5 -4 -23 -48q-4 -10 -11 -23t-11 -23.5 t-5 -23.5q0 -27 -7 -90q0 -2 -6 -15l-6 -12q-7 -7 -7 -28q-24 -28 -37 -41zM126 125q-2 24 -11.5 102.5t-9.5 120.5q0 13 1 23t4.5 21.5t4.5 16t8.5 21t9.5 22.5q0 2 3.5 11t3.5 11q13 68 41 109q2 4 27 46.5t28 45.5l7 5q7 6 7 7q1 1 7 14t7 15q13 21 43.5 53.5t39.5 43.5 q7 8 46.5 61.5t66.5 76.5q1 3 15.5 14.5t18.5 13.5q10 9 32 22t31 20q3 2 18 18t16 16q1 1 17 8.5t18 12.5q4 3 51.5 31.5t52.5 32.5l20 20q19 19 23 20q18 16 62.5 32.5t47.5 17.5q1 0 11 7l10 7q10 5 35 5l16 6.5t20.5 7t18.5 2.5q18 0 35 -7h48q5 -1 16 -11.5t14 -16.5 v-19q0 -33 -23 -50q-66 -22 -81 -28q-17 -7 -30 -7q-1 -1 -7 -3t-10 -3l-3 -2q-11 -4 -42 -35q-17 0 -21 -7q-2 -1 -24 -14t-24 -14q-8 -4 -45 -19.5t-52 -26.5q-3 -2 -28 -28t-29 -29q-17 -13 -69 -35q-1 -5 -7.5 -20.5t-6.5 -24.5q0 -19 14 -24l64 -16q12 -2 39.5 -9.5 t29.5 -9.5q26 -26 35 -34q44 -55 69 -132q0 -1 2.5 -11.5t2.5 -14.5q0 -2 -2.5 -12.5t-2.5 -11.5q-6 -10 -14 -69v-4q0 -7 3.5 -20t3.5 -21q0 -35 -35 -109l-23 -53.5l-25 -58t-27.5 -51.5t-36.5 -50q-2 -3 -27 -28t-27 -29q-2 -1 -11.5 -13.5t-10.5 -14.5l-7 -7 q-27 -12 -113 -55q-5 -7 -34 -7h-178q-2 0 -12.5 4l-25 9.5t-20.5 7.5q-22 8 -46 34q-4 3 -57 56q-1 1 -4 6.5t-3 7.5z" />
<glyph unicode="7" horiz-adv-x="851" d="M32 -149v4q2 6 21 34q0 2 3 14.5t4 13.5q5 14 21.5 40t20.5 36q0 1 3.5 11t3.5 12q33 33 43 39q2 3 13 21t13 21q1 4 7 18.5t7 15.5q2 3 24 29t24 29q7 10 7 12q1 3 10.5 25t10.5 25q5 10 30.5 20t31.5 21l13 22q13 23 16 25q1 4 7 12.5t6 10.5q10 10 28 29.5t33 34 t30 26.5q10 8 15 34t13 35q1 4 15.5 18t18.5 16q3 3 13 23q7 3 64 60q8 11 8 35q0 2 -1.5 11t-1.5 10q-2 0 -17 2t-28 3.5t-17 1.5h-16h-19q-4 0 -88 -7q-19 -16 -31 -16q-9 0 -29 4.5t-29 4.5q-15 0 -45 -33.5t-48 -35.5q-22 -2 -31 -2q-66 0 -66 43v7l35 55v4 q0 6 -3.5 17.5t-3.5 18.5v9q0 1 3.5 7t3.5 8q3 6 10 26.5t12.5 32t18 23.5t28.5 15q49 7 88 7q21 0 59.5 -14.5t61.5 -14.5q18 0 36 12.5t33 16.5h47q18 1 51.5 11t52.5 10q21 0 22 -2q4 0 39 -7t38 -7q5 0 22 1t26 1q45 0 55 -29q13 -46 14 -54v-5v-4q-5 -5 -5 -19 q-42 -78 -50 -98l-57 -56q-11 -13 -26.5 -47.5t-27.5 -48.5q-1 -3 -12 -13.5l-24 -22.5t-14 -13q-9 -11 -18.5 -34.5t-16.5 -34.5q-1 -7 -53 -85q-6 -7 -21.5 -17t-21.5 -17t-7.5 -22.5t-5.5 -24.5q-13 -21 -13 -23q-4 -2 -26 -23.5t-25 -22.5q-1 -4 -9.5 -22.5t-10.5 -21.5 q-1 0 -6.5 -9t-7.5 -10q-1 -3 -14 -15.5l-14 -13.5q-1 -2 -9.5 -13.5t-9.5 -14.5q-2 -1 -8.5 -12l-13 -22t-6.5 -12l-12 -12l-19 -19.5t-10 -12.5q-3 -2 -12 -21t-11 -20q0 -1 -13 -13.5t-14 -14.5q-2 -2 -7 -17t-5 -17q-3 -6 -7 -12t-7.5 -10.5t-10 -9.5t-9.5 -7.5 t-11 -6.5t-11 -6t-12 -5.5t-11.5 -4t-13 -4.5t-11.5 -4q-2 0 -8.5 -3.5t-7.5 -3.5h-10q-14 0 -54 23.5t-40 35.5z" />
<glyph unicode="8" horiz-adv-x="889" d="M468 1007v-11q0 -7 2 -22t4 -28l1 -12q2 -8 17.5 -40.5t22.5 -42.5q22 -36 57 -36q52 0 92 51t65 115q2 5 12.5 21t10.5 26q0 6 -3.5 18t-3.5 20q0 10 6 25.5t6 31.5q0 47 -38.5 101t-84.5 49q-7 0 -28 -15q-3 -1 -12 -6.5t-10 -5.5q-45 -45 -47 -51q-3 -2 -12 -23.5 t-10 -22.5l-6 -14q-2 -3 -12 -15.5t-15.5 -21.5t-6.5 -18q0 -2 -3.5 -28.5t-3.5 -35.5v-9zM252 339v-16.5t0.5 -20.5t0.5 -10q0 -11 28.5 -80.5t32.5 -73.5q5 -3 23.5 -10.5t19.5 -8.5h7q24 0 80.5 34t70.5 55q18 23 22 55q7 96 7 154q0 12 -2.5 25t-4.5 20t-8 22t-8 21 l-6 21q-40 55 -97 55q-31 0 -64.5 -23t-58.5 -53q-5 -5 -7.5 -14t-4 -20t-2.5 -14q-4 -13 -13 -37.5t-12.5 -41t-3.5 -39.5zM87 275q0 122 35 175q2 5 28 37l27 32q14 19 26.5 30.5t36.5 26l32 19.5q10 6 19 19t19 32t13 24q22 41 22 95q0 18 -5 40.5t-9.5 37t-15 42 l-13.5 35.5q0 2 -7 17.5t-7 17.5v7v7q0 1 7 19.5t7 21.5q2 9 7 55.5t5 53.5q9 64 78 154q0 2 5.5 10t8.5 9q1 2 14 8.5t13 7.5q12 12 19 26q22 24 47 34t66 16q59 7 69 7q2 0 24 -7t24 -7q2 -1 23.5 -4.5t23.5 -4.5q81 -15 138.5 -74t57.5 -140v-28q0 -7 -3.5 -16.5 t-3.5 -17.5v-42q-20 -127 -44 -157q-1 -3 -16 -18t-18 -17t-22 -25.5t-20 -24.5q-1 -2 -27 -19q-1 -3 -19.5 -18t-22.5 -17q-7 -5 -34 -19t-39 -28t-12 -37q0 -32 27.5 -86t31.5 -65q0 -21 7 -42q0 -7 7 -12q28 -51 28 -110q0 -30 -9 -65.5t-26 -54.5q-1 -1 -17.5 -16 t-30 -28.5t-14.5 -17.5q-3 -4 -18.5 -35.5l-16.5 -33.5q-36 -62 -161 -118q-4 0 -24 -1t-22 -1q-47 0 -86 13.5t-58.5 27.5l-70.5 53q-1 0 -5.5 2.5l-9.5 5.5t-7 4q-57 36 -69.5 70t-12.5 115z" />
<glyph unicode="9" horiz-adv-x="983" d="M689 640q0 62 -37 117.5t-97 55.5q-21 0 -46.5 -18t-43.5 -39q-53 -64 -76 -97q-4 -40 -36.5 -99.5t-40.5 -85.5q0 -9 -3 -18.5t-9 -21t-8 -17.5q0 -3 -1.5 -14t-1.5 -14q0 -9 8 -26t8 -27v-35q7 -49 7 -73q0 -2 5.5 -13l12.5 -24t9 -16q7 -11 16.5 -18t24 -11.5 t22.5 -6.5t27 -4.5t23 -3.5q25 0 46 14t30 37v20q0 3 9 8t13 6q18 18 19 21q7 8 12 14.5t9.5 14.5t6.5 13t7 16.5t7 17.5q42 91 60 163t18 164zM-64 -400q0 2 1 10l1 9q6 22 28 56q8 13 20 21t30 15.5t26 11.5q13 7 43 26.5t47 29.5l133 69q11 15 20.5 23t23.5 16t25 18 q0 1 6 12l12.5 22t9.5 13q4 6 15.5 16t18.5 19.5t7 21.5q0 8 -7 12q-7 5 -34 18.5t-35 15.5q-36 -13 -52 -13q-8 0 -28.5 16t-46.5 42l-27 25q-19 19 -29 41.5t-11.5 38.5t-3 46.5t-3.5 49.5q-2 2 -8 35v62q0 85 27 150q6 13 14 25.5t20 28.5l17 23q1 1 8.5 18t15.5 32.5 l10 19.5q1 2 14 18t14 17q0 8 12 26q5 11 8 16.5t6.5 10.5t5.5 6.5l9.5 7t12.5 9.5q60 51 69 57q118 63 238 63q38 0 89 -37q39 -24 43 -26q2 -3 26 -15q27 -20 40.5 -47.5t24 -79t13.5 -62.5v-166q-6 -22 -15 -62.5t-13 -55.5q-3 -9 -14.5 -32.5t-14.5 -36.5q0 -4 -2.5 -25 t-3.5 -23q-22 -29 -22 -30q-4 -2 -12 -26q-2 -2 -8 -21.5t-8 -21.5q-1 -2 -18.5 -19t-22.5 -21q-2 -4 -13.5 -21.5t-14.5 -19.5l-62 -78l-50.5 -59t-67.5 -72q0 -3 -1.5 -9t-3.5 -12l-2 -5q-1 -6 -6 -9t-12.5 -4.5t-8.5 -2.5q-31 -20 -79.5 -68t-67.5 -63l-25 -12.5t-27 -14 t-21.5 -13t-23.5 -16.5q-4 -11 -34.5 -25.5t-35.5 -17.5q-4 -2 -20.5 -13t-20.5 -15q-20 -12 -57 -12h-28h-22q-14 0 -25 5q-34 21 -34 23q-2 10 -2 15z" />
<glyph unicode=":" horiz-adv-x="564" d="M264 727v38q0 74 19 95q8 10 27.5 28.5t22.5 19.5q1 1 7 2.5t12.5 3.5t8.5 3q1 0 19.5 6t21.5 6h14q27 0 86.5 -38.5t59.5 -65.5v-109q0 -4 -6 -17t-10 -17q-26 -49 -56 -63.5t-88 -14.5q-59 0 -98.5 33t-39.5 90zM13 76q-7 43 -7 106v26l21 34q1 2 4 7t5 8l4.5 6.5t6 5 t6.5 1.5q1 0 13 1t20 1t20.5 6t13.5 6q29 15 63 15q24 0 39 -1q4 -8 26 -21q3 0 14.5 -6t13.5 -8q5 -4 35 -55q7 -14 7 -19q0 -2 0.5 -5t0.5 -4q0 -12 -10 -31.5t-10 -29.5q-2 -7 -2 -19v-14q0 -13 -5 -24q-1 0 -10.5 -9t-12.5 -11q-12 -11 -45 -32q-16 -10 -114 -10 q-4 0 -28 12q0 4 -64 57q0 7 -5 7z" />
<glyph unicode=";" horiz-adv-x="573" d="M234 737q0 22 15 39.5t43 36t34 24.5h81q4 0 14.5 -5t13.5 -9q1 0 4.5 -5t6.5 -10l4 -5q4 -6 16.5 -18t18.5 -22.5t7 -23.5v-40v-42q-13 -42 -46 -56.5t-82 -14.5q-58 0 -83 31.5t-40 93.5q0 1 -3.5 11t-3.5 12v3zM-141 -348l2 35l20 28q8 9 43.5 43l39.5 38q4 7 35 22 l10 10l19 19.5l12 12.5q1 1 13.5 6.5t14.5 5.5q32 24 42 28q2 3 7 8l9 9t4 5q9 12 9 26t-9 30q-3 5 -39.5 27t-41.5 28q-43 42 -43 112q0 18 9.5 39.5t24.5 30.5q3 2 11.5 6t10.5 5t8.5 3.5t10 3.5t10 1.5t13.5 0.5q3 0 9.5 -0.5t11.5 -0.5h5q4 0 29 -7t29 -7q3 -1 31.5 -3 t30.5 -2q3 -6 17 -27t17 -24q63 -82 63 -129q0 -16 -2 -16q0 -12 -2.5 -32.5t-4.5 -22.5q-8 -26 -28 -57q0 -2 -5.5 -16.5t-7.5 -18.5l-5 -6l-12 -10.5l-11.5 -11t-6.5 -7.5q-4 -4 -17.5 -30t-22.5 -30q-9 -10 -27 -34t-29 -37t-30 -28t-40 -21q-15 -3 -45.5 -12l-54 -15.5 t-25.5 -6.5h-48q-8 0 -27 7t-29 7q-8 1 -8 15z" />
<glyph unicode="&#x37e;" horiz-adv-x="573" d="M234 737q0 22 15 39.5t43 36t34 24.5h81q4 0 14.5 -5t13.5 -9q1 0 4.5 -5t6.5 -10l4 -5q4 -6 16.5 -18t18.5 -22.5t7 -23.5v-40v-42q-13 -42 -46 -56.5t-82 -14.5q-58 0 -83 31.5t-40 93.5q0 1 -3.5 11t-3.5 12v3zM-141 -348l2 35l20 28q8 9 43.5 43l39.5 38q4 7 35 22 l10 10l19 19.5l12 12.5q1 1 13.5 6.5t14.5 5.5q32 24 42 28q2 3 7 8l9 9t4 5q9 12 9 26t-9 30q-3 5 -39.5 27t-41.5 28q-43 42 -43 112q0 18 9.5 39.5t24.5 30.5q3 2 11.5 6t10.5 5t8.5 3.5t10 3.5t10 1.5t13.5 0.5q3 0 9.5 -0.5t11.5 -0.5h5q4 0 29 -7t29 -7q3 -1 31.5 -3 t30.5 -2q3 -6 17 -27t17 -24q63 -82 63 -129q0 -16 -2 -16q0 -12 -2.5 -32.5t-4.5 -22.5q-8 -26 -28 -57q0 -2 -5.5 -16.5t-7.5 -18.5l-5 -6l-12 -10.5l-11.5 -11t-6.5 -7.5q-4 -4 -17.5 -30t-22.5 -30q-9 -10 -27 -34t-29 -37t-30 -28t-40 -21q-15 -3 -45.5 -12l-54 -15.5 t-25.5 -6.5h-48q-8 0 -27 7t-29 7q-8 1 -8 15z" />
<glyph unicode="&#x3c;" horiz-adv-x="902" d="M370 292l-29 -3l-11 24q-42 36 -43 36q-11 0 -15.5 10.5t-6 27.5t-1.5 18q-4 2 -12 6.5t-10 6.5t-5.5 8t-6.5 15l-29 54q-28 6 -49.5 33.5t-9.5 56.5q9 21 35 38t64 32.5t49 22.5q7 2 26.5 20t25.5 18q21 15 41 26t34 21q7 4 14 15q4 8 22 20l57 15l77 54l30 5 q3 1 10.5 8t13.5 9l68 38q17 2 60 39.5t55 40.5q24 8 42.5 24.5t29.5 22.5q20 11 62 25.5t62 25.5q8 -7 11 -20.5t-3 -29.5q-10 -23 -26.5 -35.5t-42 -25t-43.5 -27.5q-9 0 -34.5 -13.5t-54 -30.5l-33.5 -20q-6 -2 -29 -17t-28 -19l-69 -37q-5 -3 -25 -18.5t-35.5 -24.5 t-27.5 -9h-5q-19 -24 -29 -29q-12 -5 -14 -5q-16 -4 -35 -18t-26 -17q-32 -19 -75.5 -40t-79.5 -43q-5 -13 -0.5 -24.5t13.5 -11.5q15 -13 28 -28l28 -33t25 -29q-1 -1 4.5 -5t8.5 -5q2 0 24 -22.5t27 -24.5q2 -14 5.5 -19.5t7.5 -5t10 -2t11 -11.5q2 -14 18.5 -43.5 t29.5 -29.5q4 -4 16.5 -15.5t20.5 -20t14 -17.5q5 -7 9.5 -15.5t9.5 -15t13 -11.5l13.5 -10t15 -11.5t14.5 -13t11 -15.5t4.5 -18.5t-4.5 -21.5q-10 -25 -50 -57.5t-71 -32.5q-8 0 -14.5 4.5t-14 14t-10.5 12.5t-18 6.5t-22 9.5l-17 50l-15 9q-8 5 -17.5 34t-27.5 40 q-7 4 -18 18t-19 25.5t-9 11.5z" />
<glyph unicode="=" horiz-adv-x="974" d="M241 735l16 49l8 21.5t8.5 20.5t10 16t16.5 13.5t24 6.5h50q14 0 43.5 10t46.5 10q10 0 25 -7t27 -7l47 7l123 -22l117 15l40 -6q10 0 31.5 10t32.5 10q52 0 66 -43l-24 -81l-12 -28q-37 -35 -111 -35l-106 7q-192 0 -289 -5q-19 -1 -65 -7.5t-70 -6.5q-16 0 -35.5 16.5 t-19.5 35.5zM96 324q0 21 12 43q33 85 86 90h51q16 0 45.5 10t45.5 10l52 -15q10 0 25.5 3.5t21.5 3.5q24 0 63.5 -10.5t59.5 -10.5q18 0 59 7t60 7l38 -5q11 0 32 10t34 10q24 0 42.5 -12t23.5 -31l-13 -27q-6 -22 -19 -37t-22 -36l-4 -17q-41 -37 -110 -37l-106 9 q-153 0 -290 -7q-21 -1 -66.5 -7.5t-67.5 -6.5q-18 0 -35.5 17.5t-17.5 38.5z" />
<glyph unicode="&#x3e;" horiz-adv-x="900" d="M460 325l-34 -29h-28q-2 0 -20.5 -12t-43 -26t-38.5 -18q-19 -10 -51.5 -38t-48.5 -36l-19 -5l-63 -54q-7 -3 -26.5 -6t-28.5 -8q-47 -29 -62 -29q-32 0 -44.5 32.5t0.5 55.5q7 16 24 31t31 22.5t39.5 19.5t32.5 15q18 7 38.5 23t30.5 22l95 51q14 0 52.5 28t58.5 46 q18 12 32 13.5t35 22.5q5 6 47.5 27.5t44.5 21.5q3 0 21 12q134 76 158 88q8 0 22 11.5t20 24.5q-18 25 -45.5 47.5t-40.5 35.5q-4 4 -11 18t-18 19l-13 2q-1 3 -1.5 8.5t-0.5 10t-2 7.5t-6 3q-12 0 -19.5 10t-13 25t-6.5 17l-37 41q-2 0 -8 7t-12.5 15.5t-7.5 9.5 q-4 3 -17.5 20.5t-28 31t-25.5 13.5q-3 13 -13.5 23t-17.5 15t-10.5 18t5.5 31q11 26 53 52q9 -13 39 -28t39 -26q4 -5 11 -21.5t23 -23.5q6 -3 19 -40.5t29 -40.5l5 -4q15 -16 23.5 -28t11 -17t5.5 -7h28q3 -4 12 -25.5t16 -29.5q15 -9 24.5 -16t14 -13t6 -9t2.5 -9t1 -7 q4 -6 17.5 -16.5t20.5 -26.5q5 0 10 -19.5t8 -21.5q1 -1 29.5 -20t37.5 -35.5t0 -38.5q-12 -28 -55 -55t-76 -35q-10 -2 -40 -27t-34 -25q-11 -10 -20.5 -16t-13 -8t-16 -6.5t-15.5 -5.5q-4 -3 -19 -18.5t-30 -27t-25 -11.5l-11 -4q-28 -4 -56 -24z" />
<glyph unicode="?" horiz-adv-x="725" d="M242 471q0 18 5 26.5t15.5 16.5t17.5 19q0 4 -1 11.5t-1.5 13.5t-0.5 11q0 12 1.5 37t1.5 38q0 37 -12 62v156l4 12l9 25t6 20q11 24 27.5 44.5t30 31.5t39.5 29.5t40 29.5q13 3 38 13.5t40 12.5q26 0 50 6q3 1 16.5 17t14.5 16q9 0 16 7q44 11 70 11q11 9 24 27t28 26 q3 2 31 16t33 17q6 6 25.5 44t19.5 46q0 20 -34.5 45.5t-58.5 25.5q-21 0 -68 -13t-70 -13q-40 0 -65 13t-53 44v4q0 74 61.5 116.5t137.5 42.5h15q136 -25 193.5 -116t57.5 -239v-14q0 -11 -3 -33.5t-4 -23.5q-5 -16 -28.5 -39.5t-28.5 -39.5l-79 -77l-25 -12 q-1 -3 -15 -15t-17 -12q-3 -1 -26 -3t-25 -3q-11 -4 -51 -41.5t-52 -37.5h-71q-7 -8 -26 -20.5t-26 -22.5q-21 -29 -34.5 -67t-18 -65.5t-9.5 -73.5q-3 -9 -13 -27.5t-10 -28.5q0 -9 26 -52.5t26 -78.5v-16q-4 -2 -11 -6.5l-9.5 -6t-7.5 -3.5t-9 -2.5t-10 -0.5 q-30 0 -88.5 26t-58.5 44zM159 104q0 45 31 110t71 65q34 0 65 -5.5t62 -18t50 -38.5t19 -61q0 -29 -15 -55.5t-45.5 -60.5t-38.5 -45q-7 -5 -26 -5h-24q-58 0 -103.5 30t-45.5 84z" />
<glyph unicode="@" horiz-adv-x="1569" d="M729 493q0 -32 20 -40q8 -10 18 -10q41 0 79 40q16 14 45.5 42.5l50.5 50.5l22 21l83 109l41 47l47 93l21 78q0 1 1 5t1 5q0 22 -11 31l-8 11q-6 0 -7 1q-12 0 -12 2h-14l-4 -2q-4 -1 -57 -24q-2 -1 -12 -8q-1 -1 -29.5 -27t-32.5 -29l-11 -8h-10l-76 -82 q-11 -11 -14 -29q-1 -2 -3 -9.5t-4 -11.5q-6 -10 -19.5 -23.5t-16.5 -17.5q-3 -3 -11.5 -18.5t-9.5 -16.5l-64 -114v-7q-3 -28 -3 -59zM964 400v8q3 4 12.5 24t11.5 23q5 9 5 29q-1 11 -1 13q0 5 -5 12t-11 7q-1 0 -2 -0.5t-2 -1.5t-3 -2q-3 0 -7 -2l-3 -1l-7 -7 q-1 -3 -12.5 -13.5t-15.5 -12.5l-59 -38q-25 -30 -36 -35q-21 -24 -55.5 -40t-67.5 -19h-29q-40 0 -57 4q-6 0 -9 7q-40 21 -57 77q-5 16 -5 47v21q0 26 17 55q27 71 62 128q2 4 6.5 11l8 12.5t6.5 9.5l7 12q45 54 50 63q3 4 13 9.5t13 9.5l83 71l4 5q35 36 53 60q1 1 6 4.5 t6 4.5l2 2l10 1q6 1 23 18q72 57 164 74q23 5 66 5h9q6 -2 15 -7.5t14 -6.5q2 0 6.5 -1.5t5.5 -1.5h23l1 2q7 5 26 29q34 36 59 36h11q27 -26 27 -67q0 -7 -0.5 -13.5t-2 -13l-2.5 -11t-4 -11.5t-4 -10.5t-5 -11.5t-5.5 -10.5t-6.5 -11.5t-6 -11q-3 -10 -7 -33q0 -6 -4 -10 l-107 -221q-3 -6 -3 -14q0 -11 -2 -16q-1 -2 -12.5 -29t-18.5 -40v-4q-9 -24 -12 -27q-7 -18 -7 -21q0 -28 15 -28q13 0 37 18l110 64q9 7 14 8q35 29 59 51t50.5 52.5t42.5 64t21 68.5q7 26 7 72q0 9 -4 30t-4 31q-9 20 -21.5 51l-20 48.5t-18 38.5t-20.5 36h-2l-69 94 q-24 9 -59.5 32t-45.5 28q-81 52 -113 56q-24 -5 -35 -5h-15q-17 0 -26 -4l-36 17q-81 0 -109 -32q-62 -5 -103.5 -16t-75 -35t-57 -51t-58.5 -77l-26 -26l-37 -57q-12 -12 -12 -38l-48 -121q-7 -13 -11.5 -30.5t-8.5 -47t-4 -31.5q0 -3 -10.5 -33t-10.5 -41 q10 -149 71 -270q4 -5 16 -47.5t42 -61.5q31 -65 61 -87q19 -13 45 -45.5t47 -50.5q15 -3 35.5 -9.5t39 -13t22.5 -7.5l60 -19l92 2q46 7 79 7q23 0 46 -2.5t24 -2.5q3 0 11.5 -3t19.5 -3q20 0 41 10t37 13q4 4 62 36.5t62 32.5q54 0 54 -29q0 -14 -13 -34t-27 -32 q-25 -37 -38.5 -47t-28.5 -10q-23 0 -44 -12q-68 -28 -128 -28l4 2q-9 -2 -40 -2h-133q-37 0 -45 2q-35 0 -74.5 7.5t-88 19t-74.5 16.5q-8 0 -12 7q-59 44 -120 78l-34 7q-10 2 -58.5 44.5t-52.5 53.5l-78 139q-19 48 -47.5 144.5t-28.5 128.5q0 7 4.5 16.5t4.5 16.5l-9 57 q0 27 8 73.5t19.5 100t14.5 68.5q1 5 8.5 18.5t11.5 18.5q14 17 24.5 49.5t19.5 46.5q4 7 19 19.5t15 29.5l118 118l83 41q1 1 3 3.5t5.5 6.5t5.5 7l48 16l133 64l258 50h55l51 -22l27 3l68 -22l38.5 -15l57.5 -23.5t35 -18.5q44 -42 90 -70q17 -11 58.5 -67t45.5 -71 q1 -9 1.5 -24t1.5 -23t6 -17.5t15 -16.5q15 -62 29 -137t14 -85q0 -14 -1.5 -23.5t-5 -22.5l-5.5 -20q-36 -49 -36 -58q-11 -15 -29 -51.5t-47 -59.5q-69 -56 -101 -77.5t-102 -61.5l-65 -55l-7 -7q-2 -1 -10.5 -7.5t-10.5 -7.5q-6 -6 -19.5 -11t-18.5 -8q-8 -5 -26.5 -21 t-30.5 -21l-33 -12h-3l-66 12q-9 5 -12 5q-17 13 -19 18q-14 19 -14 38z" />
<glyph unicode="A" horiz-adv-x="1381" d="M785 718q0 -29 13.5 -41t43.5 -23l20 -9h112q16 0 31.5 22.5t32 60t19.5 42.5q5 12 21 28q14 17 14 22q2 8 18 52t18 52q-2 0 -2 3q0 4 2 4q0 18 7 20q0 21 5 28q2 3 20 36.5t22 39.5q-7 23 -18 23h-1q-27 -15 -35 -23q-1 -1 -8 -10t-8 -10l-12 -14q-37 -15 -43 -21 q-25 -34 -26 -35q-40 -24 -43 -29q-3 -2 -17.5 -16t-17.5 -19q-2 0 -11.5 -5.5t-9.5 -6.5q-4 -3 -14 -13.5l-18.5 -19t-10.5 -8.5q-2 -7 -13 -30t-14 -26q-7 -12 -27 -21.5t-35 -21t-15 -31.5zM-187 24q0 43 35 64q1 2 14 10.5l28 18.5t20 14q13 8 37 15t32 11q25 20 28 23 q30 12 41 12q1 2 8 5t8 4q84 56 116 90q2 2 12 15l10 12q6 5 27 19t29 25q8 7 18.5 31t15.5 31q27 17 50 38t36.5 36.5l40.5 48.5q0 6 7 8q1 0 10 3t10 4q19 12 35 24.5t23.5 19.5t25.5 25.5l27 27.5q2 0 14.5 3t13.5 4q1 2 9.5 12.5t9.5 10.5q16 5 38 19q0 1 5.5 13.5 t6.5 13.5q1 4 12 14.5t16 13.5l20 14q14 13 40 44.5t43 45.5l14 7q17 21 37 36q23 23 34 26q112 87 118 92q1 1 6 5.5t9.5 9l5.5 5.5l6 14q7 10 17.5 15.5t17.5 12.5q18 15 44 47t46 50q5 5 85 64q10 5 14 5q0 1 6 8t6 8q12 0 78 6l9 4q9 3 10 3h17q60 0 60 -48 q0 -68 -43 -147q0 -2 -9 -17.5t-10 -17.5l-7 -12v-10v-24q-2 -11 -14 -23q-4 -8 -10 -25t-10 -25q-14 -24 -27.5 -71.5t-21.5 -66.5q-1 -1 -14 -16.5t-15 -18.5q0 -1 -2.5 -14t-2.5 -14q-14 -28 -14 -41q-11 -9 -17 -20.5t-11.5 -29.5t-8.5 -25q-3 -21 -13 -38 q-2 -2 -14.5 -25.5t-13.5 -27.5q0 -2 -3.5 -18t-3.5 -17q-9 -33 -37 -92.5t-37 -89.5q-2 -1 -5.5 -13.5t-6.5 -26t-4 -15.5q0 -1 -9.5 -17t-9.5 -18q-7 -7 -16 -29q-27 -40 -27 -52q0 -8 18 -20t35.5 -30.5t17.5 -41.5q0 -20 -2 -22q-6 -15 -69 -28q-13 0 -111 -7h-9h-6 q-14 7 -26 7h-175q-6 5 -17.5 11.5t-18 13t-6.5 17.5q0 38 19.5 51.5t54.5 19.5t53 20q51 42 96 139q0 2 5.5 17t7.5 17q11 14 15 14q11 17 17.5 54.5t8.5 42.5q1 2 12 27.5t11 29.5v19v12q0 25 -7 32q-12 6 -23 6q-2 2 -23 11t-24 10h-8h-14q-8 0 -28 -2l-36 -3.5t-17 -1.5 l-11 -3q-10 -3 -12 -5h-3q-9 0 -26.5 4t-27.5 4q-19 0 -51 -14t-44 -29q-4 -2 -21 -28q-3 0 -8 -7q-25 -17 -48.5 -40.5t-52.5 -56t-43 -46.5l-25 -25.5l-38 -38.5t-22 -21l-19 -14q-24 -20 -40.5 -51t-16.5 -61v-12l42 -42q8 -9 8 -27v-9q0 -19 -7 -27t-24 -8q-9 0 -27 4.5 t-27 4.5q-10 0 -25 -7.5t-25 -8.5h-31q-25 0 -76 4.5t-76 4.5q-12 0 -34.5 -8t-34.5 -8q-29 0 -46 7t-34 28v5z" />
<glyph unicode="B" horiz-adv-x="1347" d="M1159 1244l-28 28q-59 33 -147 48q-5 0 -33 -10l-64 -66q-15 -12 -43 -54q-14 -34 -22 -50q-3 -11 -28 -45q-4 -8 -13 -29.5t-14 -31.5t-14.5 -25.5t-20.5 -27t-25 -21.5q5 -14 -15.5 -57.5t-20.5 -63.5q0 -31 9 -38q15 -16 105 -16q9 0 23 4.5t22 4.5q15 0 39.5 -4.5 t38.5 -4.5h35q3 9 7.5 15.5t12.5 12.5t11 8t16.5 8t16.5 7q26 6 81 34q2 3 36 28q25 20 42 28q4 2 13.5 4.5t16.5 6t11 9.5q3 3 17.5 24.5t17.5 24.5l7 14q12 25 12 58t-12 61q0 3 -16 35l-15 12q-1 4 -2.5 7.5t-4.5 8.5t-4 8q-25 31 -27 33zM372 145q0 -29 50 -53h35 q40 0 118 9.5t112 10.5q4 9 9.5 12.5t14.5 4.5t15 4q18 9 23 14q2 0 17.5 6.5t16.5 7.5q12 6 21 12q64 56 99.5 105.5t52.5 117.5q2 7 2 11l-2 12q0 29 -6 83q0 6 -4.5 20.5t-8.5 20.5q-3 2 -29 28q-1 1 -14 17t-14 17l-62 65q-12 10 -46 15.5t-46 11.5q-6 2 -21 9t-22.5 10 t-21 6t-25.5 3q-29 0 -54.5 -35.5t-33.5 -70.5q-2 -3 -8 -27t-7 -30q-3 -8 -13.5 -19t-12.5 -21q-3 -7 -19 -53t-18 -50q-9 -29 -43 -78.5t-40 -89.5q-1 -7 -8 -46.5t-7 -59.5zM-64 -12q0 75 34 88q2 1 21 4.5t21 4.5q53 11 105 69q15 18 27.5 38t25.5 47.5l19.5 42t21 51 l17.5 44.5q4 9 17.5 29t17.5 33q0 2 6 27t6 27q6 20 28 57q27 38 34 55q6 11 22.5 46t27.5 53q14 10 14 12q2 3 7.5 9.5t9.5 12t4 6.5q1 2 4 17t3 17l5 10q4 10 8.5 19t7.5 13q2 4 17.5 32t16.5 30v30q2 16 10 33.5t14 27t20.5 29.5l19.5 27l11.5 21t19.5 31q2 3 4 11.5 t5 12.5q0 2 9 17.5t12 17.5q0 1 6.5 17t7.5 18l3 7l6.5 13.5t3.5 10.5q0 28 -34 52q-54 23 -69 34q-18 8 -23 19.5t-5 32.5v14q0 10 5 16q3 1 17 12t18 15l22 16h104q16 7 55 7q8 0 76.5 -3.5t76.5 -3.5q20 -2 143 -2t146 2q4 -1 19 -6l28 -9t17 -6q10 -4 23 -15.5t16 -13.5 q2 0 8.5 -2.5t7.5 -2.5q36 -30 93 -84q24 -16 63 -81q1 -11 7.5 -66t7.5 -67q0 -12 -3.5 -23t-10 -25.5t-8.5 -20.5q-56 -152 -166 -229q-16 -13 -90 -43q-7 -2 -25.5 -5.5t-29 -6.5t-20.5 -12.5t-10 -23.5v-12q0 -47 15 -63q7 -8 22 -17t24.5 -18.5t9.5 -24.5 q0 -11 -4.5 -21t-12.5 -21t-11 -17v-68q0 -26 3.5 -80.5t3.5 -83.5q-9 -21 -22.5 -42t-24 -34l-30 -36l-27.5 -33q-1 -1 -4.5 -5.5l-9 -11.5l-8.5 -11q-62 -46 -134 -62t-166 -16q-10 0 -30.5 1t-31.5 1q-17 -14 -52 -14h-22q-6 0 -18.5 0.5t-22.5 1.5h-9l-15 4q-14 3 -20 3 q-10 -7 -14 -7q-2 -1 -8.5 -3t-12.5 -3.5t-6 -2.5h-75h-29q-8 0 -50 -7q-2 0 -26.5 -6t-27.5 -6q-8 -2 -62.5 -4.5t-69.5 -2.5q-2 0 -126 -22q-55 0 -55 57z" />
<glyph unicode="C" horiz-adv-x="1296" d="M488 0q-41 24 -62 28q-2 1 -17 4t-18 3q0 1 -5 6l-12 11.5t-11 9.5q-23 32 -41 50q-6 8 -23.5 20.5t-23.5 21.5q-9 11 -15.5 24t-9.5 20t-9.5 26.5t-8.5 26.5q-43 116 -42 194q1 32 6 69t10 62.5l13.5 69l12.5 63.5q5 10 5 50q2 1 6 10.5t9.5 21l7.5 15.5q1 4 7 15.5 t8 12.5q0 14 12 50q1 3 21 27.5t21 26.5q2 3 11 26t10 24q7 13 14.5 25t18 26l17.5 23t20.5 24.5l19 22t22 23.5t19.5 20.5t22 22.5l20 20q14 14 35.5 30t33.5 28q3 1 18 16t16 18q10 5 23 5q1 2 11 9l10 7q2 0 10 3.5t10 3.5q16 6 42 27.5t41 27.5q4 2 26 8t23 6t7 3.5 t8 3.5q10 5 28 5q2 2 12 2q6 0 14.5 -0.5t14 -1t6.5 -0.5q13 2 33.5 12.5t35.5 10.5q43 5 78 5q44 0 99 -5q0 -1 9 -6.5t10 -7.5q2 -1 40.5 -23t43.5 -26q1 -1 13 -9.5l25 -18t18 -13.5q5 -7 7 -7q3 -7 26 -34t29 -28q21 -6 33.5 -12t24 -23.5t11.5 -44.5q0 -10 -4.5 -20.5 t-12.5 -22.5t-11 -18q-30 -58 -41 -98q-1 -1 -4 -16.5t-5 -18.5q-9 -26 -35.5 -44t-54.5 -18q-16 0 -32 12t-16 29v9q7 37 7 62q1 1 3.5 10.5t6 21.5t5.5 17q0 1 3.5 10.5t3.5 10.5q0 5 -3 19t-4 15q0 1 -34 35q-4 4 -16 22q-33 37 -41 40q-4 3 -25 15.5l-46 28l-33 20.5 q-18 9 -45 9h-17q-59 0 -97 -9q-24 -35 -39 -44q-5 -2 -11 -4q-1 0 -20 -7t-22 -9l-5 -5q-2 -2 -21.5 -17.5t-20.5 -17.5q-3 -3 -19.5 -22.5l-31.5 -37t-20 -24.5q0 -1 -6.5 -14t-6.5 -14q-2 -3 -12.5 -13.5t-15.5 -12.5q0 -2 -7 -5t-7 -4q-6 -9 -14 -29q0 -1 -10.5 -9.5 t-10.5 -9.5t-1.5 -6t-3.5 -9.5t-3 -5.5q-26 -66 -47 -104q-1 -1 -4.5 -6.5t-7 -10t-3.5 -5.5q0 -19 -7 -28q-4 -10 -6 -14q-45 -71 -64 -117q-4 -13 -6 -28.5t-3.5 -33.5t-2.5 -28t-14 -71t-13 -94v-22q0 -2 2.5 -8.5t2.5 -7.5v-34q10 -76 29 -104l12 -14q0 -1 10.5 -20.5 t12.5 -22.5q15 -24 34 -47q6 2 16 2q14 0 40 -12t48 -12q49 0 69 6q24 12 35 23q7 4 20.5 9t23 11t18.5 15q1 0 7.5 9.5t8.5 10.5q13 15 52 30.5t45 18.5q12 7 29 25t23 28q26 33 61 59t46 26h5q84 0 94 -60v-9q0 -14 -8 -32.5t-20 -41l-16 -30.5q-33 -87 -34 -92 q-2 -2 -7.5 -13.5t-6.5 -11.5q-3 -4 -18.5 -26t-22 -29t-20.5 -20.5t-28 -18.5t-31 -5q-24 0 -47.5 21.5t-48.5 21.5h-13q-17 0 -41 -15q-1 0 -8 -7t-8 -7q-2 -5 -34 -5q-3 -1 -38 -15.5t-56 -14.5h-17q-12 2 -147 14z" />
<glyph unicode="D" horiz-adv-x="1801" d="M669 202q0 -44 19.5 -58t66.5 -14q48 0 179 21q6 2 29.5 8t25.5 7q6 1 40.5 19t42.5 23q1 0 11 1t20 2.5t12 3.5l40 20q2 0 21 14q13 7 38 19t44.5 23.5t35.5 26.5l15 14q15 15 26.5 25.5t28.5 23t28 17.5l54 59l3 5l6.5 9t5.5 6q0 1 5.5 13t6.5 13q8 10 29.5 32.5 t35.5 42t18 38.5q28 93 28 152q0 32 -28 75q14 34 14 84v37v60q-4 10 -19.5 32.5t-19.5 36.5q-2 2 -5 14t-4 12q-42 68 -115 107.5t-152 39.5q-27 0 -46.5 -10t-28 -21t-23 -35.5t-23.5 -36.5q-5 -8 -14.5 -19.5t-16 -21.5t-10.5 -22q-1 -1 -4 -13t-3 -14l-10 -20.5 t-11 -21.5q-3 -6 -24 -30.5t-24 -38.5q-5 -18 -5 -55q-18 -18 -23 -30q-1 0 -4 -5t-3 -7q-5 -5 -5 -22q-3 -1 -12 -12t-11 -14q-6 -12 -6 -14q-1 -1 -2.5 -7t-3.5 -10.5t-3 -5.5l-54 -116q0 -1 -10 -13.5t-11 -15.5l-6 -12q0 -1 -3.5 -11t-3.5 -12q-3 -7 -16.5 -31.5 t-18.5 -42.5q0 -2 -3.5 -12t-3.5 -11q-1 -1 -7 -23t-7 -23q-2 -4 -24.5 -29.5t-23.5 -27.5q-15 -20 -35 -76q-4 -11 -16.5 -36.5t-19.5 -45.5t-7 -40zM131 16q0 16 13 38.5t28 33.5l21 18h152q2 4 21 17q1 1 5.5 2.5t8.5 3.5l5 2q5 0 16 14q11 9 31.5 34t21.5 29 q10 11 20 36t15 33q3 1 14.5 15t14.5 19q6 12 6 42q4 16 8 25t12 20.5t14 23.5q7 11 26.5 48t23.5 49q2 0 8 5.5t6 6.5q1 3 7 28l7 29q25 44 35 54q23 45 26 57q6 6 22 62l12 19q3 4 9 15.5t7 12.5q1 2 3.5 15.5t5.5 26t5 15.5q1 5 11.5 26t15.5 29q1 2 13 20l22.5 35 t11.5 21q2 1 5 17.5t4 17.5l7 14l19 35q4 4 18 11.5t23 16t9 20.5v118q-11 15 -16 20q-26 35 -69 35h-19q-33 -9 -201 -17q-34 -2 -94 -55t-60 -94q0 -23 16 -45.5t43 -47.5t33 -32q1 0 4.5 -6.5l8.5 -15.5t8 -12q7 -12 7 -21q0 -60 -28 -83q-5 -5 -18.5 -13t-16.5 -8 q-32 -8 -62 -8q-33 0 -55 8q-3 2 -19.5 18t-22.5 24l-14 34q0 1 -3 10l-3 9q-1 3 -14.5 40.5t-13.5 58.5q0 64 23 137t67 105q3 2 25 13t28 22q4 5 14.5 23t20.5 25q12 4 43 10t55.5 13.5t39.5 18.5q45 1 135 1q123 0 186 -1q10 -7 20 -7h19h50q5 -1 72 -4t76 -5q1 0 36 1 t57 1q31 0 36 -2q23 0 57 -8.5t47 -10.5h35q1 -1 16.5 -7t17.5 -8q22 0 28 -6q2 -3 11 -11.5t10 -8.5q14 -9 20 -9l35 -34q35 -34 43 -40q6 -9 61 -42q1 0 4 -3.5t5 -3.5q4 -14 12 -21q18 -34 48 -98q1 -1 4 -8.5t5 -10.5q6 -25 20.5 -66.5t19.5 -58.5v-69q0 -150 -35 -256 q0 -1 -2.5 -7.5t-2.5 -8.5q-3 -2 -15.5 -20t-14.5 -19q-5 -16 -5 -23q-17 -52 -69 -145q-6 -3 -16 -28q-12 -18 -36.5 -36.5t-32.5 -32.5q-8 -8 -19 -35q-8 -9 -29 -22t-28 -19q-65 -58 -97 -75q-23 -14 -97 -48q-16 -11 -20 -16q-39 -10 -40 -12q-12 -4 -34 -17t-35 -17 q-19 0 -173 -7q-5 -1 -38 -5.5l-67.5 -9.5t-48.5 -6q-6 0 -23 -7h-303q-12 -3 -131 -22h-85q-5 0 -54.5 -3t-54.5 -3h-5q-26 0 -48.5 10.5t-22.5 33.5z" />
<glyph unicode="E" horiz-adv-x="1553" d="M-95 73v3q8 24 19 33.5t33 9.5q12 0 32 -7.5t30 -7.5h5q14 7 63 21h6q6 0 11 -4.5t10 -4.5q5 3 7 3q12 6 20.5 19t16 32t10.5 24q9 9 14 22q37 49 43 54q15 20 27.5 68.5t19.5 62.5q8 18 29 50.5t28 48.5q5 15 11.5 52.5t15.5 59.5q15 34 45 69t38 47q11 18 25.5 53.5 t23.5 50.5q1 2 6.5 8.5t10 12.5t4.5 7t1.5 13.5t3.5 24t3 12.5q4 10 5 14q9 14 19.5 41.5t15.5 36.5q5 1 23 19q0 1 3 11t5.5 19.5t3.5 10.5q7 16 25.5 40t22.5 31q1 1 4.5 6t4.5 6q8 37 19 99v2q0 2 -2.5 6t-4.5 4q-11 2 -38.5 3t-51.5 3t-49 7.5t-40 20t-15 37.5 q0 16 16.5 31.5t33.5 16.5h69q1 0 10 3.5t10 3.5h10q8 0 21.5 -3.5t19.5 -3.5h4q42 7 50 7q85 16 196 16q58 0 88 -2q13 9 24 9q2 0 8 -1t11 -1h12l14 7q50 9 131 9q8 0 25 -0.5t31 -1t15 -0.5q6 0 62.5 -3.5t62.5 -3.5h83q29 0 92 -14q12 -2 17 -9.5t6.5 -23.5t3.5 -22 q0 -1 3.5 -11t3.5 -12v-1q0 -16 -4 -34t-7 -27.5t-12 -32.5l-11 -28q-6 -15 -10 -39t-6 -32q-6 -25 -35.5 -54t-54.5 -29h-7q-22 14 -31 39.5t-11.5 63t-5.5 51.5l-5 19l-51 51q-7 7 -13 7h-63q-48 0 -62 6q-1 0 -14 6.5t-14 6.5q-5 3 -50 12t-48 10q-7 2 -21 7t-22.5 7.5 t-20.5 4.5t-23 2q-36 0 -66 -43q-2 -2 -12.5 -23.5t-12.5 -30.5q-2 -1 -3.5 -5.5t-3 -10.5t-2.5 -7q-2 -2 -21 -20t-21 -19q-5 -12 -7 -16q0 -1 -3.5 -9l-7 -16t-4.5 -10q-4 -5 -5 -6q-5 -6 -23 -30.5t-19 -25.5q-1 0 -4 -6t-3 -8q-1 -4 -11 -32t-10 -30q-13 -30 -22 -41 q-3 -5 -16.5 -24t-22 -35.5t-8.5 -30.5q0 -28 16 -52.5t41 -24.5q28 0 52 7q21 6 33 6q9 0 28 -3t33 -3h74q12 0 20 6t17 18.5t12 15.5q2 3 34 35q2 2 21 25t21 25q0 1 13 9.5t14 9.5q6 6 20 22t24 22t26 6q24 0 31 -11t7 -36q0 -37 -9 -77q0 -2 -7 -12t-7 -11 q-1 -1 -4.5 -6t-4.5 -6q-16 -46 -55.5 -129t-47.5 -101q0 -1 -3.5 -14t-3.5 -14q-12 -36 -18.5 -51.5t-25 -36t-46.5 -29.5q0 -2 -7 -2q-19 0 -33 33.5t-14 54.5q0 7 2.5 20.5t2.5 21.5q0 74 -48 86q-3 1 -26.5 4t-28.5 3q-27 13 -28 16q-1 0 -14 2.5t-14 2.5q-1 2 -18 4.5 t-22 2.5q-1 0 -5 0.5t-5 0.5q-22 0 -76 -20q-24 -10 -62 -63l-97 -176q-5 -4 -7 -5l-35 -21q2 -9 2 -24q0 -57 -43 -135q-1 -4 -10 -18.5t-11 -16.5v-17q0 -41 12 -54q28 -20 38 -20h14h40q106 -11 124 -14q2 0 12 -3.5t11 -3.5q28 -7 62 -7h62q2 0 11 -3.5t10 -3.5h9h19 q2 -2 62 -2q54 0 62 2q91 7 134 14q14 3 24.5 8.5t26 17t21.5 15.5q26 15 59 44q3 1 26 15t28 16q29 16 57 39q1 2 10.5 11.5t10.5 9.5q16 13 31 36.5t20 29.5q9 9 28 9q11 0 17.5 -14t6.5 -28q0 -34 -7 -50q-11 -63 -34 -109q-1 -2 -5.5 -8.5t-9.5 -13t-6 -7.5 q-6 -17 -28 -56q-18 -35 -62 -52t-90 -17h-28l-13 4q-13 3 -14 3q-3 0 -16 1t-22 1t-23 -1t-15 -1q-16 9 -23 9q-3 0 -28 -9h-51h-52q-1 0 -14 2.5t-14 2.5q-2 4 -5 4q-5 0 -16.5 -4.5t-18.5 -4.5h-62h-36q-5 0 -37 -2t-38 -2q-7 0 -24.5 1t-32 2t-15.5 1h-13q-17 0 -65 -2 t-54 -2h-90q-4 0 -35 3t-36 3q-1 0 -17 -1l-17 -1q-2 -2 -19 -2q-12 0 -31 1t-20 1q-9 0 -19 -5q-24 -4 -71 -4q-18 0 -54 1t-53 1h-60q-10 4 -18 12.5t-11 14.5t-9.5 22t-8.5 20v4z" />
<glyph unicode="F" horiz-adv-x="1275" d="M29 50q0 16 33 56q4 6 21.5 17t18.5 14q4 4 20 5.5t21 4.5q7 7 23 7q2 2 18 26.5t16 25.5l78 154q0 23 5 53q3 11 18 32.5t17 30.5q5 11 13 37.5t16 40.5q5 2 21 27q7 15 19.5 50t22.5 54q5 11 16 30.5t18.5 35t11.5 33.5q8 18 19.5 54.5l15.5 48.5q3 3 19.5 35t18.5 35 q0 1 2.5 10.5l5.5 21t4 16.5q10 39 39 109t37 94l1 6q1 5 1 6q0 19 -9 27q-4 0 -18.5 1.5t-31.5 3.5t-19 2q-33 7 -60 24t-30 45v6q0 14 8.5 29t19.5 16q17 1 104 12q2 2 15 5l12 3h16q8 0 22 -4t21 -4h10q2 3 23 8q5 0 40 3.5t41 3.5h37h13q2 0 20.5 6t21.5 6l5 4 q9 0 25 3.5t24 3.5q59 0 119 12q21 0 64.5 -4.5t65.5 -4.5q30 0 87 8t86 8l45 -4q1 0 20.5 -5t22.5 -5q7 -2 9 -2q10 0 27 8t26 8q25 0 50.5 -28.5t25.5 -49.5v-14q-1 -11 -4 -56t-3 -48q-1 -8 -10 -25.5t-10 -20.5q-4 -8 -11 -40t-19 -45q-3 -6 -17 -19.5t-17 -15.5 q-11 -1 -12 -1q-36 0 -51 64q0 2 -2 24t-3.5 41t-1.5 26q-9 18 -13 19q-5 6 -22 23l-20 20q-22 16 -55 16q-4 0 -14 3.5t-14 3.5q-5 0 -15.5 3.5t-12.5 3.5q-1 1 -10 3.5l-20 5.5t-13 3h-15q-22 0 -65.5 -8t-64.5 -8q-14 0 -42 4.5t-41 4.5q-28 0 -49 -15l-10 -10.5 t-10 -9.5q-5 -3 -18 -8.5t-23 -11.5t-15 -14q-27 -46 -71 -147q0 -24 -7 -28q-12 -42 -34 -83q0 -2 -6 -14.5t-6 -13.5v-22v-55q0 -1 -4 -14l-3 -12q0 -8 2.5 -21.5t4.5 -15.5l52 -31h10h10q4 2 5 2q4 0 13.5 -2t11.5 -2h1q21 0 56 7q44 3 80.5 20.5t55 35t51 55t50.5 55.5 q1 1 10.5 6.5t10.5 7.5q3 2 21 32.5t37 30.5q8 0 13 -17.5t5 -27.5q0 -15 -13 -42.5t-15 -32.5q-4 -9 -16.5 -54t-30.5 -74q0 -3 -8.5 -25t-8.5 -27q-2 -29 -10.5 -86.5t-12.5 -72.5q-12 -39 -29.5 -54t-47.5 -17q-6 0 -11 3.5t-8.5 14t-5 16t-5.5 22.5q-1 13 -1 53 q0 55 -16 68q-12 9 -23 13q-3 0 -9 1t-10 1q-8 0 -30 -1.5t-37 -1.5q-26 0 -42 1h-1q-15 0 -93 -4t-94 -4q-34 -13 -47 -42q-16 -33 -29 -83q-1 -4 -7 -39t-7 -39q-3 -15 -17 -34t-18 -28q-10 -22 -25.5 -74.5t-34 -87.5t-50.5 -61q-9 -3 -9 -16v-10q0 -19 3.5 -31t13 -20 t16 -11.5t25 -10t27.5 -10.5q3 -1 17.5 -6.5t22 -9.5t15 -12.5t7.5 -18.5q0 -19 -19 -36.5t-38 -20.5q-5 -3 -75 -3q-12 -5 -34 -5q-24 0 -61.5 5t-57.5 5h-20h-29q-2 0 -26 -7t-28 -7h-29q-3 1 -21.5 3t-19.5 2q-2 1 -11 4.5t-16 7.5t-8 7q-26 28 -26 33z" />
<glyph unicode="G" horiz-adv-x="1385" d="M182 500q0 74 7 118q1 1 6 9l9.5 15.5t5.5 9.5q0 2 3.5 17.5t3.5 17.5q10 33 31.5 94.5t30.5 92.5q0 2 3 18l4 16q11 28 45.5 69t44.5 56q8 8 14 29q4 4 16 24.5t25 29.5q1 1 14 7t14 8q9 0 23.5 22t17.5 25q8 10 35 28q5 4 21 18l27 23.5t26 20.5t28 16.5t23 4.5l76 55 l13.5 3.5l15.5 4t13.5 5.5t12.5 10q34 0 83 26q9 8 35 20q8 -1 52 -1q43 0 51 1q4 2 39 15t39 15q3 0 15 -3t13 -4q7 -1 69 -8t69 -8q1 0 10 -4l9 -3q149 -28 196 -34q8 0 28.5 -2.5t26.5 -2.5q11 0 25.5 6t23.5 6q15 0 27 -12v-33q0 -16 -4.5 -31t-12 -33t-10.5 -30 q-1 -1 -4 -15.5t-3 -18.5q-3 -10 -35 -76q-1 -1 -4 -10t-3 -11q-2 -7 -17 -41.5t-17 -41.5q-15 -20 -40 -34.5t-49 -14.5q-21 0 -29 28v154q0 37 -35 74q-37 43 -69.5 60t-85.5 17h-21q-19 0 -38 -7q-16 -6 -55 -9t-58 -12q-1 0 -23 -13t-25 -13q-2 -1 -20 -4.5t-20 -4.5 q-10 0 -57 -27q-10 0 -41 -35q-8 -9 -29.5 -16.5t-26.5 -9.5q-4 -4 -32 -29.5t-30 -27.5t-18 -14t-24 -21q-1 -2 -16.5 -23t-17.5 -23q-1 -2 -35 -44q-13 -14 -23 -42.5t-18 -40.5q-2 -3 -20 -25.5t-22 -36.5q-5 -10 -5 -28q-5 -11 -21.5 -36t-21.5 -40q-2 -4 -11 -32 t-10 -30q-4 -10 -12 -24.5t-12 -27t-4 -29.5q0 -15 7 -46.5t7 -45.5v-21v-55q0 -4 6 -62t8 -70q2 -19 11.5 -33t32 -34.5t25.5 -23.5t23.5 -26.5t25.5 -27.5q14 -6 84 -22h28q52 0 130 41q15 10 54.5 82t42.5 91q4 13 12.5 57t9.5 47v24q0 36 -20.5 58.5t-55 44t-50.5 39.5 q0 8 -7 22v4q0 18 22.5 32.5t41.5 14.5l5 -4q9 0 69 -12l258 -14q12 -7 39 -9.5t49.5 -3t40 -10t17.5 -29.5q0 -13 -6.5 -21t-13 -10t-21.5 -3.5t-22 -3.5q-83 -21 -133 -85v-6v-6q0 -1 3.5 -13.5t3.5 -15.5q0 -13 -12 -36t-14 -33q-26 -106 -43 -151q5 -6 18.5 -28 t15.5 -29q1 -1 3 -4t3.5 -5.5t2.5 -2.5v-31q0 -50 -35 -66q-2 -2 -17 -4.5t-19 -2.5q-2 0 -26.5 -13t-27.5 -14q-11 -7 -57 -7q0 -1 -4 -2.5l-9 -3.5t-6 -3q-34 -14 -100 -14q-18 0 -48 7t-47 7q-4 1 -41.5 4.5t-41.5 4.5q-11 0 -35 9.5t-34 9.5q-42 7 -61 7 q-76 25 -144 94.5t-121 155.5q-6 10 -19 29t-20 34t-11 34q0 56 -5 76q0 2 -3.5 20.5t-3.5 21.5z" />
<glyph unicode="H" horiz-adv-x="1804" d="M1961 1294l-78 -41q-30 -35 -34 -71l-54 -61q-4 -27 -15.5 -55t-28.5 -62t-25 -53q-1 0 -4 -9.5t-6.5 -19.5t-5.5 -12l-6 -16q-6 -16 -6 -19q-1 -1 -4 -15.5t-3 -18.5q-9 -15 -36 -69q0 -2 -3 -14.5t-4 -13.5q0 -2 -3.5 -11t-3.5 -10q-1 -1 -23 -36t-24 -40q-6 -6 -8 -14 q-4 -10 -19 -55q-25 -38 -58 -76q-4 -6 -6 -12.5t-2.5 -11t-1.5 -12.5t-2 -14q-2 -2 -8 -13q0 -3 -11 -15l-10 -12q-5 -18 -5 -69q-2 -5 -11 -38.5t-12 -39.5q-3 -8 -18.5 -38.5t-15.5 -48.5q0 -11 1.5 -14t11.5 -10l44 -23l5 1q4 0 10.5 0.5t11.5 0.5q11 0 13 -2 q20 -1 30.5 -21.5t10.5 -42.5q0 -1 1 -5t1 -7q0 -9 -9 -12q-8 -3 -40 -8q-13 0 -53 -2.5t-45 -4.5q-9 -1 -29.5 -6.5t-31.5 -5.5q-5 0 -13.5 3t-12.5 3q-1 0 -7 -0.5t-22.5 -1.5t-45 -2t-86.5 -1.5t-135 -0.5q-12 0 -19.5 11t-7.5 23q0 13 6 22.5t19 16t23 10t27 8t22 5.5 q1 0 11.5 7l25.5 17.5l25 17.5q56 30 64 55q3 12 21 71t19 63q-5 20 9.5 43t38 48.5t30.5 39.5q0 1 1 8t3 16t2 11q3 9 11 28t12.5 35t4.5 32v15q-12 37 -62 37q-8 0 -23 -1t-22 -1h-11q-9 1 -24.5 7.5t-26.5 6.5q-12 0 -30.5 -4.5t-28.5 -4.5q-13 0 -38 4.5t-38 4.5 q-30 0 -99 -7t-111 -7q-2 0 -8 3t-7 6q-11 0 -76 5q-5 -5 -28 -5q-4 -2 -26 -2q-15 0 -42.5 1t-28.5 1q-1 -2 -9.5 -5t-9.5 -4q-4 -1 -15.5 -3t-20.5 -4.5t-14 -6.5q-23 -19 -34.5 -44.5t-19 -60.5t-15.5 -54q-10 -27 -33 -72t-30 -61q-10 -22 -22 -81.5t-12 -84.5 q0 -36 17 -53.5t41.5 -20.5t49 -5.5t41.5 -17t17 -45.5q0 -16 -10 -28t-25 -12h-327q-60 -12 -76 -12h-117q-42 7 -42 52q0 38 21 52h64q10 0 23 7.5t20.5 13t22 19.5l15.5 15l25 49t25 48q5 11 18 35t17 34q1 3 6 24.5t6 24.5q11 30 41 77q17 17 23 19q53 89 62 132v26v9 q0 2 13.5 32.5t21.5 44.5q8 18 29.5 46t34.5 53.5t12 53.5l55 112q0 1 7 10t7 11q21 34 21 41v11v36v7q0 7 22 29q46 92 47 97q1 2 4 11.5t6.5 22t5.5 18.5q0 14 -16 26q-28 0 -76 12q-16 5 -42.5 18.5t-26.5 16.5q-9 6 -9 15q0 10 9 19q0 7 14 7q4 1 38 4.5t38 4.5 q4 0 29.5 5.5t32.5 8.5q2 0 47 -3.5t59 -3.5q6 0 19 3.5t22 3.5q3 -3 20 -8.5t22 -5.5q0 -1 9 0.5t36.5 4t63.5 2.5q2 0 11.5 3.5t10.5 3.5q43 5 71 5q19 0 44 -9.5t25 -25.5q0 -4 -2.5 -8.5t-6.5 -9.5t-6 -9q-52 -35 -75 -42q-6 -2 -39 -8.5t-55 -12.5t-32 -13 q-1 -1 -4.5 -4l-6.5 -5.5t-5 -2.5q-2 -9 -19 -44l-27 -27q-1 0 -4 -9t-3 -12l-7 -10q-7 -10 -9 -11q-4 -10 -17 -34t-17 -28q-6 -11 -12 -56q-1 -2 -8 -17t-8 -17q-5 -13 -18 -35.5t-17 -35.5q-20 -54 -20 -88q0 -28 13 -51q138 -6 139 -6h98q8 1 29 8t34 7q10 0 25 -7 t25 -8h54q1 0 10 -6.5t10 -6.5q3 0 18 -4t17 -4q29 0 69 8h189q15 12 27.5 25.5t24 33l17 29t18.5 37l16 33.5q1 4 14 26t14 24q0 1 3.5 10.5t3.5 10.5q2 3 5.5 11.5l6.5 15.5t4 7q0 2 13 17.5t13 17.5t2 13t3.5 22t2.5 13q0 1 6 14t6 14q19 45 23 94q0 12 -2 20t-9 14 t-11.5 9t-16.5 8.5t-18 8.5q-1 0 -8 4l-15.5 9t-11.5 6q-1 1 -10.5 7.5l-18.5 13t-11 7.5q-28 17 -31 21q0 16 9 20q4 4 14 11t18 12t9 5h154q12 -5 40 -5q3 0 15.5 6t14.5 6q2 4 103 9q0 -1 3 -2l7.5 -2.5l7.5 -2.5q81 -9 91 -9q8 -5 30.5 -9t38.5 -10.5t16 -18.5 q0 -42 -76 -71z" />
<glyph unicode="I" horiz-adv-x="843" d="M-106 21q0 16 19 45.5t37 32.5h34h35q3 -16 24 -16h7q31 0 73 21l14 14q63 80 90 138q14 26 34 85q4 7 22.5 41.5t19.5 39.5q4 20 8 28q0 3 1.5 8.5t3.5 9.5l2 4q0 1 5.5 9t9.5 16t4 10q6 12 19.5 49.5t28 59t37.5 36.5q-2 9 3 20.5t14 24.5t11 17q7 15 10.5 46.5 t8.5 43.5q1 3 11 15.5t11 14.5q1 1 4 7.5t6.5 15t5.5 11.5q16 43 97 222q6 17 29.5 49t23.5 72q0 21 -27 24q-121 17 -196 23q0 7 -5 12v5q0 24 21 52q22 26 76 26h29q18 0 26 2q10 0 29.5 8.5t27.5 10.5h158q46 2 146 19t155 17q76 0 76 -47q0 -37 -17 -48t-48 -14t-48 -16 l-133 -15q-2 0 -15 -11t-19 -17q-1 -1 -3.5 -7l-5.5 -13l-3 -6q-1 -4 -11 -15t-12 -12q-8 -25 -40 -85q0 -1 -4 -10l-3 -9q-7 -35 -7 -38l-13 -16q-13 -16 -14 -19q-12 -14 -23 -35q-2 -8 -25.5 -63.5t-29.5 -67.5q-24 -36 -26 -42q-1 0 -2.5 -7.5t-3.5 -16t-3 -10.5 q-4 -19 -12.5 -41.5t-22 -49.5t-18.5 -41q-6 -12 -19.5 -44.5t-15.5 -39.5q-2 -1 -5 -13t-4 -13t-9 -11.5l-16 -20t-9 -12.5q-13 -17 -23.5 -62t-18.5 -60q-1 -3 -10.5 -14.5t-11.5 -13.5q-2 -4 -24 -40t-36.5 -65t-14.5 -42v-14q4 -19 27 -38.5t43 -23.5h55q16 -1 33 -21.5 t17 -37.5q0 -19 -9 -26l-19 -5q-89 -21 -112 -21h-48h-125q-5 0 -22 -3t-20 -6q-1 0 -28 1t-42 1q-23 0 -26 -2q-6 0 -19.5 -4.5t-15.5 -7.5h-154q-3 0 -28 21q-7 7 -7 21z" />
<glyph unicode="J" horiz-adv-x="1323" d="M19 -486q0 7 -3.5 42.5t-3.5 42.5v10q0 22 21 43q32 39 42 44q5 3 21 8t20 5t42 -22q27 -14 48 -42v-81q0 -14 7 -28q22 -52 35 -69q0 -1 15 -8h2h5q28 21 40 27l14 7q13 7 15 9q7 5 20 21.5t15 18.5q2 4 55 57q5 10 7 12q1 2 4 7.5t6 9.5l2 5q2 1 12 10t11 9 q7 10 15 32.5t12 30.5q1 3 17.5 28.5t17.5 28.5l21 41t21 40q0 1 2 8.5t3 13.5t1 7q7 19 28 47t28 43q4 9 23.5 61t33.5 78q3 10 54 112q9 18 16.5 53t10.5 44q5 12 17.5 33t19.5 38.5t7 37.5q0 12 -14.5 20t-29.5 9h-55h-21l-34 21l-9 6l-7.5 5t-5 4t-4 5.5t-1.5 7t-1 10.5 q0 28 14 40h48h49q2 -2 17.5 -8.5t16.5 -7.5h16q31 0 88 42q3 3 12.5 11.5t16.5 15.5t7 9q1 2 3.5 23.5t3.5 23.5q2 12 17 29.5t18 27.5q1 2 6 27t6 27q1 3 9.5 13l16.5 19.5t9 10.5q8 10 14 22t9.5 28t5 25.5t3 29.5t2.5 26q2 10 12.5 29t10.5 30v11q-98 -6 -208 41 q-1 0 -4.5 3.5t-4.5 3.5q0 2 -5.5 14.5t-7.5 13.5q-2 3 -21 14.5t-19 12.5q-6 6 -25.5 33.5t-24.5 36.5l-127 64h-20q-58 0 -84 -7q0 -1 -5.5 -4l-12 -6.5t-9.5 -5.5q-11 -12 -12 -12q-7 -6 -28.5 -15.5t-28.5 -18.5q-1 -3 -10 -18.5t-9 -16.5q-3 -4 -12 -22t-11 -21v-4v-3 q24 -24 29 -28q6 0 38 -3.5t37 -3.5h50q11 -1 17 -9t10 -21t8 -18q0 -1 9.5 -7t9.5 -7q13 -13 29 -42v-1q0 -50 -20.5 -84t-65.5 -34q-12 0 -24 3.5t-27.5 9.5l-23.5 9q-6 6 -19 6q-2 1 -10.5 3t-15.5 3l-8 2q-7 4 -13.5 9t-13 12t-11 12.5t-10 15l-8.5 14.5t-8.5 16.5 t-7 15l-7 16t-6.5 14.5q-7 79 -7 121v19q1 5 4 24l6 40t4 24q5 5 13.5 12.5l12.5 11t9 10.5t8 16q0 1 3 10l4 9q5 15 5 16q53 40 57 42q48 12 54 12q11 3 26.5 10.5t29 12t29.5 4.5h6q2 0 21 -3l19 -2h9q5 0 15.5 1t15.5 1q15 0 24 -9q2 -1 14.5 -14t13.5 -13q2 -2 10 -2 q6 0 18.5 1t16.5 1h5q1 -3 12.5 -15t15.5 -15q2 -2 16 -7t18 -5q26 -13 37 -33.5t24 -28.5q2 -2 14.5 -8.5t13.5 -7.5q16 -10 28.5 -21t28 -27.5t27.5 -27.5q4 -3 14.5 -12.5l18 -16t9.5 -6.5q32 0 69 -7h9q10 0 20.5 29.5t20 65t36 65t66.5 29.5q38 0 81.5 -19.5 t52.5 -51.5v-36q0 -88 -64 -116q-2 -1 -18.5 -5t-21.5 -9q-10 -9 -17.5 -23t-15 -34t-10.5 -26q0 -2 -3.5 -8t-3.5 -8q-2 -1 -14.5 -16t-13.5 -18q-9 -17 -19 -54t-16 -50l-25.5 -52l-28 -57.5t-20 -55t-9.5 -60.5v-3l19 -19l35 -30h119q20 0 32 -16t12 -36q0 -60 -89 -60 q-1 0 -1 3q-32 0 -57 5h-11h-10q-80 -5 -104 -5q-7 -6 -13 -13.5t-10.5 -18t-7 -17t-6.5 -19.5t-5 -17q-2 -7 -5 -11t-5.5 -6t-7.5 -6.5t-9 -10.5q-7 -8 -10 -24t-4 -18l-16.5 -35l-19 -40.5t-14.5 -36.5q-1 -2 -3.5 -14.5t-5.5 -25.5t-3 -14q-4 -6 -18.5 -34.5t-16.5 -34.5 q-19 -39 -59.5 -136.5t-66.5 -148.5q-33 -64 -83 -97q-8 -6 -10.5 -15.5t-2 -22.5t-1.5 -19q-2 -7 -4.5 -11t-8 -8.5t-8.5 -8.5q-1 -1 -7.5 -10t-13 -19.5t-8.5 -12.5q-3 -5 -18.5 -22.5t-21.5 -23.5l-15.5 -16l-18 -19t-8.5 -8q-10 -8 -50 -14q-1 -1 -26 -14l-27 -14 q-24 -7 -28 -7q-50 -17 -106 -17q-54 0 -124 17q-3 0 -42 23q-60 37 -83 81z" />
<glyph unicode="K" horiz-adv-x="1417" d="M702 1403h1q129 -7 242 -7q21 -15 25.5 -27.5t4.5 -41.5q0 -3 -1 -18t-1 -17q-17 -22 -58 -49t-58 -48q-2 -1 -4.5 -6.5t-2.5 -8.5q-3 -2 -9 -11t-11.5 -18.5t-6.5 -10.5q-61 -80 -99 -173q0 -2 -2.5 -7.5t-2.5 -6.5q-2 -3 -15 -25t-15 -25q-5 -11 -12 -81q-1 0 -1 -9 q0 -7 1.5 -14t6 -13.5t12.5 -5.5q4 0 19 7t16 7q21 5 35 9l119 72q65 57 106 96t92 101t86 125q0 38 -14 47q-5 3 -22.5 12t-26 14.5t-20 15t-16.5 21.5t-5 27q0 10 5 19q24 32 35 43q5 0 29 7q49 7 126 7h14q28 0 38 -7h146q35 16 76 16q8 0 25.5 -1t26.5 -1h19q3 0 24 2.5 t24 2.5q21 0 38 -13.5t17 -33.5t-11.5 -37t-29.5 -25q-21 0 -35 -7q-2 0 -11 -7l-9 -7q-13 -7 -42 -14t-41 -13q-3 -1 -25.5 -17.5t-23.5 -17.5q-44 -26 -48 -28q-84 -57 -139 -103q-1 -1 -40.5 -37t-44.5 -40q-11 -10 -41 -26t-40 -24q-2 -1 -34 -24.5t-51 -28.5 q0 -1 -7.5 -2.5t-16 -3.5t-10.5 -3q-2 0 -35 -26q-13 -12 -30 -23t-47.5 -28.5l-45.5 -26.5q-8 -16 -8 -19q0 -1 3.5 -10t4.5 -12q0 -1 6 -13t6 -15v-26q0 -1 3.5 -7.5t3.5 -8.5q60 -123 76 -185q1 -2 3 -10.5t3.5 -16t2.5 -7.5q22 -91 104 -223q4 -8 5.5 -21.5t6.5 -20.5 q11 -13 22.5 -22.5t28 -21t25.5 -18.5q1 0 8 -6t8 -6q17 -14 53 -23q37 0 44 -7q7 -3 19.5 -18t14.5 -27q0 -26 -7 -40t-27 -24q-2 -3 -12 -8.5t-16 -6.5q-2 0 -16 3.5t-19 4.5l-7 -1q-1 0 -10 -3.5t-10 -3.5q-5 -1 -22 1t-52.5 4t-76.5 2q-22 0 -67 -7t-66 -7 q-40 -11 -118 -11h-24q-28 0 -28 21q0 16 16 38q4 5 32 32.5l30 29.5q30 32 30 90q0 19 -3 33t-6.5 21.5l-13.5 28.5q0 2 -6 14.5t-6 13.5q-7 16 -7 57q-1 1 -10.5 26t-11.5 28q-12 42 -12 50q-4 5 -10 22l-6 18q-7 19 -15.5 39t-23.5 49t-32 47.5t-33 18.5q-10 0 -19 -9 q-22 -18 -62 -62q-2 -1 -5.5 -5t-6.5 -8.5t-4 -5.5q0 -4 -3 -22.5t-4 -19.5q-1 -4 -14 -35t-13 -34t-3.5 -11t-3.5 -11q0 -1 -3.5 -14t-3.5 -14q-14 -14 -21 -28q-7 -17 -7 -19l-14.5 -36.5t-15 -40t-9 -35t-4.5 -40.5v-12q0 -18 15 -38q66 -66 70 -69q8 -13 8 -28 q0 -8 -5 -15.5t-10 -11l-15 -10l-13 -8.5h-166l-42 -10h-6q-10 0 -29 -1.5t-37.5 -3.5t-23.5 -2q-17 -1 -53.5 -14.5t-54.5 -13.5q-51 0 -95 28q-12 10 -12 67q0 23 25.5 33t50.5 10h19h50q33 3 63.5 27t49.5 56q10 20 19.5 59t14.5 52q20 60 70 166l173 422q0 1 2.5 8 t2.5 8q46 109 48 116q16 39 21 69q7 12 7 29q0 2 4 21l3 19q10 19 15 23q9 15 11 31t2 59q0 7 -21 41q-9 13 -30.5 22.5t-37 21t-15.5 31.5q0 1 3.5 3t4.5 2q32 9 94 16.5t111 7.5z" />
<glyph unicode="L" horiz-adv-x="1474" d="M-94 48q0 36 31.5 57t70.5 21q12 0 24 -15.5t31 -15.5l23 4q11 2 20.5 13t15.5 14q1 1 12.5 6.5t13.5 5.5q7 4 10 15.5t5 14.5q19 28 19 34q5 9 23 44t21 39q0 2 3.5 14.5t3.5 15.5q0 1 2.5 9.5t2.5 9.5q2 1 15 28q0 6 7 41q0 3 11 25t17 30q73 139 88 180q2 4 9 23.5 t7 20.5q5 10 7 13q1 2 10.5 18t9.5 17l7 14q6 17 7 21q44 55 47 62q1 1 9 21q0 3 3 17.5t4 16.5q8 28 34.5 74t34.5 65q0 1 7 23t7 25q4 12 8.5 22t8.5 16l12.5 19l13.5 21q1 2 7 17t12 23.5t15 13.5q6 12 6 27q0 12 -6 30q-26 24 -41 39q-8 7 -42.5 19t-40.5 16 q-5 10 -5 16q0 39 27 52q19 8 49 8q11 0 25.5 -1.5t15.5 -1.5q6 0 15 -4.5t15 -4.5h1q1 1 17.5 7t17.5 7l21 7q3 0 18 -6t16 -6q0 -4 9 -4q12 0 14 4q87 0 97 5q3 0 21 7t20 7h18h45q3 0 24 3.5t24 3.5h5h21q73 0 73 -33q0 -27 -22 -51.5t-49 -26.5q-63 -7 -118 -7 q-14 -4 -19 -12.5t-8.5 -21.5t-8.5 -21q-1 -4 -16 -21.5t-19 -20.5q-8 -12 -14 -33t-11.5 -48t-8.5 -38q-4 -16 -23 -38t-24 -31q-2 -2 -9 -15l-7 -13q-4 -12 -17 -34.5t-17 -34.5l-7 -28q0 -9 -7 -14q-17 -26 -28 -55t-21.5 -65.5t-19.5 -59.5q-1 -3 -10.5 -21t-10.5 -22 q-2 -2 -10 -13t-9 -15q-8 -11 -13.5 -22t-11.5 -25t-10 -22q-32 -48 -50 -111q0 -5 -7 -12q-2 -1 -7 -10.5t-5 -11.5q-2 -2 -5 -17.5t-4 -17.5q0 -7 -7 -14q0 -1 -5 -5.5t-10.5 -9t-6.5 -5.5q0 -16 -5 -21q-2 -3 -8 -18.5t-6 -16.5l-7 -14l-7 -7t-7 -6q0 -2 -3.5 -14.5 t-3.5 -15.5q0 -1 -7 -9.5t-7 -9.5t-4 -7t-4 -8q0 -25 -5 -40q0 -2 -3.5 -14.5t-3.5 -15.5q1 -17 17 -31.5t35 -14.5q9 0 24 3.5t22 3.5h12q6 -3 41 -8.5t42 -5.5h4q15 0 73 14q53 10 155 20.5t123 13.5q1 0 18.5 2t21.5 2t19.5 2t22 3.5l19.5 4.5t21 5.5t18.5 6.5t18.5 9 q2 1 17.5 17t17.5 17l90 70q10 12 25.5 44t33 50t46.5 18h14q6 -3 19.5 -17t15.5 -18q0 -1 0.5 -11.5t0.5 -13.5v-18l-1 -14l-14 -44t-14 -46v-20q0 -2 -3.5 -11t-3.5 -10q-1 -3 -14 -28t-14 -29q-2 -2 -8 -27.5t-7 -26.5q0 -4 -7 -8q-70 -35 -131 -42h-35q-32 0 -49 -5 l-382 2h-28q-11 0 -72 1.5t-73 1.5q-5 0 -39 3.5t-37 3.5h-3h-6q-1 0 -19 -3.5t-20 -3.5h-161q-12 -4 -54 -21q-93 -4 -154 -14h-10h-11q-2 0 -17 7t-17 7q-2 1 -24 4.5t-25 4.5q-8 1 -17.5 23.5t-9.5 36.5z" />
<glyph unicode="M" horiz-adv-x="1807" d="M-118 42q0 24 27 48.5t54 34.5q14 6 50 6q24 5 44.5 18.5t47.5 40t35 33.5q0 1 4.5 4l9 6t5.5 4q1 0 4 2.5t3 4.5l51 81.5l52 84.5q15 23 37 71t33 67l26.5 41.5l30.5 47.5t26 45l14 34q5 7 18.5 21t23 27t13.5 27q0 1 3.5 17t3.5 17q11 27 22 42q0 7 6 22q0 5 6 35 q40 80 51 97q9 16 38 46.5t38 48.5q11 34 12 34q32 58 34 70l1 6q1 6 1 9q0 29 -18.5 43t-45.5 17.5l-53.5 7t-45 18.5t-18.5 44v14q3 8 17 21t17 13h111q16 -9 49 -9t48 -8h223q3 0 14.5 -10.5t11.5 -11.5q2 -2 8.5 -10.5l12 -16t7.5 -8.5q0 -3 1.5 -23t1.5 -24t-1 -15 t-1.5 -20t-0.5 -10q0 -5 -12 -28t-16 -25q-6 -13 -14 -50.5t-21 -53.5q0 -18 -12 -132q0 -3 -7 -22t-7 -21q-1 -2 -2 -16t-4.5 -24t-10.5 -15v-118q-17 -28 -17 -34q-2 0 -2 -9q0 -12 2 -12q0 -27 7 -69q0 -1 5 -3.5t7 -2.5q6 0 15 6l54 55q2 1 15 10.5t14 10.5q23 19 28 27 l12 30q6 8 25 19.5t25 20.5q3 9 35 48q3 4 27.5 28.5l26.5 26.5l14.5 21.5t14.5 20.5q5 12 21 28l18.5 19l32.5 33t18 17q0 5 118 126q15 39 48 69q1 1 9 7.5l16 12.5t10 6q0 1 3.5 4.5t3.5 4.5q0 4 6 34q1 2 17.5 17t17.5 18q12 12 12 19q2 1 5 4t4 3l21.5 13t27 15 l26.5 12.5t30.5 11t27.5 3.5h35q1 0 23 -2.5t23 -2.5q21 -7 92 -7q40 -6 40 -65v-9q0 -8 -14 -17q-15 -11 -57 -35t-61 -40q-36 -72 -41 -85q-3 -7 -24.5 -68.5t-24.5 -69.5q-6 -17 -21 -46t-20 -42q-18 -43 -47.5 -124t-44.5 -118q-2 -10 -60 -147q-16 -37 -28 -83 q-7 -14 -7 -35q-13 -31 -35 -69q-25 -76 -27 -90q-2 -7 -11.5 -23t-9.5 -34q0 -22 5.5 -35.5t17.5 -19.5t23.5 -8.5t30.5 -5.5t32 -7q2 0 12 -7l10 -6q1 -1 9 -4.5t14 -7t12.5 -8.5t9.5 -10.5t2 -10.5q-4 -55 -62 -55q-30 0 -91 2.5t-93 2.5q-103 0 -169 -12q-2 -1 -20 -8 t-20 -8h-57h-54q-22 8 -39.5 24t-17.5 35q0 34 22.5 54.5t51.5 27t66 17t56 24.5q12 8 19 22t12.5 33.5t9.5 27.5q4 6 21 40q0 2 3 11.5t4 10.5l7 7q28 41 62 144q0 8 7 15q4 8 11 18.5t11 18.5t6 17q0 4 3.5 26t3.5 24q3 16 14 35q0 3 8.5 17t11.5 17q1 1 3.5 16t2.5 19 q4 15 21.5 44t21.5 39q0 3 3 17.5t4 16.5q5 15 16 41t18 47.5t7 43.5q0 20 -13 35t-32 15h-17q-55 -51 -104 -133q-5 -5 -7 -5q-5 -5 -26 -23l-28 -24t-22 -20t-26.5 -26.5l-23.5 -26.5q-1 0 -5 -8l-8.5 -16.5t-5.5 -9.5q-6 -6 -29.5 -35.5t-25.5 -34.5q-12 -10 -35 -48 l-57 -55q-23 -22 -54 -63q0 -1 -7 -9.5t-8 -10.5q-2 -5 -16.5 -35t-18.5 -35l-4 -5q-4 -6 -9 -12.5t-6 -9.5q-4 -3 -22.5 -24.5t-20.5 -25.5q-6 -8 -25 -39t-33.5 -52t-37.5 -40.5t-43 -19.5q-10 0 -13 7q-13 29 -13 40v17q-1 17 -1 23q0 87 20 190q1 1 7 19t9 22 q0 2 9.5 20.5t9.5 19.5q7 31 7 69q7 20 16 23q-4 10 -4 41q0 30 4 44l3 12q2 12 2 14q7 29 10.5 60.5t6.5 72t5 60.5q0 5 3.5 46t3.5 46v5q0 9 -7 16t-15 7q-2 0 -10 -4t-9 -5q-17 -10 -26.5 -21t-19.5 -28.5t-17 -26.5q-111 -146 -161 -228q-11 -22 -25.5 -63t-20.5 -55 q-3 -3 -12 -20t-11 -22q-1 -7 -9.5 -39t-11.5 -38q0 -1 -6.5 -13t-6.5 -13q-7 -21 -7 -35q-41 -55 -56 -78q-9 -13 -21 -43.5t-20 -44.5q-1 -4 -17.5 -28.5t-17.5 -26.5v-14q0 -14 5.5 -22.5t10.5 -11.5t20 -8.5t21 -7.5q33 -13 65 -34.5t32 -45.5q0 -18 -12.5 -32.5 t-30.5 -19.5q-7 0 -63.5 1t-95.5 1q-40 0 -96 -1t-63 -1q-71 0 -104 -7q-2 0 -18 -2.5t-17 -2.5h-3h-4q-29 9 -42 21t-13 40z" />
<glyph unicode="N" horiz-adv-x="1767" d="M1747 1431q11 2 78 8t89 7q32 -8 44 -8h53h21q34 0 50 -7q7 -2 7 -14v-5q0 -11 -3 -19.5t-7 -13.5t-12.5 -10t-13.5 -7.5t-17 -6.5t-16 -6q-3 -1 -22.5 -11.5t-20.5 -10.5h-9h-26q-42 -6 -83 -40l-62 -64q-4 -4 -28 -55q-15 -33 -48 -98l-49 -98q-2 -1 -4.5 -9t-2.5 -12 l-2 -8l-4 -16.5t-2 -9.5q0 -3 -9.5 -18.5t-9.5 -16.5q-2 -2 -7.5 -15l-13 -31l-9.5 -23q-20 -55 -62 -154q-1 -2 -6.5 -16.5t-5.5 -17.5q-2 -1 -5 -14t-4 -14l-13.5 -13.5t-12.5 -14.5q-3 0 -8 -21q0 -6 -7 -13q-4 -11 -35 -42q-8 -11 -19.5 -40t-15.5 -36q-4 -15 -13 -21 l-14 -14l-3 -9l-6.5 -19.5t-4.5 -14.5q-1 -1 -4.5 -13t-4.5 -13q-6 -13 -19.5 -34.5t-20 -38.5t-6.5 -38q0 -22 28.5 -49.5t54.5 -27.5q12 6 43 6q39 0 70.5 -15.5t31.5 -53.5q-7 -24 -7 -27q-4 -8 -18 -21.5t-17 -13.5h-131h-24q-23 0 -101 7h-15h-42q-1 0 -11.5 0.5t-14 1 t-13.5 1.5t-15 2.5t-14 4.5t-14 6t-11 8t-10 11q-1 1 -4 6.5t-3 6.5q-8 28 -14 76l-7 14q-1 2 -3 7.5t-3 9t-1 4.5v28q0 4 -21 29q-9 20 -15 42t-8.5 34t-6 42.5t-4.5 40.5q-13 74 -35 153q-3 10 -14.5 25t-14.5 23q-13 33 -13 42q0 2 -5 13l-10.5 23t-6.5 14q-5 7 -5 41 q-4 12 -18 43t-17 47q-6 14 -15 76q0 2 -7 24.5t-7 25.5q-1 3 -6.5 40t-7.5 42q0 4 -9 22.5t-12 20.5q-2 5 -4.5 12t-3 8.5t-4 4t-8 3t-14.5 0.5q-1 0 -7 -1l-7 -1q-2 0 -6.5 -6.5t-13 -17.5t-15.5 -18q-1 -1 -10 -19t-11 -20q0 -2 -3 -7t-6.5 -10t-3.5 -6q0 -6 -7 -41 q-1 -3 -9.5 -19l-18.5 -36l-14 -28q-7 -14 -16 -21q-1 -7 -12 -39t-15 -39q-1 -6 -11.5 -27t-14.5 -27q-16 -25 -21 -27q-3 -6 -18 -47t-32 -66q-14 -24 -26 -62q-6 -11 -9 -21l-8 -14q-7 -11 -7 -24q-1 -2 -5.5 -12.5l-9 -20.5t-4.5 -12q0 -1 -11.5 -35.5t-12.5 -38.5 q-6 -25 -9 -43q0 -1 -3.5 -15.5t-3.5 -19.5q7 -16 7 -35q1 -3 2.5 -8t2.5 -9l2 -3q2 -3 7.5 -8.5t7.5 -5.5q15 -29 21 -37q55 -28 111 -41q16 -3 23 -5.5t16 -7.5t12.5 -14t3.5 -23q0 -41 -83 -47h-60q-35 0 -103 4.5t-102 4.5q-31 0 -90.5 -7.5t-66.5 -8.5h-36q-2 0 -14 -3 l-12 -4h-64q-5 0 -28 23q-35 28 -35 46q0 33 35 57q39 18 57 19q3 1 38.5 4t42.5 3q4 4 16 9q55 32 104 81q0 2 5.5 11.5t6.5 11.5q4 6 22 30t26 39q3 4 19 42q2 3 2 5l17 34q2 4 4.5 11t4.5 12q3 5 13.5 41t12.5 44q2 1 7.5 12l12.5 24t9 17q1 1 6.5 10t7.5 11q17 23 35 76 q0 3 3.5 15t3.5 13q1 3 2.5 8.5t2.5 9.5l2 4q0 1 5 5.5t10 9.5l5 4q0 1 3.5 7t3.5 9q1 1 4.5 10t7 19.5t4.5 11.5q0 3 8 14t11 14q15 30 23 42q0 2 3 7t6 9l3 4q12 5 43 28q0 1 6 20.5t8 21.5q2 8 18 22.5t16 25.5v9q-2 3 -8 21l-6 18q3 6 9.5 9.5t15 4.5t10.5 2l7 14 q10 50 28 104q0 2 7 15l7 12v11q1 11 1 15t-0.5 13.5t-0.5 11.5t-8.5 9.5t-12.5 9.5q-84 6 -97 6q-62 7 -62 9q-5 0 -35 40q-9 12 -9 29q0 29 51 40q12 0 86 4.5t87 4.5q17 1 77 15t78 14q28 -5 39 -13.5t22.5 -31t26.5 -40.5q5 -8 13 -50q6 -14 6 -69q3 -9 11.5 -27 t11.5 -28q0 -3 2.5 -25t2.5 -24v-2q1 -3 2.5 -8.5t2.5 -14.5t1.5 -26t0.5 -39q12 -9 20 -21t10.5 -20t6.5 -25.5t6 -24.5q6 -25 28 -85q0 -2 3.5 -13.5t3.5 -12.5v-16v-5q0 -3 9.5 -21t9.5 -20q2 -4 8.5 -29t7.5 -27q10 -27 48 -119q1 -1 4 -13.5t5 -14.5q0 -1 6 -20t6 -21 v-57q1 -6 9.5 -30t12.5 -31q4 -12 21.5 -24t30.5 -12h10q36 40 63 62q10 12 20 47.5t14 44.5q0 2 10 18l9 16q7 7 7 43q9 24 23 48t38.5 59l30.5 44q5 8 5 16q2 0 3.5 8l3 16.5t2.5 9.5q3 9 14.5 24.5t14.5 24.5q0 2 2 14t3 13q4 14 21 37t21 32q38 83 50 97q0 9 19 28 q7 10 7 35q0 24 9 34q19 38 19 73q0 37 -32.5 67t-71.5 42q-21 0 -42 7q-40 27 -43 28q-5 4 -14 8.5t-12 7t-5.5 9t-2.5 16.5q0 14 6.5 20t22.5 8q75 15 140 15q46 -2 104 -8l8 -2q9 -2 20 -3.5t19 -1.5z" />
<glyph unicode="O" horiz-adv-x="1405" d="M340 336q0 -43 7 -85q4 -30 29 -55.5t61.5 -41.5t68 -26t62.5 -16q9 0 34 5t45 11l20 5q52 26 88 42q16 7 46 16t50 18.5t37 27.5q7 8 18.5 33t26.5 36q61 46 78 85q2 5 40.5 51.5t40.5 74.5q4 8 21 28t21 33q2 2 6.5 22t5.5 21q8 9 19.5 36.5t13.5 37.5q7 17 12 55 t15 56q1 5 11.5 26t11.5 24l12 116q1 12 -9 41.5t-10 31.5q-1 1 -1.5 8.5t-1.5 16t-2 10.5q-1 1 -5.5 13l-10 25.5t-5.5 14.5l-5 13t-5 10t-4.5 7t-6 6t-7 5t-10 6.5t-12.5 8.5t-18.5 13.5t-24 15.5t-23.5 5q-33 9 -76 9q-38 0 -90 -9q-16 -9 -52 -20t-52 -20 q-95 -64 -218 -188q-7 -1 -13.5 -16t-10.5 -19q-2 -3 -19.5 -18t-18.5 -16q-1 -3 -13 -21t-13 -21q-20 -30 -33 -43q-8 -11 -12.5 -34.5t-11.5 -34.5q-3 -1 -13.5 -15.5t-12.5 -19.5q0 -1 -5 -16t-5 -19q-9 -16 -9 -27q-4 -7 -13 -17t-13 -18q-2 -7 -16 -35q-1 0 -3 -6.5 l-4 -13t-3 -7.5q0 -4 -19 -42l3 -12q2 -13 2 -15q-1 -33 -3 -47q0 -2 -2.5 -20.5t-2.5 -22.5q-7 -4 -11 -28q0 -16 -2 -21q1 -5 11.5 -18t13.5 -16zM388 43q-1 0 -6 3.5t-6 3.5l-14 11t-17 12t-16 5q-24 15 -50 40t-29 45q-2 0 -3 6l-2 12.5t-2 8.5q-1 3 -16.5 40t-16.5 42 q-4 6 -4 29v5q0 2 1 15t1 15q0 12 -10 39q-7 29 -7 64q0 28 2 42q2 17 10 76q1 11 3 35t4 42.5t2 21.5t5 27.5t9 34.5q2 13 7.5 26t14 29t12.5 26q9 21 10 30q26 82 96 181q12 18 48.5 51t41.5 38q4 5 8 15q61 61 154 144q37 27 43 29q1 0 17.5 2.5t19.5 2.5q10 7 12 7 q5 2 20 11t16 12q16 7 49 13.5t46 10.5q42 13 161 24q11 -7 22.5 -11t17 -5t22 -2.5t21.5 -2.5q9 -5 12 -7q6 -4 11 -8t7.5 -5.5t7.5 -3.5t12 -3h16q3 0 10.5 -3.5t8.5 -3.5q86 -54 132 -113q0 -1 7 -16.5t8 -17.5t15.5 -20.5t14.5 -21.5q5 -10 5 -19q0 -2 0.5 -12.5 t1.5 -20t3 -10.5q0 -5 12 -34.5t16 -34.5q1 -5 1 -16t2.5 -16t11.5 -10q-3 -20 -8 -85q10 -20 10 -62q-14 -49 -14 -69q-5 -30 -5 -54q-1 -4 -10.5 -34t-12.5 -37q0 -2 -7.5 -17t-7.5 -17q-6 -14 -19.5 -62.5t-29.5 -70.5q-1 -1 -8 -8.5l-14.5 -16t-9.5 -10.5 q-10 -10 -16 -28q-4 -5 -11.5 -16l-13.5 -20t-6 -10q-25 -20 -31 -30q-10 -11 -21.5 -34.5t-20.5 -34.5q-59 -64 -86 -81q-10 -10 -30 -16q0 -1 -6 -10t-8 -11q-16 -18 -56.5 -48.5t-60.5 -34.5q-4 -1 -16.5 -7t-13.5 -8q-3 0 -22 -5.5t-21 -6.5q-4 -1 -31 -14.5t-28 -13.5 q-19 -9 -43 -9q-6 0 -19 1t-19 1h-52q-1 0 -38 12t-45 9q-1 0 -18 10.5t-18 10.5q-110 26 -125 27z" />
<glyph unicode="P" horiz-adv-x="1444" d="M941 753v-11l10 -10l11 -11q4 0 24 -0.5t23 -0.5q87 0 237 78q34 21 34 22q65 49 85 109q2 5 12 35.5l18.5 56.5t11.5 34v7q0 96 -70 151q-7 6 -24.5 9t-23.5 6q-3 1 -29 14.5t-38 13.5q-10 0 -34 -7.5t-30 -13.5q-53 -44 -104 -154q-11 -18 -22 -61.5t-13 -48.5 q-3 -10 -17.5 -33t-16.5 -37q-1 -3 -4.5 -34t-4.5 -35q0 -2 -12.5 -20.5t-13.5 -20.5q-9 -14 -9 -38zM215 26q0 24 26.5 46.5t54.5 33.5q4 0 26.5 3t23.5 3q85 15 137 70q8 9 14 23.5t8.5 25.5t4 24t2.5 15q10 25 22.5 65.5l21.5 68.5t12 32q4 10 43 64q0 4 5 14 q11 25 33 71t38.5 84t27.5 73q5 20 10 60t9 58q4 19 27 52.5t28 45.5t13.5 40.5t15.5 41.5l6 7q7 7 7 8q15 17 32.5 56t17.5 60q0 31 -9 42q-1 3 -11.5 13.5t-14.5 13.5q-2 4 -22 16q-14 7 -97 7q-6 -7 -12.5 -11t-11.5 -5l-15 -3t-17 -4q-13 0 -20 -5q-1 0 -7 -3.5t-7 -3.5 q-49 -7 -69 -7q0 -1 -14 -8q-33 -21 -64 -59.5t-33 -72.5v-48q0 -1 -3.5 -10.5t-3.5 -10.5v-9q0 -19 17.5 -36t38.5 -29.5t38.5 -34t17.5 -47.5q0 -17 -31 -50.5t-46 -35.5h-28q-42 0 -62 15q-5 3 -24.5 21.5t-24.5 25.5q-1 1 -7 14t-8 14q-6 12 -18 28t-17 29.5t-5 35.5v11 q1 12 7 70.5t7 67.5q0 2 3.5 7.5t3.5 6.5q7 49 13 55q1 2 8.5 12.5l17.5 24.5l14 20q3 4 18 20.5l22.5 24.5l20.5 21t24 22t22 16q37 23 95.5 42.5t98.5 19.5q36 0 107 -10t108 -10q7 -7 21 -7h8h11q23 0 73.5 3.5t78.5 3.5h27q51 -14 75 -14q19 0 49 1t49 1q1 3 19.5 7.5 t22.5 4.5q3 0 18.5 -7t16.5 -7q2 -1 10 -3t15.5 -3.5t8.5 -2.5q5 0 43 -19q63 -35 70 -41q8 -7 14 -15l10 -13.5t9 -16.5t6.5 -15.5t7 -19t6.5 -17.5q2 -3 8.5 -18.5t7.5 -16.5q0 -1 4 -8l3 -7q0 -2 3.5 -24t3.5 -23q1 -4 10.5 -34.5t9.5 -41.5v-9q0 -10 -1.5 -30t-3 -36 t-1.5 -17q-4 -6 -21 -40q0 -2 -3 -12l-4 -10q-42 -43 -50 -47q-1 -4 -14 -30l-12 -27q-9 -17 -25 -30.5t-38.5 -27.5t-33.5 -23q-7 -6 -21 -20t-25 -22.5t-23 -14.5q-21 -9 -63 -21.5t-62 -20.5h-126q-19 10 -37.5 13.5t-44.5 4.5t-41 3q-2 0 -8.5 3t-7.5 5h-12 q-24 0 -64 -22t-55 -42q0 -24 -7 -55q-6 -35 -37.5 -131t-31.5 -153q0 -12 -8.5 -33t-8.5 -32q0 -9 1 -13q4 -10 50 -10.5t51 -8.5q26 -37 26 -69q0 -18 -28 -41q-24 -21 -99 -21q-15 0 -39 1t-33 1q-22 0 -65.5 4t-64.5 4h-45q-12 0 -42 -15q-3 0 -29.5 -5.5t-32.5 -6.5h-3 h-32q-37 0 -61 7t-42 31q-7 8 -7 24z" />
<glyph unicode="Q" horiz-adv-x="1373" d="M489 147q0 -36 52 -36q56 0 87 48v7q0 23 -40 23q-26 0 -62.5 -11.5t-36.5 -30.5zM841 106q-26 0 -57.5 -28.5t-45.5 -34.5l-6 -2q-6 -2 -13 -4t-8 -2t-9.5 -7t-9.5 -7q-2 0 -15 -2.5t-15 -2.5q-17 -6 -53 -29.5t-56 -28.5q-9 -2 -29 -3.5t-35 -4.5t-27 -11 q-91 -5 -116 -8h-64q-13 2 -83 8q-42 26 -42 64v13q1 5 2 19t2 20t3 16t5.5 18t8.5 15q28 44 83 85q6 3 29.5 12t39.5 22q2 1 14 14t14 14q4 2 28 7t29 5q1 0 9.5 3.5t9.5 3.5q1 1 14 4.5t14 4.5l12 7q13 6 15 6q18 6 56 6q5 2 36 8t33 7h109h43q27 0 92 14l27 14t26 14 l85 38q2 1 21.5 21.5l43 45l30.5 31.5q5 10 21 49q7 9 7 29q3 11 9.5 49.5t6.5 40.5q8 142 12 173q0 2 3.5 22t3.5 27q-2 8 -6.5 27.5l-8.5 36.5t-4 19q-32 101 -51 145q-6 7 -33.5 34.5t-35.5 34.5q-1 2 -9.5 9l-18.5 15.5t-13 10.5q-31 24 -40 27q-3 0 -18.5 3.5 t-16.5 3.5q-3 1 -25 14t-25 14q-18 9 -41 9h-28q-4 0 -24.5 -1t-23.5 -1q-3 -1 -20.5 -9.5l-19.5 -9.5q-13 -8 -44 -23.5t-49.5 -26t-40.5 -29.5t-34 -40l-14 -28q-30 -64 -41 -104q-5 -15 -15 -54.5t-20 -63.5v-147l27 -41l29 -44t30 -37t39 -35l13 -7q1 -1 10.5 -7 t10.5 -7q2 0 14.5 -3.5t15.5 -3.5l5 -4q6 -3 7 -3q3 0 24 -0.5t26 -0.5h27l20 1q11 0 21.5 5t25 16.5t17.5 13.5q5 4 36 20t38 28q15 18 31.5 48.5t16.5 48.5q0 36 -32.5 56t-69.5 20q-64 0 -90 -7q-3 0 -18 -6.5t-16 -6.5q-2 0 -14 -1t-16 -1q-1 0 -12.5 1t-14.5 1 q-22 18 -46 50.5t-24 52.5q0 22 15.5 46.5t33.5 36.5q10 8 35 25t27 17q29 9 68 9q66 0 113.5 -18t75 -47t44 -75.5t21.5 -93.5t5 -111q-16 -100 -41 -128q-6 -7 -40.5 -40l-37.5 -36q-18 -3 -47 -14t-41 -13q-7 -1 -27 -2.5t-33 -4.5t-25 -9h-132q-6 6 -41 16q-13 0 -49 6 q-4 1 -24 16t-24 19q-44 25 -61 42q-9 8 -13 15.5t-8 19.5t-8 20q-14 14 -21 28q-1 4 -13.5 38.5t-13.5 37.5q-9 11 -14 27q-15 157 -16 173q2 10 3.5 31.5t3 39t2.5 19.5q0 3 10.5 25t10.5 24q5 15 5 34q12 16 15 30q1 1 7 16.5t7 17.5q16 16 21 28q2 2 8 17t6 18l3 6 q3 5 5 6q60 75 89 104l28.5 30t33.5 34q24 21 76 34q75 21 106 29t88 17.5t109 9.5q93 0 133 -28l67 -52t57.5 -51.5t55.5 -62.5q8 -11 13 -27t9.5 -38.5t5.5 -26.5q28 -68 34 -90q30 -85 30 -233v-70q-6 -14 -13.5 -52t-16.5 -55q-11 -22 -37 -65t-37 -65q-8 -13 -13.5 -23 t-12 -19.5t-9 -14t-10.5 -14.5t-9.5 -12t-13.5 -16t-15 -18q-33 -39 -69.5 -90.5t-36.5 -65.5q0 -12 1.5 -20.5t7 -17.5l8 -13t13 -15t13.5 -15q17 -18 28 -35q0 -1 8.5 -6.5t10.5 -5.5q40 -32 69 -85q9 -7 23 -41q10 -14 31.5 -28.5t30.5 -27.5q8 -10 13.5 -21.5t12 -29 l9.5 -25.5l7 -7q2 -3 27.5 -34.5t27.5 -34.5q0 -1 9 -10t12 -11q5 -5 36.5 -53.5t53.5 -63.5l19 -5q10 -8 28.5 -26t28.5 -25q20 -14 64.5 -31t54.5 -22l31.5 -23.5t37.5 -26.5q7 -7 13 -7q17 -7 34 -7q5 -5 23 -14q21 -11 43.5 -18.5t51.5 -12.5l44.5 -7.5t54 -6t48.5 -4.5 q1 0 19.5 -3t20.5 -3q15 -2 22 -2q24 0 48.5 10t39 20t41.5 32.5t37 29.5l3 1q3 2 6.5 4t4.5 3q31 28 35 40q1 3 5.5 35.5t14 48t28.5 15.5q25 0 37 -25.5t12 -52.5q0 -15 -5 -29.5t-16.5 -30.5t-19 -25.5t-24.5 -26.5t-20 -21q-19 -20 -33.5 -28t-39 -14.5t-38.5 -11.5 q-14 -6 -33 -25t-29 -25q-86 -47 -210 -47q-58 0 -102 7l-10 3l-10 2q-3 2 -11 3.5t-18 3t-13 2.5q-44 0 -69 7q-1 0 -12.5 4t-27 8.5l-22.5 6.5l-47 15t-64 28l-35 35l-19.5 13l-36.5 24.5t-27 17.5q-1 1 -7.5 4l-13 6t-6.5 4q-19 13 -38.5 29l-44.5 37.5l-37 31.5 q-79 64 -150 192l-7 10q-6 9 -9 11q-1 1 -9.5 14t-9.5 16q0 1 -10 19t-12 20q-2 3 -17 22.5l-33 43t-25 33.5q-4 2 -22 23t-19 24q-1 0 -4.5 7t-4.5 8q-45 45 -48 47q-5 7 -13 7q-18 7 -50 7z" />
<glyph unicode="R" horiz-adv-x="1307" d="M682 804q0 -41 23 -62.5t65 -21.5h8q63 15 139 62q4 4 42.5 29t42.5 28l12 5q34 34 34 35q2 2 9 15l7 14q0 1 9.5 13t9.5 15q5 11 18.5 51t16.5 53v12v15q-9 81 -13 111q-6 38 -50 69q-5 5 -17.5 13t-16.5 8h-104q-17 0 -43.5 -29.5t-32.5 -48.5q0 -2 -5 -27 q-2 -1 -15 -13t-15 -13q0 -1 -2.5 -7t-2.5 -9q-2 -5 -6 -19t-10 -21q-5 -7 -16 -20.5t-19.5 -25t-12.5 -23.5q-22 -59 -40 -126q-15 -43 -15 -82zM656 21q0 3 -1 14.5t-1 12.5v16q0 17 9 26l69 35q26 15 33 38t7 62q0 64 -28 135q0 3 -9.5 18t-9.5 16q-1 3 -8 35t-8 35 q-23 133 -86 133q-16 0 -31.5 -11.5t-23.5 -21t-23 -33.5t-16 -26q-5 -10 -5 -12q-2 -3 -15 -43q-3 -7 -12.5 -19.5t-13.5 -22.5q-3 -3 -12 -27.5t-11 -25.5q-9 -24 -14.5 -65t-13.5 -62l-6 -12q-6 -13 -6 -15q-3 -11 -3 -16q0 -30 9 -54q5 -11 31 -37.5t26 -48.5 q0 -16 -17 -28t-32 -12t-46.5 4.5t-48.5 4.5q-29 0 -45 -9q-25 0 -90 -5h-76h-66q-50 0 -79 5q-28 16 -28 61q0 8 4.5 13.5t9 7.5t14.5 5.5l13 4.5q24 12 35 12q5 2 38.5 5t35.5 4q59 7 85 69q2 4 8 28t6 27l14 28q5 10 16.5 44.5t18.5 45.5q26 36 48 76q0 1 3.5 11t7 19 t5.5 11q27 87 88 201q1 3 10 18t11 17q6 10 6 15q1 1 4 19.5t3 22.5q4 17 18 45t17 36q1 3 10.5 28t10.5 29q4 10 18.5 26.5t15.5 20.5q7 9 7 35q7 18 7 22q1 2 14 20t14 20q7 10 7 22q2 3 8 35q2 6 18.5 33t16.5 48q0 34 -15 55t-36.5 30.5t-43.5 18t-37 27t-15 49.5 q0 16 8.5 24t18 9t26.5 1.5t25 1.5q1 0 16 7t18 7h16q26 0 78 -7.5t78 -7.5q17 0 49.5 4t50.5 4h5q1 0 10 -3l9 -4q3 0 31 -0.5t45 -5.5t28 -19h161q45 -30 62 -44q19 -14 29.5 -24t24.5 -30t22 -29q1 -1 10.5 -10t10.5 -11q20 -24 28 -70q7 -30 7 -70q0 -48 -7 -88 q-2 -18 -9.5 -35t-21 -38t-18.5 -31l-3 -10q-4 -10 -4 -12q-3 -5 -8 -17l-9 -21t-5 -9q-2 -3 -12.5 -14.5t-24 -25l-17.5 -17.5q-64 -54 -131 -81q-24 -9 -60 -13t-63.5 -13.5t-49.5 -36.5q-9 -12 -9 -31q0 -17 16 -67q4 -16 10 -48.5t10 -48.5q0 -2 12.5 -50t13.5 -54 q0 -1 1 -4t1 -6t-1 -6.5t-1 -4.5q27 -66 35 -103q9 -24 39 -46.5t59.5 -36.5t53 -34.5t23.5 -42.5q0 -15 -13.5 -29.5t-29.5 -18.5q-32 1 -96 5t-107 4h-5q-2 0 -20 3.5t-20 3.5q-8 1 -67.5 -5t-65.5 -6q-8 2 -37 5t-32 4q-2 0 -7 3t-5 4z" />
<glyph unicode="S" horiz-adv-x="1115" d="M294 42l-76 55h-26q-36 0 -112 -21q-7 -2 -22.5 -12t-29.5 -10q-45 0 -45 22q0 14 7 35q4 16 13 31t22.5 32.5t19.5 26.5q27 45 28 48q0 3 3 15t4 13q1 5 12 21t16 20q5 6 48 49l7 21q6 15 19 33.5t20.5 28t28.5 32t22 23.5h22h14q17 0 21 -12l-1 -12q-1 -12 -1 -19 q0 -10 2 -12q6 -157 74 -249l7 -7q7 -5 26.5 -20t30 -22t28.5 -14t35 -7q12 0 21.5 2.5t20 6t18.5 5.5q12 6 43 6q8 3 15 9t14.5 15.5t12.5 13.5q2 0 10.5 5.5t8.5 6.5q18 18 40 50.5t29 52.5q1 10 4.5 66t4.5 66q0 1 3.5 17t3.5 18v17q0 15 -7 30t-14.5 24t-22 24t-20.5 22 q0 1 -2.5 4.5t-2.5 4.5q-39 34 -104 100l-85 85q-9 33 -43.5 84.5t-44.5 76.5q2 37 -7 101t-9 96q0 14 3 21.5t11.5 17.5t13.5 18q7 14 7 23q1 2 4 17t3 17q2 5 36 35q1 1 10 8.5l19.5 15.5t12.5 10q9 18 19 28q18 15 50.5 27t74 24t56.5 18q1 0 14 7l12 7l12 1q12 1 16 1 q76 0 173 -23q2 0 15 -8q2 -1 11 -6.5l19 -12t12 -7.5q1 -1 10.5 -4t10.5 -5q9 -6 24 -20t27.5 -20.5t31.5 -6.5q22 0 39 14t26 31t26 31t39 14q29 0 29 -43q0 -45 -7 -69q-2 -2 -11 -16.5t-10 -18.5q-9 -14 -12 -44.5t-10 -43.5q-1 -5 -20 -36t-20 -33q-15 -35 -29 -55 q-8 -28 -26 -64q-28 -28 -37 -35q-10 -5 -12 -5h-3q-53 0 -66 21q-4 4 -12.5 20t-9.5 21q-15 100 -35 173q-7 33 -22.5 50.5t-46.5 30.5q-2 3 -27 15.5t-27 14.5h-9q-9 1 -13 1q-2 0 -82 -8q-26 -17 -27 -17l-57 -59l-7 -21l-1 -24q-2 -25 -3.5 -55.5t-1.5 -46.5v-30v-24 q0 -3 6.5 -15t6.5 -13q3 -7 7.5 -19t9 -20.5t10.5 -17.5q2 -1 24 -22.5t25 -23.5q4 -14 8 -14q10 -16 28 -28t26 -22l22.5 -26.5l30 -35.5t16.5 -20q8 -10 15 -21t15 -25.5t13 -22.5q1 -3 13.5 -22.5t12.5 -20.5q50 -77 50 -230v-47q0 -10 -15 -48q0 -7 -5 -39t-7 -36 q-3 -14 -8.5 -21.5t-16.5 -15t-17 -13.5l-7 -14q-29 -49 -84 -83q-2 -2 -19.5 -14t-20.5 -15q-29 -20 -68.5 -27.5t-94.5 -9t-74 -3.5q-1 0 -10.5 -3.5t-10.5 -3.5h-35q-59 0 -110 21q-1 0 -13.5 7t-14.5 7z" />
<glyph unicode="T" horiz-adv-x="1334" d="M218 55q0 26 24 45.5t49.5 27t52.5 10.5q3 1 37.5 4t38.5 5q16 2 43 15t33 25q11 22 26 67.5t24 65.5q0 1 9 16.5t10 18.5q3 5 56 116l3 9q4 10 4 13l4 13q4 14 7 26.5t3 15.5q6 12 13 19q14 23 33.5 74t30.5 72l5.5 10.5t9.5 16.5l4 7q1 2 9.5 26.5l16 45.5t9.5 25 q1 3 10.5 15.5t10.5 14.5q14 22 26 65.5t15 51.5q12 24 16 26q0 38 7 43q5 18 43 95.5t38 116.5q0 41 -19.5 56.5t-61.5 15.5q-13 0 -37.5 -3.5t-37.5 -3.5q-16 0 -48 3.5t-48 3.5q-63 0 -113 -25t-50 -79q0 -12 3.5 -32.5t3.5 -31.5q0 -61 -16 -89t-71 -28 q-31 0 -53.5 18.5t-46.5 52.5q-14 18 -14 34v25q0 64 35 128q3 5 7 14.5t8 15.5t12 11q1 1 14 7t14 7q3 2 18 17.5t17 16.5q23 20 48 35q7 7 28 7q11 5 33.5 17.5t35.5 17.5q60 22 171 22h47h114q16 -5 50 -5h25q34 0 58 -10h263q19 0 47.5 -7t46.5 -7q12 0 30.5 3.5 t28.5 3.5q7 0 20 -6.5t19 -6.5h127q6 0 12 6q37 32 43 41v18q0 16 -4.5 44t-4.5 42v42q1 0 9 8q3 1 10 6l12.5 9t7.5 4q24 5 53 5q27 0 42 -5q1 0 9.5 -8t10.5 -11q28 -42 28 -67q0 -29 -28 -64q-1 -3 -14 -19l-13 -16q-9 -13 -20.5 -42.5t-21.5 -42.5q-16 -20 -42 -35.5 t-46 -22t-56 -16.5l-50 -14q-3 -3 -14.5 -9t-14.5 -6h-36h-38q-5 0 -30 15q-2 0 -15.5 1t-30.5 2.5t-23 1.5h-74q-3 0 -18 3.5t-17 3.5h-12q-9 0 -41.5 -15.5t-38.5 -25.5q-1 -3 -13 -31.5t-13 -31.5q-3 -6 -23 -42.5t-27 -60.5q-3 -12 -10.5 -55t-16.5 -65q-9 -21 -35 -69 q-23 -59 -35 -74l-12 -30q-18 -29 -32 -66t-29 -83t-24 -70q-19 -54 -88 -208q-7 -16 -24 -49.5t-28 -59.5t-17 -52q-3 -10 -3 -12v-28q0 -31 7 -40q14 -18 56 -23t56 -22q6 -6 17 -19t11 -15v-11q0 -42 -28.5 -67.5t-70.5 -25.5q-19 0 -33 7h-284q-10 0 -20 -7h-2 q-13 0 -37 4.5t-37 4.5q-2 0 -11 -1t-10 -1q-2 0 -14.5 -7t-15.5 -7q-27 -2 -36 -2q-4 0 -20 1t-18 1q-12 9 -27.5 33t-15.5 36z" />
<glyph unicode="U" horiz-adv-x="1537" d="M326 99q-16 34 -50 98q-47 91 -47 211v37q3 6 14 23t13 27q0 20 7 69q1 2 10.5 20t10.5 21q0 2 3 14.5t4 13.5q16 48 61.5 137t56.5 114q18 40 50.5 119l39.5 96q7 15 22.5 38.5t25 44t9.5 41.5q0 40 -23 55q-64 8 -79 18q-16 9 -16 26q0 14 16 26q7 4 19.5 7t25 5 t14.5 2q8 1 159 6q1 0 23 -3t30 -3q14 0 32.5 10t26.5 12h40h14q2 0 38.5 3.5t51.5 3.5q54 0 91 -50v-2q0 -38 -69 -67q-7 -4 -26 -11.5t-22 -7.5q-2 -2 -21.5 -5t-20.5 -4q-10 -2 -18.5 -7t-14 -9.5t-15 -13t-14.5 -12.5q-12 -9 -22 -18.5t-14 -14t-16.5 -21.5t-16.5 -22 l-7 -8q-7 -8 -7 -13q7 -12 7 -13q0 -3 -7 -14.5t-9 -13.5q0 -13 -46 -104q0 -1 -3.5 -10.5t-3.5 -11.5q-9 -21 -32.5 -52.5t-30.5 -44.5q-7 -10 -13 -28.5t-9 -25.5q-6 -20 -23.5 -59t-23.5 -60q-2 -6 -6 -32t-9 -37l-21 -49.5l-22 -53t-13.5 -47t-6.5 -56.5q0 -26 27 -67.5 t29 -46.5q1 -2 4 -17t3 -18q13 -25 36.5 -49.5t47.5 -31.5q2 -2 14 -3.5t25.5 -3t16.5 -2.5q3 0 13.5 -6t12.5 -8q4 0 22 -1t21 -1q4 0 14 0.5t19 1.5h8q10 2 38.5 10.5t38.5 12.5q2 0 17 11.5t17 15.5q2 1 30.5 20t31.5 22q3 2 18.5 16.5t16.5 17.5q9 8 42 33t48 42 q13 15 27.5 54t20.5 50q2 3 13 15.5l23.5 26t14.5 15.5l3 4q3 5 5.5 10t3.5 6q8 12 33.5 46.5t35.5 57.5q1 2 4.5 10.5t4.5 10.5q0 7 5.5 41.5t7.5 41.5q0 2 7 14.5t7 14.5q0 4 3 21t4 19q11 30 54 104q11 14 15 23q14 43 19 76q2 1 9 14q24 36 33.5 63t9.5 66 q0 4 -0.5 22.5t-0.5 21.5q-7 21 -42 41q-3 3 -14.5 8.5t-13.5 5.5q-4 1 -42 7t-42 7q-35 8 -35 67q0 26 16 43q4 5 14.5 14t12.5 9l173 3q9 9 30 9q17 0 26 -9h88q4 0 48 5.5t59 5.5q8 0 58 -1t58 -1q21 -11 21 -52q0 -11 -4 -20t-8 -14t-14 -10.5t-14.5 -7.5t-18.5 -6.5 l-17 -5.5q-18 -7 -35 -17t-34.5 -25.5l-28 -25.5t-30 -31t-25.5 -27q-1 -1 -5.5 -9t-7.5 -10v-31q-4 -26 -27 -67.5t-29 -64.5q0 -28 -14 -47q-15 -28 -62 -138q0 -2 -3.5 -8.5t-3.5 -7.5q-1 -3 -24 -37t-26 -39q0 -10 -5 -27v-14v-5l-15.5 -19.5t-14.5 -15.5 q-7 -36 -12 -43q-15 -21 -22 -30q-2 -3 -17 -20t-18 -19q0 -21 -5 -21q0 -1 -7 -7t-7 -7q-1 0 -4 -6t-3 -8q-2 -8 -20.5 -52.5t-22.5 -51.5q-8 -18 -31 -38.5t-31 -32.5q-1 0 -4 -9.5t-7.5 -21.5t-7.5 -17q-5 -3 -18.5 -12l-20 -13.5t-15.5 -13t-15 -16.5 q-14 -18 -28.5 -30.5t-35.5 -27.5t-33 -25q-10 -8 -28 -31.5t-36 -31.5q-28 -7 -40 -7q-14 -4 -53 -17t-60 -17q-2 -1 -40.5 -4t-42.5 -5q-9 -1 -42.5 -6.5t-54.5 -5.5l-10 6q-10 6 -12 6q-8 4 -51.5 19t-52.5 16q-13 8 -34 15q-6 6 -28.5 23.5t-27.5 18.5q-6 4 -20.5 6 t-20.5 15z" />
<glyph unicode="V" horiz-adv-x="1522" d="M90 16l3 12q3 12 3 14q6 9 6 36q2 1 8 13t7 13q0 3 3 18t4 16q9 25 32 62.5t30 50.5q1 1 13.5 27t14.5 28q21 21 21 26q1 2 3.5 21.5t4.5 21.5q5 18 21.5 48.5t18.5 34.5q3 3 23 51q11 29 39 80t37 70q3 8 14 41.5t20 50.5l36.5 61.5t43 75t29.5 63.5q9 16 9 21v26v9 q0 3 10.5 15.5t10.5 13.5l9 17.5t16 33t9 18.5q1 2 14 17t14 18q25 63 28 69q7 14 7 28q8 16 8 21q0 29 -15.5 39.5t-42.5 10.5q-8 0 -24 -1t-23 -1q-12 7 -14 9q-6 4 -25.5 8.5t-32.5 12t-13 22.5l2 10q4 6 17 19.5t17 15.5q9 9 14 9h140q48 -16 71 -16q13 0 35 8t35 8h17 q6 -1 38.5 -5t39.5 -4h161l11 -5.5l16.5 -8.5t16 -9.5t13.5 -11.5t5 -12q0 -12 -9 -15q-52 -26 -53 -26q-9 -4 -47 -4t-45 4q-7 -7 -7 -9q-1 -1 -7 -17t-7 -17q-5 -13 -23 -22t-25 -20q-12 -17 -21 -41q-7 -13 -31.5 -42.5t-32.5 -47.5q-2 -6 -10.5 -43.5t-17.5 -53.5 q-5 -10 -22 -31.5t-19 -25.5q-5 -5 -5 -13q-2 -3 -8.5 -28.5t-7.5 -28.5q-5 -12 -29 -50t-32 -47q-3 -18 -11 -32.5t-20.5 -30.5t-18.5 -28q-7 -14 -7 -28q0 -3 -3 -10t-7 -15t-4 -9t-10 -13l-10 -13q-5 -10 -5 -44q-2 -5 -16 -32t-14 -40q35 0 71 14t55 39q2 2 10 17t9 18 q11 6 28 28q3 1 28.5 13t28.5 13q21 26 42 43l10 4l10 3q1 0 6.5 3.5t7.5 3.5q32 35 75 74q2 2 11.5 8.5t10.5 7.5t4 13t3 14q3 7 18 17.5t17 12.5q2 1 17 15.5t17 18.5q1 0 10.5 2.5t10.5 2.5l14 7q2 4 17 18.5t19 16.5q13 12 41.5 32t40.5 30q20 23 50 50q7 7 15 20t19 22 q11 8 35 20t35 21q38 39 41 40q15 18 35 56t20 52q0 21 -22 32t-48 15t-48 18.5t-22 39.5q0 21 28 45q6 1 42.5 4.5t42.5 4.5h36h33q1 -1 13.5 -5t14.5 -4h57q4 0 51 -3.5t53 -3.5h15q13 0 30.5 10.5t23.5 12.5q14 7 36 7h16h24q2 0 30 -7t32 -7q9 -2 28.5 -3t29 -3 t18.5 -12t9 -29v-9q-18 -32 -23 -34q-1 -4 -19 -7q-10 -4 -15 -9l-35 -28q-1 0 -9.5 -2.5t-11.5 -3.5q-42 -15 -117 -28q-11 -7 -19.5 -11t-22.5 -8.5l-20 -6.5q-3 -2 -9 -5t-7 -4l-69 -69q-12 2 -23 -5t-23.5 -20t-16.5 -16q-9 -10 -34.5 -16t-34.5 -12l-7 -7 q-1 -4 -9.5 -19t-10.5 -16q0 -1 -21 -15q-25 -18 -61 -59.5t-57 -56.5q-2 -2 -16 -9l-13 -7q-2 -1 -17.5 -17t-17.5 -17l-67 -54t-77.5 -64.5t-62.5 -61.5q-25 -7 -57.5 -41.5t-46.5 -43.5q-2 -1 -9.5 -3.5t-16.5 -5t-11 -3.5q0 -1 -9 -11t-10 -12q-2 0 -41 -20 q-2 0 -21 -14l-7 -5q0 -1 -4 -8.5l-7.5 -13.5t-3.5 -8q-4 -3 -7 -5q-48 -42 -69 -64q-40 -34 -109 -83q-3 -2 -15.5 -7.5t-14.5 -6.5t-17 -14t-17 -14l-14.5 -7t-13.5 -6q-4 -3 -19.5 -18.5l-31.5 -33t-18 -19.5q-7 0 -16 -7l-16.5 -16.5l-18.5 -18.5l-12 -5 q-14 -8 -30 -28.5t-27 -28.5q-4 -3 -34 -23.5t-35 -23.5q-7 -5 -24.5 -24t-32 -27t-33.5 -8l-14 2q-4 2 -11.5 10.5t-8.5 12.5z" />
<glyph unicode="W" horiz-adv-x="2073" d="M125 50v17q10 67 76 173q5 5 14 28q48 113 99 215q1 3 10 19t9 17q5 13 9.5 44t10.5 46q9 7 23 35q24 80 34 96q0 9 7 16q15 25 22.5 60t12.5 49q12 30 21 43q43 78 48 111v22q5 10 5 26q2 2 7 9.5l11 16.5l5 9q1 2 10.5 31t10.5 31q0 2 10 21.5t10 22.5q2 10 2 12 q0 3 -1 8.5t-1 6.5q-9 18 -41 36l-58.5 32.5t-26.5 26.5t11.5 17.5t23.5 5.5h8q1 0 17 -3.5t18 -3.5h111q4 0 28.5 -7t26.5 -7q4 -2 29 -2q15 0 43 8t44 8h3q52 -10 77 -23q3 -1 7.5 -8t4.5 -11q0 -22 -6 -43q-4 -11 -47.5 -29t-55.5 -40q-7 -4 -7 -28q-31 -31 -35 -41 q-11 -13 -17 -42.5t-11 -39.5q-8 -17 -31 -49t-33 -58q-5 -13 -13.5 -40.5t-13.5 -40.5q-19 -35 -21 -50q0 -4 -3 -27.5t-4 -26.5q0 -3 -7 -15t-7 -13q-3 -7 -10.5 -34.5t-16.5 -42.5l-19 -28l-20 -29.5t-14.5 -27.5t-9.5 -33q14 -21 42 -21q48 0 97 35q7 7 7 14q1 1 6 5.5 t9.5 9t4.5 5.5q4 1 18.5 10t16.5 11q12 8 28.5 31.5t28.5 30.5q2 2 27 15t28 15q14 9 29.5 31.5t24.5 30.5q55 36 78 62q42 50 48 54q12 14 27 25.5t34.5 24t28.5 19.5q1 1 8.5 8l13.5 13t8 9l22 32q22 33 24 37l20.5 22l19.5 20.5t12.5 20.5t5.5 28q0 38 -7 75 q-6 16 -18.5 25.5t-32 17t-27.5 12.5q-1 2 -10 12t-9 11q-2 1 -12 6.5t-11 5.5l-7 7q5 7 16 16.5t19 10.5q50 9 135 9h26q29 0 46 -9q17 4 99 16h12h16q84 -7 154 -7q6 -4 12.5 -17t6.5 -19l8 -26q0 -1 -12 -12.5t-15 -15.5q-14 -11 -45.5 -18t-39.5 -10q-1 -2 -13 -11 t-15 -11q-1 -1 -17 -6t-17 -6q-8 -5 -13 -12.5t-6.5 -13.5t-3.5 -16.5t-3 -14.5q-40 -81 -57 -125q-4 -8 -11.5 -34.5t-16.5 -41.5q-5 -8 -14.5 -22l-13 -19.5t-7.5 -17.5t-7 -26q0 -1 -3.5 -19.5t-4.5 -21.5q0 -1 -9 -13t-10 -15q-4 -5 -12.5 -22t-10.5 -19q-5 -30 -5 -56 q-4 -16 -25 -38.5t-25 -37.5v-26v-8q0 -7 -19 -51h29h19q16 0 26 9q4 2 38.5 30.5t39.5 30.5q6 8 35 22l19 20l36.5 36t20.5 20q39 28 76 49q27 27 28 29l10 12q10 12 12 16q2 1 10.5 9.5t8.5 9.5q1 0 7.5 13t8.5 14q0 7 5 7q3 3 12.5 9t9.5 7q53 26 54 28q1 0 7.5 5.5 t8.5 7.5q9 18 12 21q5 2 26 13.5t24 14.5q22 13 46 43t37 40q4 4 21.5 13t21.5 15q0 1 5.5 13.5t6.5 13.5q8 11 24 22t24.5 22t8.5 31q0 26 -17.5 36t-45 16t-40.5 19q-9 7 -16 25.5t-7 31.5q0 17 30 27.5t53 11.5q10 3 32 7t39.5 6.5t18.5 2.5h50h54q11 -1 32.5 -8.5 t34.5 -7.5q14 0 41.5 8t43.5 8q13 0 34.5 -9.5t29.5 -11.5q6 -2 25 -4.5t31.5 -5t24 -12t11.5 -24.5q0 -10 -2 -13t-14 -10q-1 -1 -13 -10t-13 -12q-2 0 -5.5 -1.5t-6.5 -3.5l-3 -2q-27 0 -42 -6l-3 -3q-3 -3 -6.5 -7t-4.5 -5q-8 -5 -23 -7.5t-25 -6.5q-11 -4 -15.5 -7.5 t-8.5 -9.5t-11 -11q-5 -4 -12 -6t-15.5 -3.5t-13.5 -2.5q-12 -4 -22.5 -9.5t-21.5 -13l-18 -12.5t-19 -16.5l-16.5 -16l-18 -18.5l-17.5 -18q0 -2 -6 -11t-8 -11q-11 -15 -40 -32.5t-35 -22.5q-23 -18 -61.5 -53.5t-57.5 -50.5l-14 -7q-3 -3 -11.5 -9t-9.5 -7 q-3 -1 -17 -15.5t-17 -18.5q-1 0 -11 -5.5t-12 -6.5q-17 -14 -52.5 -48.5t-56.5 -50.5q-1 0 -27 -12t-30 -16l-12 -12l-176 -147q0 -2 -9 -8t-10 -6q-84 -63 -97 -78q-10 -18 -23.5 -28.5t-31.5 -20.5t-30 -20q-7 -6 -22.5 -23t-29.5 -27.5t-29 -11.5q-113 -113 -142 -138 q-74 -72 -132 -104q-1 -1 -8.5 -4t-10.5 -3q-7 -2 -8 -2q-19 0 -19 38v14q0 85 46 164q6 7 20 26.5t15 24.5q1 1 4.5 9.5t4.5 9.5q10 25 23 47t31.5 49t28.5 44q7 13 18 42.5t16 40.5q1 1 4 7.5l6 13t4 6.5q0 8 7 85v14q0 26 -21 26h-7q-8 -2 -35 -16t-34 -19q-4 -2 -32 -28 t-30 -27q-1 -1 -10 -3.5t-16.5 -5.5t-8.5 -5q-14 -9 -36.5 -32t-32.5 -30t-22 -7q-2 -1 -9.5 -9l-15.5 -16.5l-10 -10.5q-13 -12 -46 -35.5t-51 -40.5q-178 -165 -195 -179q-1 -1 -5.5 -4.5t-9 -6.5t-4.5 -4q-1 0 -4.5 -3.5t-4.5 -3.5q0 -2 -5.5 -14.5t-6.5 -13.5 q-7 -10 -18.5 -16t-16.5 -11l-24 -24t-26 -25q-6 -6 -18 -24t-23 -26q-61 -40 -103 -40h-22q-7 12 -7 38z" />
<glyph unicode="X" horiz-adv-x="1317" d="M-133 64q3 16 20 48q6 1 35 9.5t35 9.5q13 5 29 16q39 26 40 28q15 9 45.5 16.5t35.5 9.5q34 12 66.5 33t72.5 52.5t60 45.5q48 36 66 57q0 2 4.5 11t5.5 10q7 7 9 7q2 1 17.5 7.5t16.5 6.5q22 12 61 40t54 38q17 10 46.5 23.5t46 22t33 29t22.5 51.5q0 2 1 8.5t1 10.5 q0 57 -12 90q0 2 -6 18l-6 16q-6 17 -9.5 36t-6.5 44.5t-5 39.5q0 1 -3.5 16t-3.5 18q-2 10 -3 48.5t-7 55.5q-3 3 -9 14t-5 14q-2 12 -2 21v7q-2 145 -67 173q-1 0 -38 15q-21 8 -42 42q-12 32 -12 36t2 4l7 6q0 1 13.5 4t31.5 6.5t26 5.5h10q7 0 19.5 -4.5t20.5 -4.5l5 2 q4 0 35.5 3.5t33.5 3.5h99h97q5 0 22.5 -3.5t18.5 -3.5q0 -1 2 -7.5t5.5 -15.5t4.5 -13q6 -14 6 -24q-5 -20 -30.5 -36t-30.5 -23q-35 -41 -47 -101q-1 -8 -1 -20q0 -16 8.5 -36t11.5 -30l4 -14q0 -25 -7 -43q1 -10 0 -15t2.5 -14t4.5 -12.5t6 -11.5t7.5 -11.5l8.5 -11.5 l9 -12q13 -16 33 -16q22 0 43 16l92 76q1 1 11 6.5t11 5.5q64 50 83 71q4 3 39 27t62.5 46t30.5 31q3 25 5 34q1 3 3.5 18t3.5 17q-4 11 -21.5 19t-35.5 12.5t-31.5 14t-11.5 23.5q3 20 27.5 39t46.5 25h35q16 0 29 5h242q10 0 54 -12q15 -6 15 -31q0 -14 -1 -19 q-4 -14 -6 -19.5t-8.5 -13.5t-17.5 -14q-9 -6 -72 -38.5t-75 -39.5q-4 -3 -34 -29l-30 -26q-23 -13 -60 -28q-1 -1 -5 -3.5t-8 -6t-4 -5.5t-7.5 -10.5t-8.5 -8.5q-3 -1 -17.5 -8l-27.5 -13t-16 -7q-17 -9 -44 -37.5t-40 -38.5q-16 -5 -16 -9q-21 -12 -58.5 -41.5 t-43.5 -34.5q-21 -14 -35 -21q-1 0 -12 -9.5t-12 -9.5q-1 -2 -17 -8t-21 -7l-7 -7q-60 -58 -69 -99q-2 -7 -2 -21q0 -40 30 -109q0 -1 17 -29q-2 -3 -2 -74q-7 -28 -7 -30q1 -23 12 -49.5t14 -40.5q4 -24 4 -69.5t4.5 -82t21.5 -62.5q6 -11 13.5 -15.5t18.5 -7t18 -5.5 q3 -3 30 -18t32 -17q4 -2 22 -9t24.5 -13.5t9.5 -20.5q0 -2 2.5 -9t4 -14.5t1.5 -10.5q-33 -35 -119 -35q-38 0 -66 16q-42 -4 -138 -4q-97 0 -139 4q-31 0 -71 5q-12 2 -18 4t-12 9t-4 18v3q15 28 41 43t50 19t51.5 20t44.5 45v1q1 23 -16 40q1 2 2 8.5t2 16t3 17.5 q7 24 7 41v4q0 38 -9 60q0 2 -4 10t-6 9q-1 6 -2 21.5t-3 25t-6 21t-13.5 17t-24.5 5.5q-34 0 -72 -22t-62.5 -46t-62 -65.5t-50.5 -53.5q-11 -10 -39.5 -30t-47 -39t-22.5 -43q-1 -8 2 -14.5t9 -14t8 -13.5q1 0 4 -12t5 -14l4 -16.5l5.5 -23t2.5 -11.5q-5 -22 -44.5 -32 t-87 -15t-60.5 -14q-3 0 -24 1t-35 1t-34.5 -1t-22.5 -1q-3 0 -29 -3.5t-30 -3.5h-28q-39 0 -68 18t-23 53z" />
<glyph unicode="Y" horiz-adv-x="1265" d="M419 0q-5 5 -28 5h-15q-11 0 -12 2q-9 0 -56 2.5t-55 2.5q-28 23 -28 55v14q15 33 76 56q1 0 9.5 1.5t16 3.5t9.5 3q57 15 79 44q2 2 19.5 33t18.5 32q14 14 14 23q2 3 17 46.5t18 48.5q1 1 4 8t6.5 13t5.5 7q0 15 12 57q8 27 17 40t31 64v5q0 1 3.5 11t5.5 11 q2 8 7.5 40.5t11.5 56.5t15 42q4 12 35 69q0 22 5 34l13 47t14 53.5l10.5 47t9 54.5t2.5 49q0 13 -14 47q-2 6 -7.5 20.5t-7.5 18.5t-6.5 15t-7.5 14.5t-8.5 11t-10.5 9.5t-12.5 6t-16 5.5t-19.5 2.5t-25 1h-18q-3 -5 -55 -28q-1 -1 -10 -5.5t-16 -9t-9 -6.5q-7 -5 -7 -7 q-2 -5 -19.5 -31.5t-21.5 -30.5q-17 -24 -62 -41h-4q-24 0 -24 53q0 26 7 50q5 14 5 42v21q0 29 9 48q0 3 8.5 14.5t11.5 13.5q1 1 8 14l6 13q8 12 35 28q5 2 21 10.5l30 15.5l18 9q5 0 28.5 3t26.5 4q1 0 7 4l7 3l21 7h20q19 1 25 1q3 0 22 -0.5t23 -0.5q3 -2 49.5 -23.5 t61.5 -40.5q20 -27 55 -82q2 -1 7.5 -14t6.5 -13q2 -2 17 -14.5t18 -15.5q1 -1 13 -6t14 -6h5q9 0 15.5 3.5t17 13t12.5 11.5q1 0 16.5 12.5t18.5 14.5q42 42 47 49q1 1 10 13.5t12 13.5q17 7 19 7q12 5 30 18t27 17l19 7q1 1 10.5 7t10.5 7q4 0 21.5 3t20.5 4q1 0 8 1.5 t26 3t47 2.5h45q9 0 18 -4t21 -13t16 -11q2 -2 23 -13t26 -16q1 -1 8 -9l15.5 -18t10.5 -13q12 -24 12 -30q1 -1 8.5 -9.5t7.5 -9.5l8.5 -11.5l8.5 -11.5t6.5 -11.5t4.5 -15.5q0 -7 2 -25t3.5 -33t1.5 -16q0 -13 -23 -49q-25 -50 -79 -50h-30q-6 0 -29 23l-12 12 q-13 33 -16 34q-56 113 -133 113q-26 0 -85 -15.5t-78 -27.5q-1 0 -7.5 -5.5t-7.5 -7.5q-36 -52 -47 -76q-7 -2 -7 -20q-6 -13 -9 -14q-1 -4 -17.5 -29.5t-16.5 -26.5q-7 -13 -16.5 -40.5t-9.5 -28.5q-16 -24 -16 -29q-1 -3 -4 -26t-3 -28q-3 -16 -16.5 -46.5t-17.5 -43.5 q0 -2 -2.5 -15t-2.5 -14q-8 -10 -23 -63q-12 -35 -35 -76q-17 -29 -41 -62l-14 -41q0 -7 -14 -56q0 -1 -6 -13t-6 -13q-1 -2 -3 -9t-3.5 -15t-2.5 -10q-2 -16 -7.5 -31t-14 -33t-12.5 -28q-10 -19 -26 -74q-2 -5 0.5 -11.5t6 -12t10.5 -12.5l11.5 -11.5t11 -10t7.5 -6.5 q4 -5 13 -7.5t20.5 -4t14.5 -2.5q27 -9 69 -42q9 -6 9 -14v-8q0 -16 -10.5 -34t-24.5 -27q-8 -5 -29 -5q-1 -2 -14 -4t-14 -3q-12 -3 -27 -3q-13 0 -36.5 2.5t-34.5 2.5q-32 0 -95 -1t-94 -1h-31z" />
<glyph unicode="Z" horiz-adv-x="1262" d="M-83 42l3 8q5 12 12 19q4 5 44 45t44 45q1 1 16.5 20.5t18.5 21.5q13 13 62 48q30 26 66 69.5t57 62.5q4 3 37 31t36 31q9 14 29 28q42 36 75 57q3 3 19 27l59 54q1 3 10.5 14.5t13.5 14.5q8 10 34.5 26t34.5 23q1 1 8 9l14 16t9 9q22 25 72 67.5t72 66.5l5 7 q6 8 11.5 16.5t7.5 10.5l24 12q15 10 36.5 38.5t34.5 39.5q7 6 37 30t38 31l32 27.5t35 31.5l29.5 29.5t33 35.5t29.5 37q0 7 3 10v5q0 14 -19 14q-5 0 -13 -1t-11 -1h-18q-31 0 -48 -7h-216q-4 4 -21 4q-13 0 -30.5 -2.5t-26.5 -2.5q-28 -3 -50.5 -10.5t-48 -27.5 l-35.5 -28t-42.5 -43t-39.5 -42q-1 -1 -20 -18t-22 -20q-5 -5 -14 -22t-20 -23q-12 -10 -28 -10t-16 17q0 11 4 35q7 23 7 38q25 58 33 65q3 6 6 16t6 16.5t8 11.5q2 2 18 19.5t17 19.5q3 3 19.5 29t20.5 30q2 18 31 76q14 28 40 56t50 31h14q21 -14 24 -19q7 -7 7 -21v-34 v-14q0 -10 7 -12q26 -11 124 -11h30q6 0 39.5 3.5t38.5 3.5h373q19 9 35 9h12q4 -1 33 -4.5t33 -4.5q22 -22 22 -40q0 -7 -2 -12q-3 -6 -3 -10q-29 -42 -52 -56q-1 -1 -14.5 -9t-28.5 -16t-16 -9q-10 -6 -23.5 -30t-22.5 -32l-79.5 -78l-97 -90.5l-81.5 -75.5q-2 0 -6.5 -6 t-4.5 -8q-5 -3 -24.5 -18.5t-21.5 -16.5q-145 -163 -286 -285q-5 -9 -10 -12q-2 -3 -23 -18t-22 -17q-2 -1 -11.5 -14t-11.5 -14q-2 -2 -31.5 -24t-32.5 -26q-2 -2 -11 -13.5t-9 -12.5q-18 -22 -57.5 -59t-53.5 -53q-31 -39 -33 -42q-43 -43 -50 -55q-35 -38 -35 -42v-3 q0 -17 7 -24q7 -14 75 -14h32q4 0 36 3.5t35 3.5q105 7 196 7q15 5 24 5q13 1 42 2t45.5 2.5t42 9t47.5 21.5l24 19l29 24q16 12 38 34q3 2 35.5 27.5t35.5 28.5q7 5 24.5 22t31.5 26t29 9l9 -2q3 -1 8.5 -9.5t6.5 -9.5q-4 -58 -17 -102q-3 -11 -6 -15.5t-8 -9.5t-10 -13 q-22 -41 -54 -133q-10 -17 -33 -31t-43 -16q-61 -9 -149 -9h-12.5t-15.5 0.5t-15 1t-12 0.5h-5q-3 0 -11 1.5t-15 3.5l-7 2h-18h-17q-3 0 -19 -4l-17 -3l-13 -1q-14 0 -30 -0.5t-23 -0.5q-41 0 -125 4.5t-128 4.5h-69q-11 0 -71 -3.5t-69 -3.5l-13 -4.5l-13 -4.5 q-4 0 -30.5 -2.5l-58.5 -5.5t-46 -4h-8q-15 0 -25 18t-10 38q0 8 2 14z" />
<glyph unicode="[" horiz-adv-x="850" d="M905 1436q19 -4 19 -31v-14q0 -50 -12 -80q-1 -8 -15.5 -13.5t-21.5 -5.5q-57 -10 -129 -10h-52q-14 -9 -28 -9h-10q-15 0 -42.5 5.5t-40.5 5.5q-23 0 -26 -2q-14 0 -51 -4l-36 -5q-4 -1 -19 -16t-19 -22q-10 -21 -10 -86v-23q0 -122 10 -199q0 -5 8.5 -25t10.5 -23v-16 q0 -9 -0.5 -13.5t-5 -10t-13.5 -9.5v-67q0 -3 -5 -20t-5 -18t1 -27.5t1 -41.5q0 -25 -2 -28q0 -3 -8 -19t-11 -19v-5v-5q0 -1 5 -19t5 -20v-41v-16q0 -3 4.5 -20.5t4.5 -18.5v-9v-10q0 -2 -4.5 -19.5t-4.5 -18.5v-6v-3q0 -6 4.5 -44.5t4.5 -43.5q0 -1 1.5 -46t1.5 -60 q0 -7 -1.5 -52t-1.5 -53q-9 -27 -9 -38q0 -2 -1 -19.5t-1 -29.5t1 -29t1 -19q-5 -5 -12 -14.5t-7 -13.5q0 -2 2 -9l4 -14l3 -6q1 -4 4.5 -42.5t14.5 -56.5q11 -9 29 -36l19 -57q6 -11 30 -23q10 0 62 -4.5t62 -4.5h16h15q3 0 38 4.5t37 4.5q1 2 19 2q8 0 19.5 -0.5t19.5 -1 t9 -0.5q17 10 31 10h23h26q2 0 13.5 -4t12.5 -6q1 0 12 1t17 1q11 0 12 -2q57 -6 57 -100v-6q-24 -30 -60 -39t-88 -9q-58 0 -173 11.5t-172 11.5h-67q-1 0 -18 -6.5t-20 -6.5q-48 0 -91.5 24t-43.5 68q0 34 5 104t5 105q0 34 -8.5 96.5t-10.5 85.5v28v69q-1 5 -4.5 61 t-5.5 64v3v7q2 22 5.5 134.5t4.5 124.5q9 9 9 30v3v5q-11 22 -19 30v308q2 2 6 13t4 15t-5 38.5t-5 38.5v173q0 2 -5 20l-4 18q-2 4 -2 87q0 74 2 86q10 13 22 21.5t27 12t25.5 4.5t30 1t28.5 1q5 0 35.5 4.5t32.5 4.5h29h80q1 0 13 5t13 5q68 9 147 9h17h50q1 1 13 5.5 t13 4.5h12h7q20 -1 80 -10z" />
<glyph unicode="\" horiz-adv-x="912" d="M800 -464l-76 19q-5 24 -16.5 36.5t-18.5 31.5v29q-3 22 -23 40.5t-25 28.5q-14 14 -14 78v25q-19 13 -19 38l-19 36q-18 18 -18 33q0 4 3 11l4 8q0 18 -4 32t-8 21t-12.5 17.5t-11.5 14.5q-3 8 -9.5 62t-16.5 66q-2 0 -22 17t-21 22l-7 40q0 2 -3.5 6t-8 7.5l-8.5 6.5 l-4 4q-11 11 -11 32l2 43q0 32 -10 52q-73 92 -78 107q-1 6 -2.5 22t-5.5 28t-13 24q-12 20 -18 39.5t-18 40.5v28l-40 116q-13 11 -19 31q0 36 2 46q-37 46 -51 109v33q0 21 -12 28q-3 5 -41 55.5t-47 70.5q0 45 -5 57q-6 8 -22.5 26t-21.5 30t-5 33v53q-3 1 -10 16t-7 17 v64q49 23 69 23q49 0 90 -51q6 0 25 -69.5t19 -85.5q6 -19 27 -56t28 -57l17.5 -55l19.5 -61t18.5 -53.5t22.5 -56.5q6 -16 30.5 -48t24.5 -61l2 -21q0 -1 10 -21q18 -18 34.5 -86t19.5 -77q4 -21 25.5 -58.5t26.5 -60.5q0 -14 7 -33q27 -102 62 -161q5 5 32.5 -62.5 l60.5 -152t47 -106.5q11 -31 11 -44q0 -22 3 -34l9 -8l17 -15.5t9 -9.5q5 -25 5 -56q3 -11 14 -25t13 -18v-19q4 -23 30 -73t26 -81q0 -7 -27 -42.5t-37 -35.5z" />
<glyph unicode="]" horiz-adv-x="897" d="M119 -471q-19 4 -19 32v13q0 51 12 80q1 8 15 13.5t21 5.5q52 10 130 10h52q13 9 28 9h10q15 0 42 -5t41 -5q23 0 26 1q14 0 50 4.5t37 4.5q4 2 19 16.5t19 21.5q10 21 10 87v22q0 122 -10 199q0 3 -4.5 14t-9.5 22t-5 12v16q0 10 0.5 14t5 9.5t13.5 9.5v67q0 3 5 20 t5 18t-1 28t-1 42q0 24 2 27q0 4 8 19.5t11 18.5v6v5q0 1 -5 18.5t-5 19.5v41v16q0 3 -4.5 20.5t-4.5 19.5v8v11q0 1 4.5 18.5t4.5 19.5v5v3q0 6 -4.5 45t-4.5 44q0 1 -1 22t-1.5 46.5t-0.5 36.5q0 8 1.5 53t1.5 53q9 22 9 38q0 2 0.5 19t0.5 29t-0.5 29.5t-0.5 19.5 q5 4 12 13.5t7 13.5t-4 17l-5 13q-1 4 -4.5 42t-14.5 56q-4 3 -16 18.5t-13 18.5q-8 15 -19 57q-5 7 -30 22q-10 0 -62 4.5t-62 4.5h-16h-15q-3 0 -38 -4.5t-37 -4.5q-2 -1 -19 -1q-8 0 -19.5 0.5t-19.5 0.5h-9q-20 -10 -31 -10h-23h-26q-2 0 -13.5 4t-12.5 6q-1 0 -12 -0.5 t-17 -0.5q-11 0 -12 1q-31 3 -44 33.5t-13 67.5v5q24 30 60 39t88 9q58 0 173 -11t172 -11h67q1 0 18 6t20 6q48 0 91.5 -24t43.5 -68q0 -34 -5 -103.5t-5 -105.5q0 -34 8.5 -96t10.5 -86v-27v-70q0 -2 2 -32.5t4.5 -58t3.5 -33.5v-4v-7q-5 -65 -10 -259q-9 -9 -9 -30v-3v-5 q9 -18 19 -30v-308q-2 -2 -6 -12.5t-4 -14.5q0 -5 5 -39t5 -39v-173q0 -2 4.5 -19.5t4.5 -18.5q1 -4 1 -87q0 -74 -1 -86q-13 -17 -31 -25.5t-29.5 -10.5t-37.5 -2.5t-35 -1.5q-5 0 -35.5 -4.5t-32.5 -4.5h-29h-80q-1 0 -13 -5t-13 -5q-68 -9 -147 -9h-17h-50 q-20 -10 -26 -10h-12h-7q-60 9 -80 10z" />
<glyph unicode="^" horiz-adv-x="732" d="M561 1028h-7q-16 -9 -30 -30t-29 -54t-19 -39q-1 -1 -8.5 -10.5l-14.5 -18.5t-8 -11q-7 -13 -15 -45t-20.5 -49t-40.5 -17q-12 0 -24 8.5t-9 21.5q4 27 33.5 70t35.5 63q3 8 25 95.5t46 124.5q5 9 20.5 31l31 45l17.5 26q13 16 31 27q6 2 9 2q1 0 4.5 -1t5.5 -1 q34 -7 49 -13.5t31 -25.5q9 -19 10 -19q19 -63 61 -253q1 -9 10 -37.5t9 -43.5v-9q0 -2 -4.5 -19.5t-4.5 -18.5v-7q0 -10 4.5 -30t4.5 -29q0 -45 -29 -67q-4 4 -26 20.5t-25 19.5q-1 0 -10 22q-2 3 -10 25t-9 23q-3 5 -12 22.5t-9 19.5q-2 5 -10 50.5t-9 48.5q-16 53 -50 83 h-5z" />
<glyph unicode="_" horiz-adv-x="1000" d="M-217 -206v45q0 113 64 119h68l41.5 10.5t63.5 9.5l73 -13q15 0 31 3.5t26 3.5q31 0 88 -12t85 -12l147 19l55 -9q4 0 35 11q25 9 40 9q70 0 104 -40q5 -3 5 -9l-5 -17q0 -28 -6 -50l4 -45l-5 -28q-37 -35 -128 -35q-21 0 -70.5 4.5t-71.5 4.5q-189 0 -376 -9 q-28 0 -84 -7.5t-82 -7.5q-29 0 -61 17t-41 38z" />
<glyph unicode="`" horiz-adv-x="703" d="M467 1500q27 77 111 47q42 -14 75 -118t15 -144q20 -28 35.5 -142t4.5 -145q-8 -29 -38 -17q-24 8 -36.5 51.5t-19.5 52.5q-1 2 -3.5 4.5l-3.5 3.5q-11 17 -15 24t-5 10.5t-3 14t-6 24.5q-8 34 -38.5 90t-39.5 78q0 4 -3.5 30t-3.5 30q-2 10 -11.5 31.5t-14 40.5t-0.5 34 z" />
<glyph unicode="a" horiz-adv-x="887" d="M195 268q0 -60 35 -60q16 0 50 20q1 2 17 11.5t18 11.5q9 7 37.5 36.5t36.5 39.5q4 2 9 12.5t5 15.5q11 7 85 81q1 4 10 18.5t11 16.5q0 2 6.5 8t6.5 7q6 15 6 49q15 62 15 90q0 69 -45 69q-46 0 -102.5 -39t-87.5 -81q-4 -2 -16 -26q-3 -4 -7.5 -8.5t-7.5 -8t-4 -10.5 q-1 -3 -4 -31t-4 -32q0 -2 -6.5 -13l-13.5 -22.5t-8 -14.5q-42 -79 -42 -140zM389 90q0 13 4.5 32.5t4.5 31.5q0 48 -26 48q-12 0 -21 -8.5t-17.5 -21.5t-13.5 -18q-1 -2 -10.5 -8.5t-10.5 -7.5q-22 -16 -61.5 -51.5t-61.5 -51.5q-10 -4 -34 -28q-16 -7 -52 -7h-26 q-8 4 -14 16q-31 24 -46.5 45t-15.5 53v5q14 117 55.5 211.5t117.5 217.5l8 16.5t9.5 18t10.5 14.5q10 12 45 46.5t46 43.5q0 4 5 14q3 1 21.5 17t20.5 17q38 34 62.5 53t64.5 36t81 17q13 0 40.5 -4.5t42.5 -4.5q25 0 62 14t55 14q42 0 54 -19.5t12 -67.5q0 -41 -16 -79 q-20 -45 -34 -63l-7 -7q-7 -6 -9 -6q-11 -15 -35.5 -84t-45.5 -82q-14 -38 -28 -85q-7 -11 -7 -12q0 -2 -7 -24.5t-7 -26.5q-7 -7 -13 -19q-14 -24 -14 -67v-2q1 -4 6 -9.5t8 -5.5q13 0 26 12t25.5 29t17.5 21q28 25 68 44.5t72 19.5q10 0 12 -7q0 -34 -5 -57 q-8 -21 -39.5 -54t-38.5 -55q-102 -108 -161 -147q-7 -6 -17 -9t-17 -3.5t-21.5 -1t-20.5 -0.5h-3q-23 0 -60.5 24t-40.5 45v28z" />
<glyph unicode="b" horiz-adv-x="860" d="M238 131q2 0 25.5 -3t27.5 -3h11q15 0 29.5 11t30 30t19.5 23t46 30.5t53 43.5q10 18 35.5 78t45.5 90q2 3 30.5 32t31.5 51q7 9 7 55q1 3 5 21t4 22q0 10 -10 19t-19 9q-3 0 -6 -0.5t-6 -1.5h-2q-1 0 -14 -4l-12 -3h-44q-9 0 -21.5 -9t-28.5 -22.5t-19 -16.5 q-1 -1 -15.5 -10t-18.5 -11q-24 -19 -42 -41q-23 -53 -28 -69q0 -1 -3 -7.5t-3 -8.5q0 -1 -3 -9.5t-3 -9.5q-3 -2 -22 -21q-10 -15 -12 -21q-9 -13 -21 -39t-14 -30q-2 -2 -8 -14q-23 -69 -26 -83q-16 -27 -16 -50q0 -19 16 -28zM14 86v20l4 12q3 12 3 13v44q12 47 29 90.5 t44 100t40 86.5q0 20 5 27q0 1 13 26.5t16 29.5q4 10 8.5 27t10.5 30.5t16 25.5q23 85 74 195q3 2 12 16.5t9 18.5l9 12l9.5 38l9.5 38l27 69q3 6 14 21.5t14 28.5l3 15q4 15 4 20q1 2 4 26t3 29q4 12 17 22.5t18 19.5q5 6 10 26t5 31v5q-24 42 -50 61q-9 9 -47 19.5t-68 25 t-30 36.5q0 14 10 22.5t23 8.5t38 -7t38 -7h1q1 1 6.5 2.5t9.5 3t5 3.5h215q6 0 34 -16q28 -10 28 -62q0 -23 -12.5 -55.5t-20.5 -47t-29 -49.5q-17 -33 -19 -50q-1 0 -4 -5.5t-3 -7.5q-5 -10 -37 -89l-34 -84q0 -3 -8.5 -17.5t-10.5 -16.5q-2 -3 -8.5 -22.5t-7.5 -20.5 q0 -5 -5.5 -15t-8.5 -11q0 -2 -5 -8.5l-10 -12.5t-5 -7q-8 -17 -35 -92q-1 -4 -12.5 -33t-13.5 -36q-3 -6 -5 -9l-3 -4.5t-1 -4v-10.5v-3q0 -16 9 -16q10 4 12 6q52 38 64 90q7 7 33.5 31t35.5 31q1 1 6 4t9 6.5t4 4.5q5 3 44 35l53 40l12 2q13 2 28 3.5t23 1.5h15 q29 0 65.5 -13.5t52.5 -33.5q7 -11 12 -36t9 -33q5 -40 5 -71q0 -42 -5 -90q0 -12 -7 -21l-63 -124q-7 -14 -7 -21q-6 -16 -15.5 -32.5t-17.5 -27.5l-22.5 -29.5t-21.5 -28.5q-17 -25 -19 -36q-1 -2 -44 -35q-17 -14 -47.5 -51t-49.5 -53q-15 -10 -19 -12q-2 0 -8 -3.5 t-7 -3.5q-5 -5 -22 -19t-20 -15q-1 -2 -53 -28q-138 -64 -225 -64q-15 0 -33 3.5t-28 3.5q-4 0 -15 -3.5t-18 -3.5q-2 0 -36 38.5t-35 44.5v17z" />
<glyph unicode="c" horiz-adv-x="724" d="M69 209v70v36q0 67 7 95q5 16 14 29q5 12 9 28t7 36t4 26q29 109 90 187q6 8 9.5 14.5t6.5 10.5t12 10q20 13 22 14q11 7 13 7q1 0 13.5 13t15.5 14q10 7 12 7q7 7 23 7q7 9 46 35q4 1 22 10t22 10q2 7 34 7q4 4 28 16q51 7 73 7h17q39 -7 90 -7q8 -2 16 -5.5t17 -10 l14.5 -10.5t14.5 -13.5l12 -12.5t13 -15l10 -11q22 -21 22 -85v-26q0 -5 -22 -27q-34 -44 -66 -44q-58 0 -94 44q-5 6 -14 29.5t-18 42t-16 18.5q-23 10 -48 10q-22 0 -42 -10q-7 -9 -28 -23.5t-29 -25.5q-1 -1 -6 -13t-6 -13q-33 -33 -35 -34q-12 -14 -23 -43.5t-20 -41.5 q-4 -7 -19 -28.5t-23 -37t-12 -31.5q-3 -11 -5.5 -37t-9.5 -39q-2 -5 -15 -21t-13 -29q-5 -35 -5 -61q0 -27 5 -59q19 -38 28 -53q6 -10 36 -32.5t42 -23.5q13 0 19 6q23 18 46 53t32 45q0 1 9.5 10.5t9.5 10.5q7 4 22 35q10 15 42 15q18 0 27 -17.5t9 -39.5q0 -40 -31 -106 l-23.5 -24l-40 -40.5t-24.5 -23.5q-9 -8 -18.5 -12.5t-23 -8t-21.5 -6.5q0 -2 -22 -16q-24 -14 -71 -14h-16h-10q-40 8 -90 49q-2 2 -17.5 14t-17.5 13q0 7 -20 63q-1 2 -2.5 10.5t-3.5 15.5t-3 8q0 2 -12 50z" />
<glyph unicode="d" horiz-adv-x="971" d="M218 232q0 -28 16.5 -54.5t42.5 -26.5h17q26 9 42 22q0 1 6 14t7 14q2 0 10.5 7t10.5 7q59 43 97 89l35.5 42l37 44.5t27.5 41t25 52.5q0 2 3.5 18t3.5 17q2 5 12 27.5t10 39.5q0 39 -40 39q-22 0 -47 -8.5t-40.5 -18l-42.5 -27l-38 -24.5q-3 -1 -57 -28q-7 -5 -7 -7 q-84 -108 -109 -194q-22 -53 -22 -86zM439 62q0 2 3.5 10t5.5 9v21q0 29 -33 29q-19 0 -44.5 -15.5t-34.5 -18.5q-2 -1 -24 -3t-25 -4q-5 -3 -24.5 -21t-22.5 -22q-78 -56 -138 -56q-34 0 -57.5 13.5t-49.5 42.5q-12 21 -12 22q-4 21 -4 61t4 59q1 6 10.5 25.5t9.5 20.5 q0 3 7 28.5t7 28.5q33 112 97 192q35 49 42 56q1 3 12 14q58 42 112 90q3 2 37.5 31.5t59.5 46.5t42 20q44 0 69 5q1 0 13.5 7t15.5 7q10 5 40 13t35 8q1 0 18 1.5t23 1.5q5 0 15 -0.5t18 -1.5t9 -1t20.5 -6t22.5 -6q0 -2 17 -2h12q7 0 18 14q12 17 25.5 53.5t22.5 50.5 q6 9 27 35t28 41q3 3 8.5 18t5.5 16q3 7 13.5 24t14.5 27q3 1 16 34t41 69q4 6 12 13t12 13.5t4 18.5q0 26 -12 42.5t-37 32t-36 26.5q-18 18 -28 40v8q0 15 38.5 39.5t51.5 24.5l7 -3q3 0 22 -6t20 -6h41h43q1 0 13 3.5t15 3.5q1 0 13.5 -3.5t14.5 -3.5q1 0 19.5 -3.5 t21.5 -3.5q35 -15 35 -80v-24q-17 -22 -57 -85q-6 -10 -26.5 -41t-33 -52.5t-21.5 -44.5q-1 -1 -4 -9.5t-3 -9.5q-1 -2 -4.5 -18.5t-4.5 -18.5q-9 -15 -12 -19q-87 -114 -133 -195l-6 -12q-1 -1 -10 -30.5t-12 -33.5q-1 -3 -23 -28t-24 -28q-1 0 -4 -6l-6.5 -12.5t-4.5 -7.5 l-19 -57l-3 -6q-4 -6 -4 -7q-5 -15 -9 -21q0 -38 -7 -63q-1 -7 -3.5 -10.5t-7.5 -7t-8 -9.5q-49 -72 -78 -139q0 -2 -3 -17t-4 -17q0 -2 -9.5 -24t-9.5 -25l-1 -5q0 -12 15.5 -20.5t27.5 -8.5q19 0 48.5 20.5t43.5 20.5q9 0 20 -9t11 -18q0 -35 -35 -70l-54 -62 q-5 -4 -15 -14t-17.5 -18.5t-8.5 -8.5q-7 -7 -23 -7l-12 -7q-44 -31 -73 -43.5t-70 -12.5q-66 0 -92 77z" />
<glyph unicode="e" horiz-adv-x="696" d="M354 623v-5q0 -7 5 -14t12 -7h3q3 1 21.5 10.5l20.5 10.5l32.5 12t36 13.5t35.5 15.5q2 2 9.5 7t13.5 9.5t12.5 10t10.5 10.5t4 8v5q-26 26 -35 42q-7 5 -8 5q-2 0 -12.5 1.5t-12.5 1.5q-32 0 -77 -30.5t-59 -60.5q-12 -31 -12 -45zM39 76q-11 156 -12 182v26q0 33 20 83 q0 2 3.5 11t3.5 11q5 18 18 40.5t17 35.5q2 4 8 22t6 22q1 1 10.5 19t10.5 20q7 28 7 35q3 11 15 22l54 54q2 3 11 13t16 18.5t7 11.5l7 12q7 13 9 14q0 1 2.5 2.5t5.5 3.5t4 3q12 0 22 7q11 10 13 12q3 3 14.5 18t12.5 17q22 19 64 34q0 2 2.5 5t2.5 4q52 41 148 41 q41 0 99.5 -14.5t73.5 -40.5q6 -6 6 -29q3 -3 16 -35v-5v-7q-2 -11 -5 -34t-6.5 -40t-10.5 -30q0 -3 -6 -11.5t-7 -10.5q-42 -51 -62 -63q-61 -26 -69 -34q-20 -10 -60.5 -18.5t-58.5 -16.5h-146q-44 0 -55 -28q-3 -3 -15.5 -38t-14.5 -38q-10 -26 -27 -50v-47 q0 -20 3 -41.5t10 -47.5t23.5 -42t39.5 -16q7 0 20.5 4.5t22.5 4.5h19q2 -2 11 -5.5t12 -3.5q6 3 16 15.5t11 19.5l76 78h11q15 0 24 -13.5t9 -29.5q0 -11 -2.5 -21t-9 -20l-10 -15.5t-14.5 -17t-14 -15.5q-14 -21 -14 -22q-6 -8 -24.5 -20.5t-24.5 -21.5q-2 -1 -7.5 -10.5 t-6.5 -9.5q-1 -1 -20.5 -6.5t-22.5 -7.5q-14 -6 -39.5 -22.5t-46.5 -25t-45 -8.5q-36 0 -89 38.5t-72 72.5z" />
<glyph unicode="f" horiz-adv-x="660" d="M-501 -382q0 15 12 31l35 34q1 0 12.5 1t16.5 1q22 0 40 -10.5t32 -25l28.5 -29t36 -25t47.5 -10.5h29q5 2 22.5 14t20.5 15q0 5 14 5q20 10 33 22.5t28 37.5t20 32q12 8 30 35q5 2 5 12l26 60.5l32 69t27 58.5q19 42 27 76q0 3 3 18t4 17q3 11 28 69q0 1 3.5 10.5 t3.5 10.5l7 14l12 12q5 9 16.5 39.5t26.5 45.5q22 82 26 104q3 3 16 35t14 34q1 1 3 13t2 14q5 15 21.5 49.5t21.5 54.5q3 9 5.5 30.5t8.5 33.5q2 2 11 16.5t10 18.5l7 12v24v24q-14 19 -59 19h-30q-15 0 -22 2q-2 0 -14.5 7t-13.5 7q-5 2 -12 4.5t-10.5 3.5t-8.5 4t-7 6 t-3.5 8.5t-1.5 13.5l2 15q2 6 15 19.5t19 15.5q55 0 104 7q48 4 69 34q1 2 13 20.5l22.5 34.5t13.5 22q11 19 23.5 55t17.5 48q7 13 9 14q0 2 9 14.5t10 15.5q1 1 5.5 13l10 25.5t5.5 14.5q0 2 7 16q4 5 14 21t18 27.5t9 11.5q21 23 49.5 41.5t66.5 39t57 32.5q1 0 4 2.5 l6.5 5.5t5.5 4q0 1 5 4t7 3q7 0 42 1t41 1q97 0 157.5 -16.5t112.5 -73.5q1 -2 6.5 -10.5t9.5 -17t4 -12.5q0 -87 -69 -87q-14 0 -20.5 7t-11 21t-8.5 21q-20 23 -30.5 33.5t-29.5 20.5t-40 10q-15 0 -29 -5t-30.5 -13t-28.5 -12q-59 -20 -104 -48q-10 -10 -14 -12 l-27.5 -42t-27.5 -43q-10 -17 -35 -88q-4 -17 -11 -34t-16.5 -38t-13.5 -32v-5v-4q1 -4 6 -14.5t8 -11.5q9 -17 13 -17h146q13 0 28 -25t15 -39q0 -49 -50 -66q-3 0 -29 1t-44 1t-43 -1t-28 -1q-11 0 -43 -7q-43 -9 -76 -70.5t-42 -115.5v-40q-7 -32 -28 -80.5t-27 -66.5 q0 -3 -3.5 -14t-3.5 -12q0 -6 -3 -30t-4 -27q-1 -2 -14 -20.5t-14 -21.5q-10 -19 -16.5 -55t-10.5 -49q-7 -20 -18 -42l-25 -48.5l-21 -40.5q-10 -21 -25 -61.5t-22 -57.5q-8 -17 -19.5 -56.5t-21.5 -59.5q-4 -10 -28 -42q-16 -22 -46 -69t-46 -69q-3 -7 -5 -7 q-58 -51 -113 -70.5t-136 -19.5h-7q-147 7 -154 7q-73 6 -109 117q-7 13 -7 14v11z" />
<glyph unicode="g" horiz-adv-x="836" d="M301 479q0 -38 29 -48q7 1 31.5 11.5t30.5 15.5q69 51 125 154q18 31 29 109v14q0 24 -7 78q-1 7 -15 7h-7q-26 0 -45 -8.5t-28.5 -18.5t-30.5 -37q-4 -4 -17.5 -18.5l-19.5 -21t-16.5 -20t-16.5 -23t-11.5 -22.5t-8.5 -26q-7 -25 -7 -63q-1 -10 -8 -38t-7 -45zM3 -206 v-2q42 -47 69 -69q1 -2 10.5 -10.5t10.5 -11.5q2 -1 13 -15l10 -13q0 -1 5 -4t7 -3l23 -2.5t22 -2t19 -5t20 -11.5h59q94 0 128 7q19 4 68.5 50t49.5 64q0 21 -4.5 36t-10 23t-19 22.5t-21.5 26.5t-20.5 19t-37.5 15.5t-26 8.5q-2 0 -7 2.5t-6 4.5q-2 1 -17.5 17t-17.5 17 q-66 42 -133 42q-9 0 -12.5 -2t-8 -9.5t-7.5 -10.5l-19.5 -20t-21.5 -20q-11 -10 -40.5 -23.5t-41.5 -33.5q0 -1 -3.5 -13t-4.5 -13q-1 -2 -13.5 -14.5t-12.5 -13.5q-1 -1 -2.5 -6.5l-3.5 -12.5t-3 -9v-5zM-170 -240v5q7 49 7 69q5 52 21 69q70 71 76 75q1 2 10.5 7 t19.5 9.5t11 5.5q12 12 14 12q13 10 43 10q7 0 17.5 -0.5t15.5 -0.5h7q1 0 4 1.5t6.5 3t5.5 2.5q1 0 19.5 13t20.5 14q8 0 22 7v11q0 12 -26 28.5t-31 23.5q-28 43 -28 95v31q0 6 16 28q4 6 19 26.5t16 21.5q45 28 69 35q7 6 7 22v9v17q-2 2 -15 27t-15 28q-14 51 -14 116 q0 17 1.5 29t5 23t6.5 17.5t11 20t13 23.5q0 13 7 22q0 1 2.5 14t2.5 14q16 11 29 28q1 0 4 9.5l6 19.5t4 12q0 1 12.5 10t13.5 11q2 0 16 14q4 2 20.5 16t20.5 18l9 10l16.5 16.5t9.5 8.5t20 4t21 3q26 10 63 21h8h12q12 -1 35.5 -1.5t36 -1.5t30 -7t31.5 -18 q27 -22 63 -62q5 -6 15 -28.5t21 -35.5t28 -13q12 0 28.5 16t31.5 36t42.5 36t58.5 16h10q16 0 23 -7l6 -13q5 -13 6 -14q2 -4 11 -12.5t11 -15.5v-31q0 -50 -22 -68q-2 -1 -20 -12.5t-22 -14.5h-5h-9q-2 0 -10 7t-10 8q-35 12 -96 12q-20 0 -34.5 -8.5t-24 -25.5 t-15.5 -32.5t-13 -38t-11 -33.5q-1 -1 -8 -10.5t-8 -10.5q-5 -9 -10 -20.5t-8 -17t-8.5 -14t-14.5 -17.5q-31 -37 -109 -111q-22 -13 -67 -31.5t-61 -18.5q-10 0 -24 4.5t-21 4.5q-17 0 -50 -6.5t-42 -7.5q-36 -29 -36 -92l1 -12q0 -3 11 -19t17 -22q7 -10 19.5 -18 t27.5 -15t22 -11q3 -1 21.5 -14t20.5 -13t14 -3t13 -4q9 -3 27 -15t39.5 -28l25.5 -19q24 -24 42 -35q9 -7 19 -12t16 -7t19.5 -5t19.5 -5q24 -4 52.5 -22.5t46.5 -38.5q1 -10 7 -55.5t7 -50.5v-12q0 -79 -28 -154q-4 -12 -11 -21.5t-10.5 -13t-17.5 -14t-17 -13.5 q-10 -7 -26 -21.5t-25.5 -22t-25 -14t-33.5 -6.5h-175q-2 0 -14 -2.5t-15 -2.5h-104q-11 -7 -31 -7h-9q-3 1 -28 14t-29 14l-19 7q-1 0 -8 6t-8 6q-13 13 -25 19t-34 11t-31 8q-10 2 -19 6t-19.5 10.5t-16 10.5l-18.5 13.5l-17 12.5l-4.5 4.5t-6 6.5t-2.5 5q0 1 -3 13t-4 15 q-5 8 -15.5 21t-15 23.5t-4.5 26.5z" />
<glyph unicode="h" horiz-adv-x="923" d="M-38 48q0 1 3.5 14t3.5 14q0 3 1.5 14t2.5 19.5t3.5 19t6.5 16.5q2 3 13.5 21.5t12.5 20.5q13 21 32.5 63.5t31.5 62.5q59 103 103 213q6 9 6 21q1 2 4.5 14t6.5 25.5t4 15.5q9 24 27 51.5t27 45.5q7 7 7 26q8 24 26.5 62t23.5 50q1 2 5.5 17l8.5 28.5t5 15.5q1 1 2 3.5 t2.5 5t2.5 4.5t2 2q13 26 41 97q4 12 10 21.5t17 22t15 17.5q10 17 19 51t15 47q3 7 9.5 19.5l10 19t6 17.5t2.5 24q0 50 -16 80q-5 11 -29 35t-24 34t11.5 21t22.5 13q8 0 32.5 1.5t52 3.5t31.5 2q2 0 12 3.5t11 3.5h10h9l7 -4q7 -3 8 -3l18 -7t18.5 -7.5t15 -8t13.5 -11 t7.5 -15t3.5 -20.5q0 -54 -15 -92l-4 -8q-5 -7 -9.5 -15.5l-5.5 -10.5q-7 -4 -7 -12q-14 -50 -23 -63q-5 -14 -27.5 -39.5t-25.5 -43.5v-10v-24q-1 -2 -17.5 -17t-17.5 -18q-1 -2 -8 -50q-3 -18 -18 -48t-29 -47q-26 -26 -30 -28v-15v-19l7 -16h35q5 0 62 50l13.5 14 t21.5 14q67 14 85 14h13l13 -7q18 -7 41 -7q1 -1 3 -2.5t3.5 -3t2.5 -3.5q1 -1 16 -9.5t18 -9.5q3 -2 9.5 -6t8.5 -5t5.5 -4.5t6 -7.5t5.5 -11q4 -8 12 -56q3 -10 9.5 -28.5t10 -30t6.5 -28t3 -30.5q0 -50 -15 -110t-27 -91l-42 -104q-5 -21 -35 -88q-7 -16 -16 -32l-16 -28 t-21 -28t-20.5 -24t-24 -26t-23 -23l-26 -24.5t-24.5 -22.5q-16 -12 -28 -15l-31 -14t-33.5 -14.5t-30 -9t-35.5 -4.5q-48 0 -71 16q-1 0 -6 6l-10 12.5t-6 7.5q-4 5 -17 17t-21.5 23.5t-8.5 23.5q0 48 28 90q22 26 28 34h17q25 0 66 -25t72 -25q18 0 31.5 10t19.5 21.5 t14.5 31t12.5 27.5q1 3 14 18t14 17q8 12 13 39.5t9 36.5q1 4 10 21.5t9 19.5q2 3 11 15t12 13l3 15q2 16 2 20q7 33 7 97q0 48 -7 64l-10 15q-9 16 -9 19q-2 5 -6.5 24.5t-12.5 28.5t-24 9q-11 0 -27 -10t-20 -12q-1 -1 -6.5 -2.5t-10.5 -3t-5 -3.5q-4 -1 -14.5 -8.5 t-11.5 -10.5q-11 -8 -45 -42.5t-45 -47.5q-16 -17 -28.5 -38.5t-26 -49t-21.5 -41.5q0 -2 -3.5 -5t-3.5 -4q-18 -21 -63 -95q0 -1 -22 -30l-69 -143q0 -11 -12 -35q-1 -3 -13.5 -18t-14.5 -16q-5 -8 -7 -14.5t-3 -17t-4 -19.5q-10 -28 -42 -55.5t-60 -27.5q-27 0 -45.5 24.5 t-18.5 51.5z" />
<glyph unicode="i" horiz-adv-x="541" d="M376 1329v7l29 46l35 35q4 9 60 9h43q11 0 35 -21q5 -5 28 -32.5t27 -31.5v-12q0 -45 -19.5 -85.5t-56.5 -53.5q-5 -1 -43 -1t-40 1q-41 1 -69.5 48t-28.5 91zM0 73l3 8q3 8 6 17.5t3 13.5l11.5 27l15.5 37.5t8 20.5q1 1 5.5 8l9.5 15.5t7 11.5q18 28 48 80l42 72 q0 1 3 5.5t6.5 9t4.5 6.5q16 21 25 40t18.5 42t18.5 41q5 11 15.5 25.5t15 26.5t4.5 29v22q-9 9 -28 9q-34 0 -76 -9q-20 7 -20 25q0 47 27 74l15 12q16 12 20 16l111 76q65 40 117 40q34 0 44.5 -9.5t23.5 -44.5l3 -9q5 -12 5 -26q0 -30 -26 -76t-29 -55l-3 -10 q-4 -10 -4 -13q-8 -27 -48 -93q0 -1 -1 -2l-1 -1q0 -8 -7 -13q-27 -86 -95 -195q-1 -1 -2.5 -3.5t-2.5 -3.5q-38 -56 -38 -104l1 -4q2 -4 4 -8.5t3 -6.5q0 -1 2.5 -4t4.5 -3h95q3 0 8.5 -7.5t7.5 -12.5v-16v-12l-35 -35q-2 -1 -17 -13.5t-17 -15.5q-1 0 -3.5 -1l-6 -2.5 t-4.5 -1.5q-18 -8 -53 -29.5t-64.5 -34t-57.5 -12.5q-94 0 -116 55z" />
<glyph unicode="j" horiz-adv-x="541" d="M409 1330v4q13 21 26 53q16 26 32 35t45 9h19q2 -1 9 -2.5t13 -3t8 -3.5q31 0 43 -5q8 -5 24 -22t16 -20v-97q0 -27 -42.5 -52t-71.5 -25l-4 1q-7 1 -30.5 10t-24.5 9q-14 7 -23 14.5t-15.5 20.5t-9 18.5t-8 25.5t-6.5 25v5zM-536 -386q0 29 35 59q22 28 72 28h38 q2 0 10.5 -5t10.5 -7q11 -9 17.5 -18.5t14 -27.5t10.5 -24l6.5 -20t11.5 -27t14 -10h2q2 2 18 7.5t17 6.5q10 7 40.5 25.5t49 32.5t34.5 32q4 3 13 16t10 14q1 0 5 8l8.5 16.5t5.5 9.5t21 13t22 15q25 25 35 47q0 1 2 10l3.5 16t1.5 8q0 7 3 21t6 24.5t3 11.5q2 0 5 4l3 3 q12 22 23.5 62t18.5 56q1 4 17.5 36t17.5 33q6 18 6 35q5 22 26.5 59.5t24.5 43.5q0 4 5 22t7 20q1 3 10 14.5t12 13.5q0 2 2.5 8t2.5 7q5 14 18 67t24 78q7 16 24.5 49t25.5 55v4v3q-2 0 -8 -3t-7 -4q-1 0 -6.5 -7t-6.5 -7q-25 -5 -41 -5q-14 -9 -28 -29q-2 -1 -15 -7 t-14 -7q-11 -7 -22 -23t-23 -25t-33 -9q-13 0 -19.5 8.5t-7.5 17t-1 24.5q0 2 1 14t1 14q5 7 7 7q4 7 28 39t29 37q17 24 39.5 46.5t59 54l45.5 39.5q5 2 22 19t19 22q4 3 16 21q19 31 58 50t78 19q32 0 49 -12.5t29 -42.5v-5v-2q-3 -13 -5.5 -46.5t-8.5 -50.5q0 -4 -13 -29 t-14 -28q-10 -21 -25.5 -65.5t-24.5 -65.5l-28 -64t-33 -82q-1 -2 -4.5 -10t-4.5 -10q-15 -55 -52 -154.5t-51 -145.5q-7 -24 -7 -34q0 -2 0.5 -16.5t0.5 -23.5q0 -14 -1 -16t-9 -9.5l-17 -16.5l-9 -8q-11 -13 -18 -45t-17 -45l-7 -7t-6 -7q0 -2 -7 -18t-7 -17 q-9 -19 -35.5 -50t-33.5 -41q-1 -1 -10.5 -20.5l-10.5 -21.5q-122 -147 -284 -147q-6 0 -16.5 1t-18 2t-8.5 1t-15 -1t-16 -1q-19 0 -23 -4q-30 -4 -50 -10q-35 -7 -62 -7q-2 0 -14 7l-12 7q-2 1 -21.5 7t-21.5 7q-16 8 -29 38t-13 48z" />
<glyph unicode="k" horiz-adv-x="856" d="M358 545q0 -35 18.5 -61.5t51.5 -26.5h14l10 7q10 7 11 7q5 2 34 7.5t35 5.5q32 13 35 16q3 2 24.5 23.5l23.5 23.5q5 4 16 11t16.5 13t7.5 17q9 21 9 59q0 10 -2 10q-15 35 -54 35q-75 0 -138 -28q-13 -5 -26.5 -15.5t-18.5 -15.5t-21 -25l-17 -20q-3 -2 -15.5 -13.5 t-12.5 -13.5q-1 -13 -1 -16zM-14 43v7q9 44 25 88.5t42 103.5t36 85q12 20 56 144q8 21 33 77.5t36 89.5q0 16 7 26q0 2 7 21.5t7 22.5q0 1 2 25.5t3 27.5q19 25 29 42q11 20 21 53t14 44q5 2 5 15q4 4 26 34t24 35q12 19 19 70q2 1 5.5 15t6.5 28.5t4 16.5q0 7 7 14 q7 16 41 64q14 22 14 81q0 25 -10 44.5t-17.5 27.5t-35 27l-34.5 24q-1 2 -5 5.5t-7 6.5t-3 4q-3 22 30.5 45.5t60.5 30.5q67 7 123 7h24q61 0 78.5 -23.5t17.5 -87.5q0 -49 -23 -92q-25 -38 -28 -39q-11 -23 -23.5 -67.5t-17.5 -57.5q0 -2 -6 -14.5t-6 -13.5 q-1 -1 -4.5 -10t-7 -19.5t-4.5 -11.5q0 -11 -7 -14q-1 -3 -12 -13.5t-15 -12.5q-9 -13 -13 -42t-6 -36q-14 -34 -23 -41q-1 -3 -6 -24.5t-6 -24.5q-1 -1 -10.5 -23t-11.5 -25v-4q0 -17 29 -17q22 0 50 18.5t40 22.5q95 35 169 35q75 0 108 -81q0 -3 3.5 -15.5t3.5 -14.5 q0 -6 -1.5 -26t-3.5 -43t-2 -28q-9 -14 -24 -40.5t-29 -47t-32 -36.5q-1 -2 -10 -8l-9 -6q-1 0 -10.5 -3.5t-10.5 -3.5q-4 -2 -29 -20t-28 -20q-12 -9 -29 -15t-29.5 -8.5t-33.5 -5.5t-31 -5q-3 -2 -31 -8t-31 -8q-7 -4 -23 -19.5t-19 -21.5v-47v-50q1 -12 7 -20.5t18.5 -19 t16.5 -14.5q2 -2 14.5 -18.5t19.5 -24.5t19 -17t21 -9q20 0 46 10.5t41 10.5q40 0 40 -54v-17q-14 -63 -57 -88q-30 -23 -35 -23l-54 7q-17 2 -39.5 4l-34 3t-29 8t-35.5 20q-16 11 -72 105.5t-73 94.5q-18 0 -32 -23t-25 -60t-13 -40q-26 -53 -27 -57q-2 -4 -7.5 -17 t-7 -16l-6.5 -13t-7.5 -12.5t-7.5 -9.5t-9 -9.5t-10.5 -7.5t-13.5 -7t-15.5 -5t-19.5 -6h-9q-8 0 -26 13q-19 17 -23 32t-4 46z" />
<glyph unicode="l" horiz-adv-x="533" d="M-26 38v24q0 1 3.5 8t3.5 8q5 5 5 34q5 15 25.5 40.5t25.5 36.5q0 2 6.5 19t6.5 20q6 18 6 51q21 34 43 83q0 2 6.5 18.5t7.5 20.5q3 11 6.5 30.5t7.5 30.5t13 24q1 3 14 18t14 17q9 15 17 49.5t13 47.5q0 8 19 55q6 18 6 21q1 2 2.5 10.5t3.5 16t3 7.5q0 1 4.5 6l9 10 t5.5 7q9 10 13.5 32t7.5 28q18 39 21 44q2 1 14 15.5t13 18.5q1 1 4.5 6l6.5 9t5 4q1 3 6 28.5t6 27.5q3 8 14 24t14 24q14 25 14 35q0 1 3.5 17.5t4.5 18.5q0 3 12.5 21t13.5 20q1 1 4.5 10t4.5 10q3 6 10.5 23l10 23t6.5 18.5t5.5 23.5t1.5 24q0 29 -19.5 45.5t-43.5 21 t-43.5 16t-19.5 31.5q0 19 17.5 28.5t51.5 18.5q38 10 166 26h99l12 -21q23 -34 23 -71q0 -11 -16 -29.5t-19 -24.5q-23 -44 -50 -119q0 -2 -3.5 -10t-3.5 -9q0 -25 -5 -35q-3 -3 -21.5 -31.5t-20.5 -30.5q-6 -9 -8 -15q-1 -8 -19.5 -55t-22.5 -56q0 -2 -9 -17t-10 -18 q-3 -4 -8 -12.5t-9 -18t-5 -10.5q-2 -3 -7.5 -24t-5.5 -25l-32 -78t-30 -74q-4 -2 -12.5 -15t-9.5 -19q0 -30 -7 -42q0 -1 -6 -7t-6 -7q-2 0 -9 -21q-34 -114 -123 -285q0 -1 -1.5 -9.5t-1.5 -9.5v-7q0 -29 15 -29l7 1q13 2 34 7t22 7q10 5 43.5 41.5t59.5 36.5q35 0 35 -26 q0 -39 -34 -75.5t-94 -78t-73 -52.5q-3 -2 -22 -21t-24 -27q-3 -2 -13 -12.5l-20 -22t-11 -12.5q-22 -24 -93 -24q-4 0 -23.5 1t-21.5 1q-42 25 -42 86z" />
<glyph unicode="m" horiz-adv-x="1604" d="M1022 67q0 27 11 57.5t21.5 48l31.5 50.5q10 13 83 125q3 1 12 13t9 14q0 1 3.5 12t6.5 19.5t4 10.5q0 2 3 8t4 7q0 1 7 10.5t13.5 19.5t6.5 12q7 10 7 12q17 42 23 50q25 25 27 35q0 14 7 19q4 10 13 28q36 64 36 124q0 11 -0.5 16t-5.5 9.5t-15 4.5h-15q-7 -4 -63 -21 l-14 -7q-2 -1 -14 -17t-13 -18q-7 -7 -28 -24t-28 -26l-83 -111q-12 -15 -44.5 -39.5t-45.5 -41.5q-17 -24 -29 -43q-1 -2 -9.5 -20.5t-9.5 -21.5q-8 -12 -20 -26l-26.5 -30l-22.5 -25q-1 -2 -4.5 -7.5l-6.5 -10t-5 -4.5q-24 -56 -34 -70q-2 -3 -17.5 -18t-17.5 -16 q-9 -10 -32.5 -42.5t-29.5 -42.5q-1 -7 -5.5 -16.5t-9 -16.5t-11.5 -16.5t-9 -12.5q-25 -35 -86 -35h-16q-19 0 -26 5.5t-17 29.5q-14 31 -14 52q0 15 13 34t15 26l2 19q3 19 5 23q1 1 10 13t10 14q0 1 9 19t10 23q35 75 64 111q13 16 24.5 41t19.5 36q48 82 62 125v29v12 q5 40 19 63q2 3 7.5 10.5t7.5 11t4.5 10t2.5 13.5q0 11 -5 14t-17 3t-22 -4.5t-15.5 -9t-15.5 -14.5t-16 -15q-8 -6 -30.5 -13.5t-32.5 -14.5q-22 -14 -52 -48.5t-44 -46.5l-42 -28q-1 0 -3.5 -6t-5.5 -12.5t-5 -8.5q0 -1 -3.5 -12.5t-6.5 -20t-4 -9.5q-2 -3 -11.5 -12 t-10.5 -10q-46 -51 -69 -83q0 -3 -5.5 -14t-6.5 -12q-3 -4 -15.5 -22.5l-14.5 -21.5q-58 -86 -73 -128q-5 -12 -8 -24v-10v-24q-4 -12 -28 -25t-29 -19q-7 -7 -18.5 -21l-18 -21.5t-19 -13.5t-27.5 -6q-33 0 -54.5 22t-21.5 56q0 18 5 37t16 40l18.5 34.5t23.5 37t21 31.5 q10 16 15.5 47.5t10.5 42.5q5 10 18 25t17 23q2 3 11 25.5t10 23.5l13 13q4 4 14 28q4 10 13 29l15.5 33.5t6.5 15.5q3 14 3 16q0 19 -9 26.5t-30 7.5q-3 0 -7.5 -0.5t-7.5 -1.5h-4l-77 -76q-5 -5 -19 -5q-3 0 -8.5 1t-9.5 2t-4 2q-2 0 -14 28v2q0 33 35 93q58 110 62 119 l7 7l34.5 29.5t35 28.5t31.5 20t41 16.5t48 4.5q21 0 42 -3t44.5 -10.5t38 -23t14.5 -36.5q0 -24 -16 -67t-16 -66q0 -22 9 -53q0 1 7 8q2 0 14.5 6t13.5 8q15 10 40 47t43 50q15 11 47.5 27.5t42.5 22.5q1 0 7.5 5.5t6.5 6.5q6 4 36 28q3 14 7 14q1 2 6 8t6 7q2 1 12 3.5 t19 5.5l10 3q2 2 11 8t10 6q2 1 5.5 3t6.5 4t4 2h117l35 -35q21 -27 21 -72q0 -16 -14 -43.5t-14 -45.5v-12q0 -15 10 -15h2q16 7 43 34l99 76q0 1 5.5 7t6.5 7q23 26 42 35q1 0 10 3t10 4q3 1 18.5 17.5t16.5 16.5q12 7 14 7q87 35 142 35h5q5 0 12 -7l7 -7q4 -1 30 -14 t27 -14l5 -7q8 -6 16 -55v-2v-5q-7 -28 -7 -76v-14q-8 -20 -9 -21q-1 -5 -20 -37t-20 -33q-6 -12 -16.5 -38t-17.5 -39q-3 -1 -12 -15t-11 -19q-1 -4 -13 -27.5t-13 -28.5q0 -2 -10 -24t-10 -24q-4 -3 -20.5 -28.5l-21.5 -33.5q-2 -3 -8.5 -13.5t-10 -15.5t-9 -15t-9 -17 t-7 -16t-5 -17.5t-1.5 -16.5q0 -9 14 -9q15 0 29.5 8.5t21.5 16t21.5 26l17.5 22.5q4 2 22.5 19.5t20.5 20.5q5 6 10 14t7.5 11.5t8.5 6t15 2.5q11 0 37 -10t26 -17v-7q-17 -63 -35 -83q-2 -3 -25 -25l-25 -24q-1 -1 -6 -17t-6 -17q-19 -24 -62 -63l-30 -15 q-13 -7 -48.5 -33.5t-60.5 -35.5q-5 0 -23 -2.5t-20 -4.5q-11 -3 -45.5 -16.5t-44.5 -18.5q-3 1 -8 3q-19 7 -28.5 11.5t-21 13.5t-16 21.5t-4.5 31.5z" />
<glyph unicode="n" horiz-adv-x="1039" d="M485 99v20q0 11 7 21q54 81 62 97q59 94 69 126q2 3 4.5 23t2.5 24q8 24 35 57t34 47q1 1 4.5 11t4.5 11q0 1 4 7.5t8.5 15l6.5 12.5q43 63 43 131q0 16 -11.5 25.5t-26.5 9.5q-16 0 -24 -7l-16 -15.5l-22 -21.5t-12 -11q-2 -6 -13.5 -29.5t-14.5 -27.5q0 -1 -12 -13 q-3 -2 -19 -8l-16 -5q-5 -4 -22 -22t-19 -22q-1 0 -5.5 -2.5t-10.5 -5.5t-7 -4l-5 -7q-3 -4 -18.5 -35.5l-16.5 -33.5q-1 -3 -34 -35l-3 -6q-4 -6 -4 -9q-6 -7 -16 -35q0 -1 -13 -16t-14 -18q-21 -37 -57 -108.5l-47 -92.5q-5 -11 -21 -31t-21 -31q-59 -49 -102 -49 q-18 0 -57 28q0 7 -3.5 45t-3.5 45v9q0 23 15.5 52.5t41.5 65.5t33 48q2 1 14.5 26t15.5 27q0 1 9.5 11t9.5 12q1 2 4 25.5t3 27.5q5 26 25 70.5t23 54.5q0 3 3.5 18.5t3.5 16.5q9 30 14 34q0 7 -7 7q0 2 -5 2q-2 0 -2 -2l-111 -111h-3q-6 0 -25.5 26t-19.5 33v5q1 6 6.5 22 t7.5 18q21 50 48 99l9.5 23t12 26t13.5 20l7 5q41 39 83 73l33.5 23t32 15.5t41.5 8.5q31 0 73 -7l6 -6q28 -40 28 -43v-111q-15 -17 -15 -48v-5q0 -23 13 -23q22 0 43.5 33t27.5 37q3 1 18 9t17 10q52 52 62 64q6 5 18 7.5t24 3.5t15 2q2 2 20.5 14.5t21.5 15.5q8 4 21.5 6 t28 3.5t19.5 2.5q4 1 26.5 8.5t35.5 7.5q11 0 21 -4.5t16 -9.5t16.5 -15.5t15.5 -14.5q9 -7 15 -35.5t6 -47.5t-6 -39t-19 -50t-15 -35q-1 -2 -4 -8.5t-4 -7.5q-3 -1 -17.5 -15.5t-17.5 -18.5q-5 -9 -7 -13q0 -2 -3.5 -11.5t-3.5 -10.5q-25 -56 -27 -61q-1 -4 -17.5 -22.5 t-17.5 -20.5q-1 -1 -4 -13t-3 -15q-6 -14 -20 -40.5t-21 -47.5q-12 -41 -12 -83q13 0 35 3.5t35 3.5h32q20 -18 20 -33v-3q-2 -6 -9 -24t-12.5 -30.5t-12.5 -21.5q-5 -7 -18.5 -10t-16.5 -9q-2 -6 -21 -44q-4 -7 -26.5 -21t-51 -29.5t-32.5 -18.5q-30 -16 -43 -22t-38 -13.5 t-47 -7.5q-4 0 -20 1t-18 1q-7 5 -22 14t-19.5 13t-11.5 13t-9 20.5t-2 29.5z" />
<glyph unicode="o" d="M201 253v-104q0 -12 45 -12q70 0 121 97l7 12q10 12 32 35.5t38 43.5t26 40q2 2 64 145q6 12 6 21v64q0 2 7 26.5t7 27.5q1 1 1 17q0 31 -16 63t-44 32q-16 0 -59 -36q-8 -9 -53 -53t-51 -51l-10.5 -30.5t-17.5 -38.5q0 -2 -13 -17.5t-14 -17.5l-14 -20 q-10 -22 -17 -63.5t-11 -54.5q0 -2 -6 -14.5t-6 -15.5q-2 -2 -5 -10t-4 -9q-1 -6 -4 -34t-9 -43zM69 306q0 41 16.5 110t18.5 101q30 65 53 108.5t57.5 93t77.5 85.5t97 61q52 26 54 26q2 2 34 2q87 0 127.5 -35.5t68.5 -123.5q1 -6 4 -18.5l5.5 -22t2.5 -10.5q1 -3 4.5 -24 t4.5 -24q0 -1 3.5 -10.5t3.5 -10.5t-3.5 -16.5t-3.5 -17.5q-4 -19 -5.5 -54t-3.5 -50l-7 -14l-11.5 -37l-12 -41l-11.5 -40l-5 -20q-2 -3 -8 -14.5t-6 -13.5q-7 -27 -8 -28q-2 -4 -23.5 -25t-23.5 -25q-5 0 -15 -19q-3 -4 -18.5 -19.5l-33 -32t-18.5 -17.5q0 -2 -5.5 -11 t-8.5 -12q-31 -35 -103 -90q-21 -14 -68 -14h-36h-55q-26 13 -65 43t-46 49q-1 1 -4 19t-3 23q-21 96 -21 169z" />
<glyph unicode="p" horiz-adv-x="908" d="M253 135q0 -28 16 -47h17q19 0 37.5 5t39.5 18.5t30.5 20.5t34.5 28.5t28 24.5t31 25t31 24l21 20q15 35 35 70l10 10q10 9 10 12q26 40 44 123l19 21v117q0 27 -47 66.5t-71 39.5q-17 0 -32 -9.5t-23.5 -19t-22 -29.5t-19.5 -27l-7 -5q-1 -2 -4 -12.5t-6 -19.5t-4 -10 q0 -1 -3 -7.5t-4 -7.5q-2 -3 -12 -19t-15.5 -28t-6.5 -22q-2 -6 -2 -28q0 -24 2 -28q-7 -5 -13.5 -12.5t-12.5 -20l-9 -19t-9 -22t-6 -16.5q-1 -5 -6 -20.5l-9 -27.5t-4 -14q-2 -5 -2 -26t2 -24q-17 -9 -37.5 -45t-20.5 -59zM-338 -569v10q0 14 7 24q20 37 69 37q9 0 30 -1 t32 -1q30 1 44.5 23t23 54.5t19.5 45.5q1 5 9.5 31.5t10.5 30.5q0 2 10 15t11 15q26 42 49 133t41 128l18.5 34t20 38.5t16 35t14.5 39.5q3 4 9 27l12.5 49.5t6.5 27.5l7 13q7 12 7 14q1 1 4.5 17t4.5 18q5 24 28 65t25 46q19 33 35 84v2q0 6 -3.5 17t-3.5 19 q0 15 14.5 29.5t14.5 24.5q0 17 -38 17l-88 -39q-10 -4 -16 -4q-31 0 -46 23l27 55q13 32 16 35q7 13 31 28.5t30 21.5l27 26.5t28 26.5q10 9 44.5 30.5t47.5 39.5q0 2 6 14t6 15q1 1 3.5 11t7 23.5t11.5 20.5q1 1 4 9t7.5 18t7.5 15q3 3 17.5 22.5t26.5 29t27 10.5 q22 7 43 7t47 -7q5 -3 13 -12.5t8 -15.5v-117q0 -1 11 -2.5t27 -3t24 -3.5q1 0 14 1t21 1q12 0 14 -2q7 0 41 -19q16 -8 21 -15l26.5 -20l29 -22.5t23 -23.5t18.5 -31q6 -13 10.5 -43.5t11.5 -45.5q0 -77 7 -126v-40q-1 -5 -4.5 -24l-6.5 -34t-4 -19q-4 -13 -21 -27t-21 -22 q-8 -12 -13 -47t-15 -50q-4 -4 -15.5 -12.5t-18.5 -14.5q-2 -4 -13.5 -19t-14.5 -16q-1 -2 -20 -14t-21 -15q-13 -10 -33.5 -37t-36.5 -38q-15 -5 -22 -7q-1 -1 -12 -4t-14 -3q-2 -1 -17.5 -14t-17.5 -13q-2 -1 -17 -8t-17 -8q-1 0 -16 -6.5l-29.5 -12.5t-17.5 -7 q-13 -5 -27.5 -8t-25 -4t-30 -1.5t-29.5 -1.5h-81q-7 -9 -25 -20.5t-25 -19.5q-1 -2 -4.5 -7.5l-6.5 -10t-3 -5.5q-5 -8 -5 -46l-27 -81.5t-31 -91.5q-25 -45 -27 -58v-20v-7l-19 -40l-4 -40q0 -25 16 -42.5t35 -26t35 -23.5t16 -36q0 -10 -6 -25t-14 -15h-173 q-26 16 -78 16q-26 0 -66.5 -8t-61.5 -8q-7 0 -13.5 1.5l-11 2.5t-10.5 5t-9 5.5t-9 7.5l-8 8t-8.5 9.5t-8.5 9.5z" />
<glyph unicode="q" horiz-adv-x="942" d="M146 244q0 -19 20.5 -27.5t43.5 -8.5q31 0 83.5 31t84.5 31q76 82 166 154q12 8 21 19q7 9 16 25t18 26.5t21 17.5l14 7q13 7 14 9q19 14 31 46t12 59v14q0 74 -40 74q-75 0 -100 -20q-1 -2 -14 -15.5l-14 -14.5q-1 0 -17 -5.5t-18 -6.5q-9 -5 -29.5 -21t-27.5 -20 q-9 -9 -35 -18t-34 -19q-10 -17 -12 -19q-10 -10 -26.5 -24t-29 -26t-20.5 -28q-2 -2 -12 -22l-9 -19l-29 -28t-28 -29q-2 -2 -10 -18t-9 -22q-5 -11 -16 -45.5t-12 -46.5q-3 -7 -3 -10zM206 -612q-18 0 -53 -8t-54 -8q-30 0 -67 12t-37 38q0 20 20 32.5t43 14.5q9 2 31 6 t30.5 6t23.5 7t27 12.5t26 18.5q3 1 9 7.5t7 6.5v24v10q0 5 24.5 20t28.5 29q1 2 4.5 20.5t4.5 20.5q0 5 5.5 16t8.5 12q22 61 55 139q0 8 7 15q1 4 17.5 32t17.5 30q5 28 20 64q5 12 19 34t22 41.5t8 39.5q0 15 -8 29t-23 14q-23 0 -59.5 -19.5t-48.5 -22.5q-42 0 -77 -7 h-7h-7q-10 0 -56 3.5t-53 3.5q-36 28 -50 35l-14 7q-8 8 -9 8q0 43 -5 70l-3 9q-4 9 -4 10v8v7q4 21 10 63t11 62q0 30 7 48q0 1 6.5 10.5t6.5 10.5q1 1 2.5 5t3.5 6.5t3 2.5l-1 8q-1 8 -1 13q0 7 2 7q1 11 19.5 32t20.5 25q1 1 10 19t11 20q2 4 19.5 20.5t23.5 21.5 q1 1 9.5 14t9.5 14q2 4 19 17t24 17q1 2 10 8.5t9 7.5q6 8 14 25.5t17 26.5t26 10l56 55l9 3q9 3 10 3q1 1 5 4.5t7 6.5t3 4q19 5 28 7q15 3 68.5 23t83.5 20q4 0 12 -1h9q3 0 83 -21l21 -5q43 -35 91 -64q2 -2 11 -2q13 0 24.5 11t18.5 24.5t21 24.5t31 11q42 0 48 -28 q6 -36 6 -55q-1 -14 -17 -30t-18 -27q-5 -5 -5 -42q-2 0 -3.5 -2.5t-3 -5.5t-2.5 -4q0 -1 -7 -10.5t-7 -11.5q-1 -2 -4 -17t-3 -18q0 -1 -5 -6.5t-10 -12t-5 -9.5l-28 -41q-2 -3 -8 -20t-6 -20q-5 -12 -15 -29q-3 -5 -13.5 -18.5t-14.5 -21.5q0 -21 -7 -30q-28 -41 -28 -43 q-7 -35 -7 -47l-55 -84q0 -34 -7 -69q-4 -23 -40 -50t-41 -47q-7 -10 -7 -49q-15 -61 -23 -83q-5 -15 -5 -21q-2 -2 -9 -15l-6 -12q-2 -7 -7.5 -31t-12.5 -37t-22 -22l-62 -127q0 -29 -7 -46q0 -10 -16 -23l-12 -12q-7 -10 -7 -22q0 -4 -3.5 -20.5t-3.5 -19.5v-2 q0 -7 21 -28q17 -20 21 -20h29h12q15 -3 46.5 -28.5t31.5 -37.5q0 -8 -6.5 -18t-15.5 -10h-97q-6 -10 -17 -10h-11q-13 0 -36 5.5t-33 6.5q-4 1 -28.5 4.5t-28.5 4.5h-35h-12q-1 0 -10.5 3.5t-11.5 3.5h-18z" />
<glyph unicode="r" horiz-adv-x="729" d="M109 95v4q0 2 3.5 13.5t3.5 12.5v10q1 10 1 17t-0.5 17.5t-0.5 12.5q15 12 20.5 27.5t7 36.5t6.5 33q11 25 28.5 73t27.5 72q1 3 10.5 18t11.5 16q6 14 6.5 31.5t5 30.5t23.5 28v25q0 67 -30 67h-5q-7 -2 -25.5 -9t-30.5 -10t-27 -3h-8q-14 0 -21 7q0 3 -3.5 21t-3.5 22 v7q0 16 8.5 35t24.5 40t29 36t33 36t24 26q0 1 5.5 10t6.5 10q57 49 120 49q24 0 41 -7q7 -2 22.5 -10.5t17.5 -10.5q7 -7 7 -41v-92q0 -1 3.5 -12t3.5 -14q4 -6 8 -14h2h5q36 19 56 40q0 3 5.5 12t8.5 10q4 5 9.5 9.5t13 10l11.5 8.5q50 41 62 57q4 4 11.5 16t16.5 19 q46 28 87 28q6 0 12.5 -2.5t11 -5.5l11.5 -8l10 -7q2 -1 11 -6.5t11.5 -7.5t10 -7t10.5 -7.5t8.5 -8t7.5 -10t5 -10.5t4 -12.5t1 -13.5q0 -37 -23.5 -74t-59.5 -37q-20 0 -51.5 31.5t-49.5 31.5q-22 0 -45 -21q-36 -33 -69 -69q-7 -27 -19.5 -42.5t-32.5 -31t-32 -30.5 q0 -2 -3.5 -7.5t-3.5 -6.5q-13 -58 -13 -78q-5 -16 -8 -19q-4 -10 -26 -43q-4 -4 -12.5 -18.5t-10.5 -16.5q-3 -6 -9.5 -26t-14 -36t-15.5 -21q0 -4 -3.5 -27.5t-3.5 -27.5q-4 -4 -16 -28q-8 -17 -18.5 -51t-15.5 -47q-2 -2 -11 -17t-10 -18l-6.5 -13l-10.5 -20.5t-9 -13.5 q-4 -1 -28 -20t-36 -30q-17 -12 -28 -12q-7 0 -15 4t-12 7.5t-13 13l-10 10.5l-3 6q-2 5 -2 6q0 13 -7 62v5z" />
<glyph unicode="s" horiz-adv-x="624" d="M107 9q-4 0 -12 -4.5t-14 -4.5h-8q-6 4 -83 42q-54 28 -62 43v27q0 132 76 132q9 0 17.5 -3.5t15.5 -8t15.5 -13.5l13.5 -14.5t12.5 -18t10.5 -17t10 -17.5t8 -14q2 -3 15 -27.5t13 -25.5q9 -16 38 -16q40 0 75 16q41 18 41 155q0 20 -4.5 43t-9.5 38l-14 41.5l-13 38.5 q-3 8 -16 82q-15 97 -19 133v71q0 5 10 27t16 30l62 62q11 8 50 42q12 9 24 13.5t31.5 8t26.5 5.5q2 0 11.5 3.5t10.5 3.5h11h10q10 -3 35 -22q1 0 9 -2.5t11 -2.5t20.5 -3t19.5 -4q3 -1 19 -14t19 -14l13 -10q14 -9 20.5 -16.5t6.5 -15.5q7 -21 7 -43q0 -21 -7 -41 l-20.5 -9l-22 -9.5t-21 -6.5t-23.5 -3q-27 0 -50 14t-36 31t-29.5 31t-32.5 14q-20 0 -41.5 -16.5t-21.5 -35.5v-3q0 -1 3 -10l4 -9q1 -11 2.5 -31.5t3.5 -37t6 -30.5q1 -1 8 -14t8 -14q5 -18 10 -59t9 -60q27 -92 28 -104q15 -73 15 -100v-38q0 -2 -3.5 -17t-3.5 -18v-5 v-16l-5 -4l-8.5 -8.5t-9 -8.5t-4.5 -5q-30 -45 -35 -50q-11 -9 -43 -30.5t-42 -24.5q-4 -6 -74 -14h-33q-18 0 -42.5 8t-37.5 8z" />
<glyph unicode="t" horiz-adv-x="622" d="M17 64v21q1 1 10.5 23t10.5 23q0 13 7 23q0 14 7 35q7 20 27 55q2 2 10.5 17t8.5 18q7 10 24.5 49t33.5 54q5 11 44 88t45 92q19 39 35 121q5 20 5 35q0 13 -10 21t-38 17l-22.5 6.5t-23 7t-17.5 7t-14 10t-4 12.5q0 9 1.5 15.5t5.5 11.5t7.5 8.5t11 6t11 4t13 3.5 t12.5 3q1 2 18 9l16 7q8 2 26.5 5.5t32 8t24.5 12.5q50 37 90 112q1 1 6.5 13t7.5 13q26 30 62 50.5t73 20.5q47 0 47 -74q0 -19 -15.5 -49t-15.5 -47q0 -26 15.5 -32.5t46.5 -6.5h16q33 0 51 -10t18 -44q0 -36 -28 -57q-34 -19 -41 -19h-104q-17 0 -33.5 -11t-31 -31.5 t-24 -37.5t-21.5 -42.5l-15 -31.5q-5 -5 -48 -74q-15 -24 -31.5 -71t-24.5 -63q-2 -1 -11 -15.5t-9 -18.5q-6 -13 -10.5 -27.5l-9.5 -32l-8 -28.5q-3 -7 -15.5 -20.5t-12.5 -21.5q0 -16 12 -26t30 -10q22 0 49 19t41 24q23 0 41 7q1 0 10.5 3.5t10.5 3.5h4q26 0 26 -47 q0 -1 -2 -8t-2 -9q-47 -57 -192 -139l-30 -13.5t-27.5 -13t-21.5 -14t-25 -21.5q-6 -1 -45 -6t-45 -6h-12q-31 0 -47.5 25.5t-16.5 57.5z" />
<glyph unicode="u" horiz-adv-x="1059" d="M35 95q0 34 13 71t26 58.5t42 63.5t38 56q19 32 19 35q12 23 30.5 70t24.5 61q21 45 21 87q-1 0 -7.5 1t-9.5 1h-4q-13 -3 -28 -9.5t-21 -9.5t-25.5 -15t-21.5 -13h-4h-3q-7 2 -23 15t-21 19q7 14 9 21q9 21 15.5 29.5t26.5 24.5q1 2 7 5t6 4q1 0 4.5 3t4.5 3 q0 2 5.5 10.5t6.5 8.5q0 2 3.5 5t3.5 4q1 0 10 6t11 8q1 1 10 14t12 14q17 14 36 26.5t48 28t39 21.5q13 6 23 15q1 2 12.5 10.5t14.5 8.5q69 30 147 30q23 0 35 -15.5t12 -38.5v-17q0 -3 -14 -35q-4 -10 -15.5 -35l-18.5 -40t-18.5 -35.5t-23.5 -34.5q-1 -2 -17.5 -17.5 t-17.5 -18.5q-7 -8 -12.5 -18t-12.5 -24t-9 -19q-16 -25 -23 -28q-6 -11 -16 -40.5t-18 -43.5q-7 -13 -28 -47.5t-34 -60.5t-20 -52q0 -2 -2 -13t-3.5 -22t-2.5 -13q-2 -7 -12.5 -21.5t-10.5 -28.5q0 -10 6 -19t17 -9q13 0 22.5 8t18.5 22.5t14 19.5q7 6 25 11t25 10 q54 43 104 111q1 2 5 8t8.5 12t5.5 7q16 18 40 59.5t38 58.5q2 4 21.5 23l20.5 20q3 2 14.5 27.5t12.5 26.5q0 1 3.5 4.5t3.5 4.5q2 1 8 9.5t6 9.5l6 12t9.5 20t5.5 11q3 5 9.5 12.5t11 14t6.5 14.5q4 11 11 37.5t12 39.5t18 36.5t17 32.5q0 2 3 8t3 7q5 2 21.5 13.5 t18.5 14.5q3 1 21.5 17.5t20.5 17.5h24h26q6 -1 21.5 -10t19.5 -13q1 -1 3.5 -16t2.5 -18q2 -1 8 -14t7 -14v-2q0 -17 -10 -48t-11 -35q-2 -5 -5 -24.5t-8 -29.5q-1 -1 -6 -9.5l-9.5 -16t-5.5 -8.5q-9 -16 -17.5 -34.5t-17.5 -42.5t-14 -36q0 -1 -9.5 -19t-10.5 -22 q-4 -4 -18.5 -27.5t-16.5 -28.5q-7 -12 -7 -48q0 -1 -2 -3.5t-4 -5.5t-3 -5q-13 -17 -13 -21q-2 -3 -2 -17q0 -15 2 -17q-36 -30 -44 -46q-5 -11 -5 -23q0 -1 1 -4t1 -5q0 -10 12 -40h7q10 0 42.5 41.5t72 83t67.5 41.5h5.5t6.5 -0.5t6 -2.5t1 -4l-12 -90q-15 -13 -28 -34 q-2 -2 -8 -18l-6 -17q-1 -1 -6 -7.5t-9.5 -13t-5.5 -8.5q0 -1 -3.5 -9.5t-3.5 -9.5t-34 -35q-1 -1 -11 -7.5t-12 -7.5q-16 -14 -40 -40.5l-39.5 -42.5t-43 -29t-60.5 -13q-39 0 -67 28.5t-28 66.5l1 24q0 1 7 13t7 15q1 3 4 23t3 24q2 12 11.5 37.5t9.5 43.5v4l-7 13h-3 q-6 0 -15.5 -5.5t-17.5 -11t-19 -14t-14 -10.5q-16 -13 -34.5 -39.5t-27.5 -36.5q-7 -9 -28.5 -30.5t-27.5 -25.5q-8 -8 -48 -13q-11 -5 -24 -18t-19 -17q-10 -9 -29 -16.5t-25 -11.5q-70 -43 -113 -57h-1h-5l-13 7q-51 46 -66 69q-18 28 -18 59z" />
<glyph unicode="v" horiz-adv-x="1070" d="M303 246q0 6 0.5 18.5t1.5 22.5t1 11q0 13 2.5 21t8 17.5t8.5 18.5q1 1 4 12.5t3 14.5q8 26 20 54.5l27.5 64l23.5 54.5q4 9 33 56.5t29 73.5q0 27 -23 49t-49 22h-18q-35 -10 -53 -33.5t-23.5 -50t-11.5 -52t-26 -42t-59 -16.5q-48 0 -66 26.5t-18 77.5q0 65 41 125 q5 7 11.5 12.5t17.5 12.5l14 9q7 8 35.5 37t34.5 32q7 8 27 13.5t26 9.5q8 4 50 28l40 19h168l47 -19q36 -17 36 -82q0 -45 -28 -78q-1 -3 -14 -15.5t-13 -13.5q-8 -7 -35 -69q-1 -1 -8 -7t-8 -7q-10 -14 -16 -44t-10 -39q-3 -4 -14.5 -24.5t-12.5 -25.5q-1 -1 -3 -4 t-3.5 -5.5t-2.5 -2.5q0 -21 -7 -35q0 -1 -9.5 -13.5t-9.5 -14.5v-13v-35q0 -12 -8 -28q0 -4 -3.5 -46t-3.5 -51v-20q0 -32 53 -51.5t94 -19.5q10 0 19 7l60.5 50t65.5 55q18 15 31 49.5t24 47.5l35 35q41 54 55 83v7q0 14 -6.5 36.5t-7.5 32.5v43q-1 14 -22 42t-21 48 q0 30 22.5 111t38.5 81h5q7 0 33 -2.5t28 -2.5q66 -15 77 -35q0 -1 5 -15.5l9.5 -28.5t4.5 -20v-7v-20q1 -1 7.5 -20t8.5 -22v-5v-7q0 -3 -3.5 -19t-3.5 -17q-1 -4 -8 -45t-8 -45q0 -15 -6 -21q-56 -123 -97 -196q-1 -1 -4 -5.5t-3 -6.5q-5 -3 -5 -22q-3 -1 -15 -12.5 t-15 -15.5t-25 -41.5t-23 -39.5l-14.5 -14.5l-15.5 -15.5q0 -18 -5 -20l-7 -14q-1 -2 -17 -17t-17 -18l-7 -12q-16 -28 -56.5 -69.5t-68.5 -56.5q-8 -5 -29 -5q-4 -3 -31 -13t-32 -10q-27 -2 -36 -2q-4 0 -20 1t-20 1q-1 2 -9.5 8t-10.5 6q-1 1 -17.5 7t-17.5 7 q-48 48 -61 64q-65 65 -65 161z" />
<glyph unicode="w" horiz-adv-x="1598" d="M937 502v-7q0 -24 15 -24q13 0 35 22q7 7 7 14q0 1 -1 5.5t-1 8.5v7q2 7 17.5 15.5t17.5 18.5q4 6 8 50v11q0 24 -26 24q-20 0 -29.5 -13t-14 -39t-7.5 -33q0 -2 -9.5 -20t-9.5 -21q-2 0 -2 -19zM340 90q-1 5 -16 64t-26 88l-7 28q3 24 24 65t25 54q4 9 9.5 30.5 t11.5 32.5q40 59 64 126q0 1 2.5 12.5t2.5 13.5q2 2 15 17t14 17q5 7 5 18v14q0 46 -29 46h-5q-2 0 -20 -3.5t-20 -3.5h-7q-18 0 -53 3.5t-52 3.5q-38 0 -55.5 -35.5t-14.5 -76.5q1 -17 14.5 -58.5t13.5 -59.5q0 -30 -22.5 -57.5t-53.5 -27.5q-10 7 -16 7l-19 16t-12.5 16 t-7.5 25q-7 43 -7 97q0 42 7 69q5 25 62 104q1 2 13.5 22.5t14.5 27.5q1 3 10.5 20.5t11.5 19.5q0 7 5 7q88 61 92 62q3 5 35 16q5 0 12 7h91q17 0 19 7h154q19 -16 28 -21q16 -16 16 -36q0 -16 -8.5 -33t-23 -36t-19.5 -28l-15 -35q0 -16 -5 -41q0 -8 -7 -12 q-1 -2 -7.5 -8.5t-6.5 -7.5v-9v-26q-5 -10 -9 -13q-1 -4 -12.5 -19t-13.5 -21q-7 -34 -8 -35q0 -2 -3 -7.5t-6 -9.5l-3 -5q-7 -7 -7 -16q-3 -7 -10.5 -21t-10.5 -22l-7.5 -19.5t-6.5 -23t-2 -23.5q0 -17 4 -37.5t7.5 -31t13.5 -37.5t12 -32q0 -9 7 -30q0 -2 3.5 -20t3.5 -19 q1 -9 12 -9h8q12 0 30 7t29 7q8 0 21 -2.5t21 -2.5h10q21 0 69 12q13 4 24 20.5t19 20.5q5 5 26 15.5t28 12.5q9 9 9 24l-2 10q-11 81 -19 113q0 1 -2 5.5t-4 8.5t-1 5q0 3 6 22.5t6 20.5v111q0 4 7 42t7 43v15v26q0 18 9 40q19 53 53.5 89t91.5 72q26 15 64 15 q40 0 91.5 -33.5t60.5 -73.5q12 -87 12 -109q0 -34 -12.5 -93t-28.5 -80q-33 -48 -62 -107q-8 -12 -30 -35.5t-35 -45t-13 -44.5q0 -10 6 -19t16 -19t14 -15q0 -2 14 -30q6 -8 21 -20h34q75 0 118 43q11 10 43.5 42l34.5 34q8 12 29.5 54.5t23.5 54.5l35 35q2 5 2 6l-2 9 q-2 11 -7.5 48t-11.5 56q-9 26 -34.5 73t-41.5 88.5t-16 78.5v2q10 28 17 44t20.5 34.5t32.5 26.5t46 8q45 0 57 -21q30 -40 35 -57q2 -1 5 -10l3 -9q0 -6 3.5 -33.5t3.5 -29.5v-103v-104q-1 -17 -13 -36.5t-14 -27.5q0 -2 -3.5 -16.5t-3.5 -18.5q-24 -155 -69 -244 q-14 -22 -78 -97q-109 -131 -242 -131q-22 0 -90 28q-4 1 -42 20l-104 104q-2 7 -15 7q-10 0 -28 -12q-40 -40 -48 -50q-1 -1 -10 -14t-11 -14q-1 -2 -17 -4t-18 -3q-15 -6 -53 -35.5t-64 -33.5h-61h-40q-48 0 -79.5 10.5t-63.5 44.5q0 1 -9 14t-10 16q-4 0 -9 5z" />
<glyph unicode="x" horiz-adv-x="935" d="M-93 47q0 20 7 43q4 19 10.5 35t21.5 35l20 25.5t30 30.5l27 26q3 0 10 1t8 1q17 0 42.5 -18t41.5 -18q24 0 67 33t48 36q76 43 117 85q2 12 15 47t13 58v24q0 1 -3.5 7t-3.5 7v49q0 6 -14 69q-8 43 -23 49q-4 1 -8 1h-3q-3 -4 -18.5 -18.5t-16.5 -16.5q-9 -11 -20 -32 t-22 -30.5t-34 -9.5q-28 0 -28 84q0 13 1 24.5t5.5 24t6.5 19t10.5 20.5t11 17.5l14 20.5l13.5 20q7 7 7 15q2 2 5 6.5l5.5 8.5t3.5 4q3 4 25 26t24 25l7 12q31 41 112 41q13 0 47 -19q39 -25 48 -85v-17v-45q1 -2 4 -19t5 -22q5 -35 22 -35q13 0 27 10t28 26t18 19t17 14.5 l27.5 25.5t17.5 16q1 1 10 8l16.5 13t8.5 6l43.5 43.5t51.5 49t50.5 32.5t61.5 16t35 -2q4 -3 43 -42q1 -1 4 -5.5t3 -6.5v-92l-3 -5q-3 -6 -7 -12.5t-5 -9.5q-25 -25 -26 -28q-17 -14 -44 -48q-36 -44 -58 -44q-1 0 -5.5 1t-5.5 1q-4 5 -19.5 18.5t-21.5 16.5q-18 3 -25 3 l-22 -3q-4 -1 -18.5 -16.5t-16.5 -18.5q-4 -1 -18 -10t-16 -11q-52 -30 -92.5 -74.5t-40.5 -91.5q0 -8 3 -22t3 -21q0 -12 -3 -36t-3 -37q0 -20 6.5 -59.5t6.5 -57.5q3 -9 16 -9h10q23 0 43.5 18.5t32.5 40.5t25 40.5t22 18.5q26 0 26 -56l-2 -19q0 -8 -5 -29.5t-8 -27.5 q-1 -3 -18.5 -38t-21.5 -46q-2 -1 -9 -11l-7 -9q-8 -13 -21.5 -40t-22.5 -42t-28.5 -28.5t-44.5 -13.5q-55 0 -70 5q-25 20 -48 43q-20 22 -32.5 92.5t-36.5 87.5q-20 14 -26 14q-13 0 -30 -14q-38 -30 -74 -90q-12 -14 -39.5 -34t-38.5 -30q-1 -1 -10 -9.5t-11 -9.5 q-37 -42 -55.5 -58.5t-51 -27.5t-83.5 -11h-10q-58 44 -63 82z" />
<glyph unicode="y" horiz-adv-x="805" d="M-496 -483q0 54 95 54q17 0 44.5 -4.5t43.5 -4.5q26 0 38 5.5t28 24.5q1 0 7 10t7 10q8 12 20 18t30.5 10t25.5 7q5 0 35 23l41 26q2 1 20.5 23.5t21.5 24.5l32.5 31l36 34t30.5 31t32 37q7 9 7 12q26 61 43 111q0 3 2.5 18.5t3.5 16.5q2 2 11 20.5t9 20.5q1 1 4 14t5 14 q0 2 9 18l10 16q7 14 7 35q2 18 14 173q50 71 50 189v17q0 60 -33 60q-16 0 -50 -19t-54 -19h-3q-3 2 -21 8t-21 8q-7 14 -7 19q0 20 30 50q2 2 16.5 13.5t17.5 12.5q10 9 22.5 30t17.5 27l57 56q2 3 30 34t31 35q2 1 10.5 9.5t10.5 9.5q4 2 24 8.5l37 12.5t22 8l6 3 q7 2 9 2q12 4 18 4q31 0 44 -26t13 -61q0 -18 -10 -37t-11 -30v-42v-15q0 -23 -7 -40q0 -1 -5.5 -17t-9.5 -30t-4 -17q-1 -4 -4.5 -40.5t-4.5 -40.5q0 -4 -7 -29t-7 -28v-26v-13q0 -44 23 -44q21 0 47 43q17 25 42 71t34 60q8 15 19 46.5t15 41.5q3 4 9 15.5t7 12.5 q2 4 23.5 29t23.5 28q6 4 22 42q0 1 2.5 9t6 16t3.5 9q10 10 30 35q1 3 12.5 21t14.5 19q3 4 21.5 12.5t25.5 9.5h16h13q33 -11 48 -29t15 -50q0 -49 -16 -75q-44 -66 -53 -81q-30 -25 -35 -35q-15 -18 -62 -91q-17 -23 -54.5 -68.5t-56.5 -70.5q-1 -1 -8.5 -9.5t-7.5 -9.5 q0 -4 -5 -15t-7 -12q-6 -12 -29 -35q-16 -39 -21 -42q-45 -72 -123 -160q-20 -14 -29 -28q-9 -11 -20.5 -34.5t-19.5 -34.5q-3 -4 -24 -27.5l-38.5 -43t-22.5 -26.5l-17 -17t-17 -18q-17 -20 -50.5 -68t-53.5 -70l-97 -97q-10 -29 -35 -49q-16 -12 -55.5 -39.5t-61.5 -44.5 q-2 -1 -24 -20t-23 -20q-11 -7 -18 -10t-15.5 -5.5t-16.5 -5.5q-12 -5 -45 -17q-46 -21 -128 -38h-49q-1 0 -9.5 4.5t-10.5 7.5q-35 29 -35 93z" />
<glyph unicode="z" horiz-adv-x="1098" d="M253 137h-14q-2 0 -9 -6l-6 -6q0 -1 -2.5 -2.5t-6.5 -3.5t-5 -3q-15 -13 -35 -41t-39.5 -42t-52.5 -14h-15q-15 0 -24 9q-8 6 -26.5 23t-23.5 23q-13 19 -13 44v13q0 41 28 75l7 7q82 48 111 69q11 8 21 22q2 2 27.5 13.5t29.5 14.5q5 3 27 21l16.5 17t18.5 18 q16 13 45.5 32.5t51.5 37t41 40.5q1 1 10 17.5t11 17.5q7 11 21 22q1 1 14 7l13 5q35 24 70 63v14q0 42 -34 70t-77 28q-23 0 -75.5 -13t-62.5 -30q57 -49 57 -104q0 -39 -27 -58.5t-69 -19.5q-2 0 -9 2t-8 2q-1 1 -19.5 13t-22.5 15t-17.5 15t-17.5 19.5t-9 20.5t-5 26v7 q34 105 96 188q3 1 8.5 10t5.5 11q2 2 22 18t21 17l23.5 23.5t23.5 24.5q12 9 31 9q2 0 11 -1l8 -1q48 0 97 -7q11 -7 22.5 -10.5t29.5 -5.5t24 -3q16 -8 28 -16l14 -13q36 -21 107 -21h17q4 1 13 18l10 16q2 6 15.5 21.5t19.5 20.5q8 9 32 9h14q3 -3 30 -16q1 -1 23.5 -6.5 t24.5 -7.5q18 -8 30 -41.5t12 -58.5v-12q0 -18 -7 -28q-12 -15 -36.5 -40.5l-33.5 -35.5q-10 -19 -13 -19q-3 -4 -18 -18.5t-17 -17.5q-10 -8 -17 -11.5t-18.5 -7t-21.5 -7.5q-5 -7 -47 -28q-16 -11 -57 -29q-7 -4 -9 -20.5t-10 -19.5q-2 -2 -10.5 -5.5l-16 -6.5t-7.5 -4 q-9 -3 -26 -11.5l-30.5 -15.5t-14.5 -7q-6 -5 -29 -29t-27 -29q-11 -4 -34 -19q-2 -1 -14.5 -14t-13.5 -13q-2 -2 -11 -8t-10 -6q-27 -27 -29 -28q-7 -10 -7 -22q0 -23 21 -42q1 -1 2.5 -5.5t5.5 -8.5q35 -31 42 -34q1 -1 23.5 -3t24.5 -4q12 -4 14 -5q54 -33 132 -50h5h1 q34 19 71 34q10 5 23 7.5t19 4t10.5 10t4.5 25.5q0 16 -15.5 45t-15.5 45q0 51 28 86q3 2 8.5 7.5l9.5 9.5t5 4h76q7 -6 24.5 -10t23.5 -6q39 -9 54 -56t15 -99q0 -49 -20 -80q-5 -5 -32 -37.5t-31 -38.5q-1 -1 -10 -17t-11 -18q-1 -2 -4.5 -7t-5.5 -9l-3 -4 q-21 -11 -21 -14q-2 -1 -12 -15l-9 -13q-18 -17 -65.5 -39.5t-69.5 -22.5q-32 0 -64 10t-76 31.5t-59 27.5q-2 1 -16.5 4t-17.5 3q-3 2 -22.5 18t-21.5 17q-1 1 -12 6.5t-14 6.5q-4 3 -12 9.5t-15.5 12t-15.5 8.5q-3 1 -11.5 2.5t-16 3.5t-12.5 6l-14 12t-11.5 9.5t-11 4.5 t-18.5 2z" />
<glyph unicode="{" horiz-adv-x="825" d="M485 -119q0 59 2 59l92 201v16q0 46 -13.5 86t-33 69t-54 55.5t-63.5 43.5t-76 35t-77 27.5l-78 24.5q-29 9 -43 13q-19 8 -24 17.5t-5 27.5q0 9 3 17t6 12.5t12.5 10.5t12.5 7.5t17.5 7.5t16.5 7q117 39 121 41q18 7 79.5 37t80.5 41q48 36 65 53q7 8 11 20t4 20.5 t-0.5 24.5t-0.5 19q0 94 -14 143q-8 27 -26.5 68t-29.5 77t-11 78q0 117 85 213.5t197 96.5q46 0 88.5 -17.5t42.5 -56.5q0 -42 -20 -65t-49.5 -27t-64.5 -8t-64.5 -9.5t-49.5 -31.5t-20 -72q0 -51 19 -108.5t42.5 -100.5t42.5 -99t19 -104q0 -32 -10.5 -60t-25.5 -49 t-41.5 -41.5t-48 -33.5t-57 -28t-56 -22.5t-57.5 -20t-50 -17.5q-19 -7 -27 -14q-2 0 -2 -7q0 -8 40 -22.5t97 -38.5t113.5 -58t96.5 -92t40 -129q0 -108 -14 -145q-12 -30 -42 -81.5t-47.5 -95t-17.5 -87.5q0 -48 19 -76t47 -35.5t61 -12t61 -7.5t47 -21.5t19 -54.5 q0 -34 -26 -60t-62 -26q-64 0 -166 66q-79 56 -106 123.5t-27 175.5z" />
<glyph unicode="|" horiz-adv-x="495" d="M229 -427v62q0 151 -11 308q0 19 -6 64.5t-6 72.5l18 45q0 9 -9 27t-9 33q7 75 7 161q0 64 -5 114v102q-17 69 -17 137q0 83 15 154q0 1 -6.5 17t-7.5 23l14 50q0 6 -7 26.5t-7 33.5l7 116l-15 343q0 36 22 40q32 5 45 5q15 0 54 -14q0 -2 2.5 -20.5t2.5 -24.5q5 0 9 -31 v-21l10 -47l-26 -138l16 -123l-9 -45q12 -40 12 -47q0 -21 -12 -38q12 -14 21 -81.5t9 -101.5l-21 -142q0 -17 10.5 -55.5t10.5 -53.5q0 -22 -10.5 -67.5t-10.5 -63.5q0 -19 7.5 -60.5t7.5 -62.5l-5 -38q0 -35 -0.5 -55t-1 -26t-0.5 -7q6 -10 20.5 -81t14.5 -89l-16 -59 q0 -13 3.5 -27t3.5 -19l-20 -142q0 -17 6 -49t7 -53q-10 -3 -10 -18v-3q0 -17 -2.5 -28.5t-16.5 -23.5t-41 -12q-19 0 -29 5.5t-18 27.5z" />
<glyph unicode="}" horiz-adv-x="835" d="M62 -445q0 45 29 68.5t70 30l82.5 12.5t70.5 27t29 62l-2 13q-14 70 -53 200q-8 25 -27 64t-30 72.5t-11 70.5q0 63 44.5 125.5t103.5 91.5q25 13 110 31.5t117 48.5q-13 19 -38 31t-60.5 22t-48.5 15q-105 42 -179.5 114t-74.5 170q0 48 21.5 105.5t47 103t47 105.5 t21.5 112q0 4 -1 23.5t-1 23.5q-16 26 -48.5 37t-67 12.5t-67 6t-53 24.5t-20.5 60q0 44 28.5 58.5t79.5 14.5q98 0 166.5 -53.5t98.5 -133.5t30 -175q0 -51 -14 -81.5t-36 -58t-32 -57.5q-3 -9 -5 -17t-4 -13.5t-2.5 -12.5t-1.5 -10.5t-1 -12.5v-12v-15v-17q0 -42 18 -78.5 t53 -66.5t64 -48.5t74 -44.5q12 -7 18 -10q47 -27 90.5 -37.5t110.5 -15.5q27 -12 27 -47t-27 -53.5t-74.5 -30.5t-58.5 -17q-20 -8 -82 -38.5t-78 -41.5q-42 -22 -81.5 -64t-39.5 -81v-12q18 -114 27 -148q1 -4 10 -21.5l19.5 -37t11.5 -21.5q14 -37 14 -94q0 -5 -1 -22 l-1 -17q-2 -16 -12 -68t-14 -65q-20 -67 -103.5 -120.5t-157.5 -53.5q-40 0 -82.5 16.5t-42.5 51.5z" />
<glyph unicode="~" horiz-adv-x="879" d="M134 497q0 17 3.5 30t13.5 25t16.5 18.5t23.5 19.5t23 19l17 17q5 4 19.5 13.5l25.5 17t12 7.5h32q5 0 26.5 4.5t28.5 7.5q3 0 20 3.5t18 3.5q26 0 99 -19q13 -3 32.5 -16t50.5 -13q105 0 216 97h47q10 0 10 -31v-6q0 -22 -10 -50q-25 -67 -54.5 -90t-108.5 -45 q-17 -4 -36 -12t-35.5 -12.5t-40.5 -4.5h-52q-19 2 -55.5 21t-67.5 19q-78 0 -126 -21q-13 -4 -48.5 -30.5t-60.5 -26.5q-16 0 -27.5 18.5t-11.5 35.5z" />
<glyph unicode="&#xa1;" horiz-adv-x="551" d="M837 1498q6 -43 6 -105v-26q0 -1 -4 -7.5t-9 -15.5t-7 -12q-2 -2 -5.5 -8l-6 -10t-6.5 -7t-8 -3q-1 0 -13 -0.5t-20 -0.5t-21 -6t-14 -6q-27 -16 -62 -16q-24 0 -40 2q-5 7 -26 20q-3 0 -14.5 6t-12.5 8q-4 3 -35 56q-1 1 -4 9t-3 10t-1 5l-1 3q0 12 10 31.5t11 29.5 q2 7 2 19v14q0 14 5 24q17 17 22 21q6 5 24.5 17t20.5 14q18 10 115 10q1 0 12.5 -4.5t14.5 -7.5q0 -1 12 -11.5l28.5 -25l23.5 -20.5q0 -2 2.5 -4.5t3.5 -2.5zM558 886l-2 -2q-1 -1 -11.5 -13.5t-12.5 -14.5l-10 -21t-9 -20q-10 -23 -21 -66t-20 -66q-25 -50 -40 -95 q-2 -4 -11.5 -42.5t-11.5 -42.5q-3 -6 -3 -8q-3 -8 -12 -21.5t-12 -20.5l-2 -3q-4 -10 -11 -30.5l-12.5 -36t-6.5 -16.5q0 -2 -1.5 -14.5t-1.5 -13.5q-2 -2 -2 -3l-2 -4q-1 -2 -12 -20t-12 -20l-67 -161q-24 -43 -80 -90.5t-97 -47.5q-55 0 -74 69q0 4 -1 16l-1 12q3 3 5 12 q2 5 5.5 12.5t6.5 11.5l2 5q0 20 2 23q2 9 3 12q9 9 9 16q7 16 40.5 81.5t40.5 75.5q16 40 23 54q1 3 12 16l12 13q2 2 7.5 11.5l12.5 21.5t10 16l32 65t32 68q4 12 11.5 39.5t13.5 43.5q1 1 8.5 18.5t11.5 21.5q15 10 31 31t22 36q6 11 12 43l24 40q1 2 8 10.5t8 10.5 l17 26.5t20 30t20 23t27 19.5t30 6q21 0 34 -23t13 -54q0 -23 -7 -40z" />
<glyph unicode="&#xa2;" d="M181 -78q0 13 3.5 24.5t10 24.5t9.5 23l2 8q-13 7 -45 33q-2 2 -17.5 14t-17.5 13q0 8 -7 32t-15 44l-7 21q0 2 -12 50q0 37 -1 76t-1 53.5t2 33t7 38.5q5 16 14 29q7 15 13 51t7 39q26 103 90 187q4 5 10.5 17t14 18.5t25.5 13.5q11 7 13 7q11 4 27 22.5t37 18.5 q25 32 63.5 47t60.5 15q17 17 56 20q4 10 7 15q17 42 24 83q7 36 18 44q11 9 35 9q27 0 42 -15v-38q-12 -12 -13 -40.5t-3 -33.5q-1 -7 -4.5 -11t-8.5 -7.5t-7 -6.5q41 -3 62 -3q8 -2 16 -5.5t17 -10l14.5 -10.5t14.5 -13.5l12 -12.5t13 -15l10 -11q9 -9 14.5 -26t6.5 -29.5 t1 -33.5v-22q0 -10 -32 -40.5t-56 -30.5q-58 0 -94 44q-5 6 -14 29.5t-18 42t-16 18.5q-2 1 -5 2t-5 2v-3l-1 -22q-6 -39 -28 -66q0 -4 0.5 -11t0.5 -9q0 -25 -15 -49.5t-15 -45.5q0 -30 -8 -48t-16.5 -26.5t-8.5 -15.5q-2 -21 -25.5 -56.5t-23.5 -59.5q0 -37 -4 -44 q-6 -7 -10 -16.5t-6 -15.5l-2 -6q-1 -3 -10.5 -12.5t-12.5 -10.5q-4 -7 -8 -44.5t-10 -45.5q-1 -3 -8.5 -10.5t-7.5 -8.5q5 -11 5 -20v-4q18 2 35.5 21t34 47t23.5 36q4 8 18.5 25t22.5 31q10 15 42 15q18 0 27 -17.5t9 -39.5q0 -52 -28.5 -94.5t-90.5 -99.5 q-14 -13 -40.5 -22.5t-44.5 -20.5q-20 -11 -46 -13q-4 -6 -18 -20q-6 -6 -7.5 -13t-0.5 -13t-2 -15q-4 -11 -10.5 -17.5t-8.5 -19.5l-39 -15q-8 0 -21.5 21.5t-13.5 26.5zM417 716q-3 -4 -11.5 -19t-17 -25.5t-18.5 -15.5q-12 -14 -23 -43.5t-20 -41.5q-4 -7 -19 -28.5 t-23 -37t-12 -31.5q-3 -12 -6 -37.5t-9 -38.5q-2 -4 -15 -20.5t-13 -29.5q-5 -35 -5 -61q0 -5 -0.5 -14.5t0 -13.5t1 -11.5t2.5 -13t6 -15t9.5 -20t14.5 -24.5q0 -1 2 -3q1 1 8.5 12t9.5 14.5t6.5 12.5t6 16t1.5 14q0 10 14.5 55t25.5 49q14 26 37 120l28 66q20 91 29 97 l10 27q1 13 5 22.5t11 21t11 21.5q6 15 16 45q-40 -18 -62 -49z" />
<glyph unicode="&#xa3;" horiz-adv-x="1402" d="M499 249v33q0 2 -5 6t-7 4q-5 2 -28.5 7.5t-26.5 6.5h-134q-22 6 -28 15t-6 32v17q0 22 12 33q3 3 43 35q60 14 133 22h26h9q1 0 45 33q21 17 21 21l31 61.5t26 50.5q8 36 21 88l9 18.5l15.5 32t7.5 17.5q3 8 29 83t29 83q2 8 22 35q13 27 34 84t33 82q1 3 11 18t10 16 q12 18 12 23q1 2 5.5 27t5.5 26q3 5 33.5 34.5t33.5 33.5q13 33 23 45q0 1 7.5 8.5l15.5 15.5l10 10q2 1 10.5 20.5t9.5 23.5q35 32 90 90l5 2q6 3 10.5 5t5.5 3q2 0 7.5 5t6.5 5q19 16 59 39.5t64 42.5q54 19 109 19q42 0 112 -11q49 -32 66 -46q4 0 10 -11l57 -65v-23 q0 -48 -10 -78q-8 -17 -66 -36t-81 -19q-33 0 -77 37.5t-67 40.5h-8q-9 0 -19 0.5t-14 0.5t-12.5 -0.5t-16.5 -0.5h-7q-3 0 -17 -10t-16 -13q-49 -29 -111 -131q-65 -121 -66 -125q-12 -22 -16 -59.5t-8 -52.5q0 -3 -10 -21t-13 -22q0 -1 -4.5 -27t-5.5 -29l-6 -8 q-5 -9 -10 -16t-6 -9q-15 -26 -26 -54.5t-22.5 -64.5t-19.5 -57q-1 -4 -12.5 -35t-14 -38.5t-10.5 -33.5t-10 -39.5l-5 -35t-3 -40.5v-12q0 -22 12 -24h66q30 0 75 6t73 6q31 0 64 -14t33 -41q0 -33 -55 -80q-48 4 -71 4q-90 0 -220 -25q-8 -7 -33.5 -33t-31.5 -34 q-4 -5 -30 -56.5l-28 -55.5q-1 -2 -16 -22t-16 -22t-5.5 -16.5t-5.5 -16.5q-2 -8 -26.5 -54.5t-30.5 -55.5q-1 -6 -15 -40t-16 -38q-3 -7 -12.5 -26l-10.5 -21q-4 -5 -17 -16t-21 -21.5t-8 -22.5q0 -6 3 -6q35 -49 87 -55h57h21q77 0 90 -33q102 -12 122 -12h38 q102 0 157.5 23.5t93.5 99.5q12 23 12 67v16q0 16 -3 31.5t-6 25.5t-11.5 25t-12.5 21t-17 23.5t-17 23.5q-10 13 -27.5 39.5t-17.5 28.5q-2 15 -2 19q0 14 1 20.5t6.5 12t16.5 5.5l11 -3q11 -4 67 -44q0 -2 12 -10q7 -11 47.5 -66t41.5 -57q0 -5 3.5 -34t3.5 -35 q0 -10 1.5 -38t1.5 -30q-1 -12 -6 -37.5t-10.5 -47.5t-5.5 -24q-3 -5 -30.5 -36.5t-35.5 -39.5q-3 -3 -12.5 -17.5t-10.5 -16.5q-1 -4 -11 -22.5t-13 -21.5q-1 -2 -15.5 -6.5t-15.5 -5.5q-11 -2 -66 -33q-3 0 -16.5 -2.5l-26 -5t-14.5 -2.5q-1 -1 -10.5 -6.5t-11.5 -7.5 q-1 0 -25.5 1t-38.5 1q-21 0 -25 -2q-3 0 -22 -5t-21 -5q-4 1 -24 12t-23 12h-46h-19q-20 5 -127 41.5t-171 36.5l-24 -2q-3 0 -12 -14t-12 -19q-70 -100 -161 -100h-26q-32 14 -47 22q-8 6 -20.5 19t-12.5 16q-8 30 -8 57t8 54l33 33q5 3 22 14.5t30 19.5t16 9 q5 3 42.5 7.5t47.5 4.5q1 1 10 5.5t10 4.5q2 2 27.5 12t28.5 13l2 4q3 4 5.5 9t4.5 7q4 11 29 71.5t37 94.5q7 21 16.5 62.5t15.5 60.5q3 9 15.5 40.5t17 45t9.5 37.5t5 45z" />
<glyph unicode="&#xa4;" horiz-adv-x="1037" d="M65 339q8 20 73.5 72.5t92.5 65.5l5 13q11 11 16 24q3 12 3.5 62t15.5 85l28 66q15 9 54.5 60.5t47.5 68.5q7 17 -16.5 55.5t-23.5 39.5q-4 3 -14.5 28.5t-11.5 32.5q19 29 50 45t59 16q14 0 24.5 -14.5t23.5 -15.5q0 -88 53 -88h12q6 2 36.5 14t45.5 17l40 13t45.5 11.5 t37.5 3.5h14q10 0 11 -2q2 -11 56.5 -31.5t75.5 -20.5q16 0 33 9t37 23.5t28 19.5l98 64h29q4 0 11 -15.5t7 -24.5q0 -2 -11 -29l-14 -30q-8 -10 -35 -20t-33 -14q-10 -6 -49.5 -39t-45.5 -42v-2q-9 -20 0 -70t-4 -79l-49 -92q-2 0 -12 -13.5l-22 -31t-14 -19.5 q-7 -4 -12.5 -7.5l-8.5 -5.5t-4 -2q-10 -6 -15 -18q-16 -38 -11 -57q0 -4 3 -3l25 -12q19 -18 24 -95q4 -9 1 -14q-7 -18 -37 -38.5t-48 -20.5q-35 15 -35 17l-58 92q-14 7 -19 7h-2q-23 -3 -88 -28.5t-105 -25.5q-10 0 -12 11h-12q-72 0 -126 29q-10 5 -13 13t-13 8 q-9 0 -48 -30.5t-87.5 -61.5t-82.5 -31q-19 4 -25.5 20t1.5 37zM376 517l40 -8l12 -25q55 -17 76 -22h20q131 0 236 111q4 4 33 30l36 32l9 43l25 36l5 13q1 33 -13 70.5t-16 51.5q-3 7 -4 7q-18 3 -31 11t-29.5 20.5t-31.5 20.5l-171 -31q-8 -5 -38 -29t-47 -31l-93 -106 l-36 -86q7 -7 15 -52t3 -56z" />
<glyph unicode="&#xa5;" horiz-adv-x="1267" d="M169 616q0 3 5 8.5t9 7.5q72 55 189 55q4 0 18.5 -1t15.5 -1q2 0 22 -3t22 -3q4 0 24 3t22 3q6 1 23.5 3t30.5 4t14 2h26q7 21 13 33q2 6 17 36q-22 0 -63.5 7.5t-64.5 7.5l-4 -1q-9 0 -25.5 -1.5t-30.5 -3.5l-13 -1l-2 -1q0 -2 -22 -7q-11 3 -19.5 3.5t-13.5 0t-13 0.5 q-5 0 -27 1.5t-30 2.5t-22 6t-23 14q-2 1 -4 3.5t-3 5.5v2q0 3 5 7.5t9 5.5q21 13 47.5 19t42.5 6.5t53 -0.5t50 -1q4 0 18.5 -1t15.5 -1q2 0 22 -2t22 -2q4 0 24 2t22 2q64 8 68 8h8q1 5 10 37t11 41l8.5 36.5t8.5 42.5t4.5 37.5t2.5 41.5q0 13 -14 47q-2 6 -7.5 20.5 t-7.5 18.5t-6.5 15t-7.5 14.5t-8.5 11t-10.5 9.5t-12.5 6t-16 5.5t-19.5 2.5t-25 1h-18q-3 -5 -55 -28q-1 -1 -10 -5.5t-16 -9t-9 -6.5q-7 -5 -7 -7q-2 -5 -19.5 -31.5t-21.5 -30.5q-17 -24 -62 -41h-4q-24 0 -24 53q0 26 7 50q5 14 5 42v21q0 29 9 48q0 3 8.5 14.5 t11.5 13.5q1 1 8 14l6 13q8 12 35 28q5 2 21 10.5l30 15.5l18 9q5 0 28.5 3t26.5 4q1 0 7 4l7 3l21 7h20q19 1 25 1q3 0 22 -0.5t23 -0.5q3 -2 49.5 -23.5t61.5 -40.5q20 -27 55 -82q2 -1 7.5 -14t6.5 -13q2 -2 17 -14.5t18 -15.5q1 -1 13 -6t14 -6h5q9 0 15.5 3.5t17 13 t12.5 11.5q1 0 16.5 12.5t18.5 14.5q42 42 47 49q1 1 10 13.5t12 13.5q17 7 19 7q12 5 30 18t27 17l19 7q1 1 10.5 7t10.5 7q4 0 21.5 3t20.5 4q1 0 8 1.5t26 3t47 2.5h45q9 0 18 -4t21 -13t16 -11q2 -2 23 -13t26 -16q1 -1 8 -9l15.5 -18t10.5 -13q12 -24 12 -30 q1 -1 8.5 -9.5t7.5 -9.5l8.5 -11.5l8.5 -11.5t6.5 -11.5t4.5 -15.5q0 -7 2 -25t3.5 -33t1.5 -16q0 -13 -23 -49q-25 -50 -79 -50h-30q-6 0 -29 23l-12 12q-13 33 -16 34q-56 113 -133 113q-26 0 -85 -15.5t-78 -27.5q-1 0 -7.5 -5.5t-7.5 -7.5q-36 -52 -47 -76q-7 -2 -7 -20 q-6 -13 -9 -14q-1 -4 -17.5 -29.5t-16.5 -26.5q-7 -13 -16.5 -40.5t-9.5 -28.5q-16 -24 -16 -29q-1 -3 -4 -26t-3 -28q-2 -6 -2 -9q62 -4 93 -4q27 0 56 2t39 2q4 1 26 4l45.5 6t27.5 4h19q97 0 97 -56q0 -14 -33 -25q-31 -6 -71 -6q-9 0 -31 0.5t-35 0.5l-264 -5 q-1 -2 -1 -4t-2.5 -15t-2.5 -14q-2 -2 -16 -42q36 -3 71 -3q27 0 56 2.5t39 2.5q5 2 99 18h19q97 0 97 -70q0 -17 -33 -31q-30 -8 -71 -8q-9 0 -31 0.5t-35 0.5l-251 -6l-2 -3q-17 -29 -41 -62l-14 -41q0 -7 -14 -56q0 -1 -6 -13t-6 -13q-1 -2 -3 -9t-3.5 -15t-2.5 -10 q-2 -16 -7.5 -31t-14 -33t-12.5 -28q-10 -19 -26 -74q-2 -5 0.5 -11.5t6 -12t10.5 -12.5l11.5 -11.5t11 -10t7.5 -6.5q4 -5 13 -7.5t20.5 -4t14.5 -2.5q27 -9 69 -42q9 -6 9 -14v-8q0 -16 -10.5 -34t-24.5 -27q-8 -5 -29 -5q-1 -2 -14 -4t-14 -3q-12 -3 -27 -3 q-13 0 -36.5 2.5t-34.5 2.5q-32 0 -95 -1t-94 -1h-31q-5 5 -28 5h-15q-11 0 -12 2q-9 0 -56 2.5t-55 2.5q-28 23 -28 55v14q15 33 76 56q1 0 9.5 1.5t16 3.5t9.5 3q57 15 79 44q2 2 19.5 33t18.5 32q14 14 14 23q2 3 17 46.5t18 48.5q1 1 4 8t6.5 13t5.5 7q0 15 12 57 q8 27 17 40t31 64v5q0 1 3.5 11t5.5 11q0 3 1 4h-17q-24 0 -68.5 9.5t-67.5 9.5l-4 -2q-9 0 -25.5 -1.5t-29.5 -3.5l-14 -2q-9 -2 -31 -31q-9 -7 -42 -7q-63 0 -95 38q-7 3 -7 14z" />
<glyph unicode="&#xa6;" horiz-adv-x="712" d="M255 971l3 10q0 13 -8.5 41t-8.5 40q0 15 8.5 43t8.5 44q0 9 -7 34q-10 17 -10 42t10.5 75t10.5 79v22q38 44 84 44q52 0 87.5 -31t35.5 -82l-7 -54q0 -31 4 -51q3 -24 3 -54v-33q0 -31 -7 -41q-7 -25 -7 -70q0 -48 7 -72q12 -19 12 -47q0 -39 -15 -76.5t-49 -37.5 q-70 0 -122 32.5t-52 100.5q1 4 10 22t9 20zM255 -144l3 14q0 14 -8.5 40.5t-8.5 35.5q0 15 8.5 44t8.5 45q0 17 -7 34q-10 20 -10 43q0 25 10.5 76.5t10.5 79.5v17q39 49 84 49q52 0 87.5 -33.5t35.5 -84.5q0 -6 -3.5 -24t-3.5 -28q0 -31 4 -46q3 -28 3 -56v-33 q0 -31 -7 -41q-7 -24 -7 -73q0 -45 7 -71q12 -20 12 -48q0 -38 -15 -74.5t-49 -36.5q-70 0 -122 32t-52 98v3q0 2 9.5 19t9.5 19z" />
<glyph unicode="&#xa7;" horiz-adv-x="1369" d="M472 666q8 -15 22 -50t23 -50q15 -28 37.5 -51.5t59 -53l48.5 -39.5q12 -13 74 -74.5t70 -68.5q19 -18 63.5 -50t65.5 -59q3 -4 10 -17t14.5 -21.5t17.5 -8.5q18 0 26.5 28t8.5 53v11l-7 20q-43 211 -320 391q-9 7 -21 29.5t-26 33.5q-7 1 -59 43q0 2 -5 5t-7 3 q-4 4 -19 12t-33.5 17t-21.5 11h-7q-14 0 -14 -8v-106zM377 -268l1 31q2 1 8 10l13 20.5t11 16.5q17 24 39.5 31t58.5 7h31l28 -14l55 -24h123q3 3 15.5 8.5t15.5 5.5q2 0 22 8.5t23 8.5q0 1 2.5 3.5t2.5 3.5q8 5 33 40v36v40q-1 12 -9.5 23t-23 24.5t-20.5 19.5 q-8 10 -15 20t-12.5 16.5t-16.5 15.5q-1 2 -12 9.5t-12 7.5q-39 34 -53 54l-9 16q-1 0 -3.5 3t-3.5 3q-132 92 -253 265q0 2 -1 4t-3 4t-2 3q-17 20 -28.5 38.5t-19 41t-11 35.5t-9.5 44.5t-9 45.5q-1 11 -8 29t-7 35q0 49 15 163q1 9 5 18t10.5 20t9.5 17q0 3 2.5 16 t2.5 16v20q11 19 15 38q1 2 7.5 12l12 18.5t6.5 9.5q3 10 7.5 28.5t10 33.5t17.5 30q11 12 34.5 29.5t34.5 30.5q2 2 12 15.5t12 14.5q4 5 31 32t30 32q2 0 14 5.5t15 8.5q14 5 41.5 19t43.5 19q14 7 31 7q15 2 42.5 12t44.5 10q13 -2 38 -4t35 -4t25 -9t25 -21t19 -38 q1 -4 5 -15t7 -20t3 -10v-14q0 -25 -10 -47.5t-17 -31.5t-33 -38q-19 -7 -52 -7q-18 0 -41.5 17.5t-29.5 20.5q-5 4 -17.5 9l-24 10t-12.5 5h-33q-183 0 -183 -116v-16q0 -24 10 -38q1 0 11 -11l24 -26.5t19 -20.5q15 -17 45 -70q2 -6 9 -9t16.5 -4.5t12.5 -3.5 q30 -10 61.5 -30.5t48 -34.5t52.5 -49l44 -43q4 -3 13.5 -13l17 -17.5t9.5 -7.5l7 -23q2 -3 38 -33q12 -9 20.5 -20t19 -30t15.5 -26q43 -75 50 -116q6 -22 18 -83.5t13 -73.5q2 0 2 -23q0 -21 -2 -26q0 -6 -6.5 -41t-8.5 -40v-7.5t0.5 -16t0.5 -16.5q0 -12 -1 -14 q-7 -15 -7 -17q-5 -7 -23 -52q0 -2 -8 -22t-9 -21q-2 -6 -25.5 -44t-24.5 -43l-9 -13q-2 -6 -9 -16.5l-14 -20t-8 -10.5q-2 -5 -25 -27.5t-29 -26.5q-1 -2 -10.5 -15t-9.5 -14q-23 -24 -71 -54q-7 -10 -30 -24q-1 0 -7 -6.5t-7 -9.5q-5 -2 -35 -15t-35 -14q-53 -13 -137 -47 h-19h-19q-7 0 -24 11q-2 0 -19 2.5t-18 2.5q-33 7 -46 31q-26 52 -32 61v7q0 7 -0.5 15.5t-0.5 13.5z" />
<glyph unicode="&#xa8;" horiz-adv-x="704" d="M830 1194l-5 40q0 7 3.5 22.5t3.5 16.5q10 63 62 63q47 0 81.5 -31.5t34.5 -74.5q0 -35 -17.5 -66.5t-46.5 -31.5q-66 0 -116 62zM467 1197l-3 42q0 8 3 21.5t3 19.5q10 28 22.5 42t38.5 14q47 0 81.5 -30t34.5 -74q0 -34 -16 -65.5t-45 -31.5q-72 0 -119 62z" />
<glyph unicode="&#xa9;" horiz-adv-x="1557" d="M251 362q-32 56 -50.5 93.5t-36 93t-17.5 103.5v42q0 83 3.5 134.5t22 122t54.5 125.5l124 196q67 81 171 140.5t185 59.5l68 -12q29 0 54 12h81q77 0 123.5 -12.5t99.5 -56.5l111 -114l67 -33q29 -20 46 -54.5t21 -66.5t15.5 -69t30.5 -59q16 -18 35.5 -34.5t27.5 -24.5 t15.5 -26t12.5 -47q9 -85 9 -211v-29q-4 -33 -20 -78.5t-35 -77.5q0 -1 -1 -3t-2.5 -4.5t-2.5 -4.5q-13 -58 -39 -134.5t-45 -95.5q-23 -10 -25 -12q-50 -20 -107 -69.5t-81 -62.5q-28 -14 -105 -30t-111 -37h-97q-79 0 -143 12t-107 28.5t-91 52.5t-77.5 64l-86 84.5z M237 787q0 -91 74 -294q31 -61 77 -117t84 -87q9 -6 46.5 -34t58 -41.5t57 -32.5t70.5 -29q80 -22 185 -22q24 0 61 0.5t50 0.5q20 0 83 28l20 12q25 13 27 16q7 3 18.5 9l15.5 8l12.5 6.5t11 6.5l9 7t10 9t10 10.5t12 14t13.5 17.5q16 22 40.5 47.5l39.5 41.5t29 44t19 63 q4 3 9 21.5t7 35.5l3 17q2 8 11 35t11 35l7 28t6 37.5t1 39.5q0 82 -14 132.5t-62 78.5l-15 19q0 37 -4 64.5t-15 50t-20.5 36t-28 36.5t-29.5 38q-47 57 -91 87t-75.5 37t-81.5 24t-98 47l-190 21q-1 0 -26 -10.5t-58.5 -27t-50.5 -28.5q-98 -64 -208 -240.5t-121 -297.5z M662 398q-41 37 -72 74q-19 15 -19 25q-7 12 -22 41t-16 33q0 1 -1.5 20.5t-2.5 43.5t-1 35v44q0 57 29 179q4 13 17.5 29.5t15.5 20.5q8 13 16.5 50t19.5 55q13 23 36 38.5t41.5 21t52.5 13.5q10 2 39.5 10t50 12t40.5 4q17 0 19 -2q1 0 24 -6t24 -6h118q30 -7 49.5 -28 t19.5 -50q0 -42 -12 -131q-10 -64 -69 -64q-21 0 -32 4.5t-24 21.5q-12 17 -31 49.5t-28 43t-33.5 21t-62.5 10.5q-41 0 -61 -24q-36 -43 -55 -76q-5 -6 -7 -13t-2.5 -17.5t-2.5 -17.5q-3 -6 -14.5 -40.5t-11.5 -39.5q-2 -4 -2 -59q0 -52 2 -59q1 -2 3.5 -8.5t5 -14 t3.5 -8.5q0 -3 3 -19t4 -19q9 -30 32 -65t47 -53h19h19q2 0 18 10t19 10q7 4 30.5 6.5t31.5 10.5q1 3 9.5 13l19.5 23t14 16q7 8 20.5 32.5t28.5 39t36 14.5q22 0 33.5 -21.5t11.5 -45.5l-2 -14q0 -2 -1.5 -33.5t-1.5 -35.5q0 -7 -1 -28.5t-2 -26.5t-4.5 -19t-10 -19 t-17.5 -12t-28 -11q-126 -31 -230 -31q-11 0 -21 1t-22.5 4.5t-18.5 4.5t-21.5 7.5l-18 7.5t-21 9.5t-19.5 8.5z" />
<glyph unicode="&#xaa;" horiz-adv-x="891" d="M427 1073q0 -42 24 -42q10 0 34 14q1 1 6 4.5t11 7t7 4.5q23 21 51 52q2 2 6 9t4 11q8 5 58 55q11 22 15 24q0 1 4.5 5.5t4.5 5.5q3 12 3 33q11 38 11 63q0 47 -31 47q-32 0 -70.5 -26.5t-59.5 -55.5q-3 -2 -12 -19q-2 -3 -5 -5.5t-5.5 -5.5t-2.5 -7q0 -3 -2.5 -22 t-2.5 -22q0 -2 -9.5 -17t-10.5 -17q-28 -51 -28 -96zM560 950q0 9 3 22.5t3 21.5q0 34 -18 34q-8 0 -14 -6t-12 -15.5t-9 -12.5q-1 -1 -7.5 -5.5t-7.5 -5.5q-15 -11 -42.5 -35.5t-42.5 -35.5q-6 -2 -23 -19q-11 -5 -35 -5h-18q-8 5 -10 11q-43 34 -43 68v3q10 80 38 145.5 t81 149.5q17 32 19 34q7 8 31 32t32 30q0 1 1 5l2 4q2 1 8.5 7l13 11.5t7.5 5.5q27 24 43.5 36.5t44.5 24.5t56 12q9 0 27.5 -3t29.5 -3q17 0 42.5 9.5t37.5 9.5q29 0 37.5 -13.5t8.5 -46.5q0 -27 -12 -54q-11 -28 -23 -44l-5 -4q-4 -5 -6 -5q-7 -9 -24 -56.5t-32 -57.5 q-16 -48 -19 -58l-5 -8q0 -2 -4.5 -17.5t-4.5 -18.5q-1 0 -5 -5.5t-4 -6.5q-10 -18 -10 -47v-1q1 -2 4.5 -6t5.5 -4q9 0 18 8t17.5 19.5t11.5 14.5q19 18 47 31t50 13q6 0 8 -4q0 -26 -4 -40q-5 -14 -26.5 -37t-26.5 -38q-71 -75 -111 -101q-5 -4 -12 -6t-11.5 -2.5 t-15 -0.5h-14.5h-1q-16 0 -42 16.5t-28 30.5v19z" />
<glyph unicode="&#xab;" horiz-adv-x="872" d="M170 240h-2q-11 0 -20.5 31t-11.5 33l-23 9q-24 15 -48.5 46.5t-24.5 59.5q0 9 6 20q15 35 67 67.5t104 50.5q20 3 65 39.5t53 36.5q11 10 73.5 49t69.5 39q8 0 30.5 -5.5t23.5 -11.5q-2 -4 -17.5 -25.5t-19.5 -28.5q-24 -34 -79 -73t-85 -75q-8 -1 -21 -12.5t-29 -28 t-21 -20.5q1 -4 4 -18.5t7 -24.5t10 -10q7 -4 12.5 -30t8.5 -28l7 -15q10 -17 10 -33l3 -29q2 -19 5.5 -30.5t3.5 -21.5l-12 -30q-31 -19 -48 -19h-51q3 22 -6.5 35.5t-24 26t-19.5 26.5zM511 249h-3q-7 0 -13 14t-11 30.5t-8 19.5l-20 12q-24 10 -49.5 42t-25.5 62 q0 11 5 23q24 58 160 110q28 7 76.5 44.5t56.5 37.5q7 7 70 46.5t70 39.5q8 0 30 -4.5t22 -11.5q-2 -5 -9 -16t-15 -22t-9 -13q-28 -36 -80.5 -75t-80.5 -74q-10 0 -24 -12.5t-29 -28.5t-21 -20q1 -4 4 -19.5t6.5 -25.5t9.5 -10q7 -3 12 -30t8 -29q15 -30 15 -43v-9l7 -21 v-15q0 -12 3.5 -22t3.5 -20l-12 -29q-30 -17 -47 -17h-50q3 27 -22.5 48.5t-29.5 37.5z" />
<glyph unicode="&#xac;" horiz-adv-x="1254" d="M116 472q2 3 9.5 9t11.5 7q95 55 212 55q4 0 18 -1t16 -1q1 0 20 -3t21 -3q4 0 25 3t23 3q7 1 25 3t32 4t15 2h102q2 0 23 2.5t22 2.5q2 0 15 2t17 2q27 0 79.5 -4.5t78.5 -4.5q27 0 57 2.5t40 2.5q7 3 107 18h19q97 0 67 -70q-17 -43 -37 -50q-9 -18 -11 -24 q-5 -11 -9 -22l-8.5 -24t-7.5 -20l-5.5 -10.5t-4.5 -8.5q-7 -12 -14 -29q-2 -5 -7 -16t-7 -17q-8 -19 -14 -28q-38 -60 -67 -60q-17 0 -5 52q1 7 11 31q9 21 13 36t23 69q23 62 29 82q-9 0 -30.5 0.5t-34.5 0.5l-335 -7q0 1 -7.5 4t-11.5 3l-1 2q-5 0 -6 -2 q-100 -17 -133 -17q-25 0 -65.5 9.5t-63.5 9.5l-5 -2q-9 0 -26.5 -1.5t-31.5 -3.5l-14 -2q-7 -1 -44 -31q-12 -7 -44 -7q-64 0 -80 38q-3 2 -2.5 7.5t1.5 6.5z" />
<glyph unicode="&#xad;" horiz-adv-x="808" d="M134 452q0 55 97 60h24h59q8 1 87 4.5t88 4.5h41h40q19 -8 35.5 -23.5t24.5 -26.5l25 -35l7 -12q0 -34 -28 -78q-8 -11 -29.5 -24t-27.5 -18q-7 0 -51.5 -3t-52.5 -3h-10h-9q-5 0 -52.5 3t-52.5 3h-61q-6 0 -35.5 3.5t-36.5 3.5q-36 6 -54 25.5t-21.5 36t-5.5 59.5 q-1 7 -1 11v9z" />
<glyph unicode="&#xae;" horiz-adv-x="1557" d="M251 368q-32 55 -51 93t-36 94.5t-17 105.5v38q0 84 3.5 135.5t22 122.5t54.5 124l124 196q67 81 171 140.5t185 59.5l68 -10q23 0 54 10h81q77 0 123.5 -12.5t99.5 -56.5l111 -112l67 -33q29 -20 46 -55t21 -67t15.5 -69.5t30.5 -59.5q17 -18 36 -34l27 -23t15.5 -25 t12.5 -48q9 -88 9 -212v-28q-10 -81 -55 -158l-1 -2q-1 -1 -2.5 -4t-2.5 -6q-14 -58 -39.5 -134t-44.5 -96q-23 -7 -25 -8q-48 -22 -104.5 -71.5t-83.5 -63.5q-28 -15 -105 -31t-111 -37h-97q-68 0 -123 7t-101 24.5t-79.5 35.5t-72.5 52t-66.5 61l-75 75t-84.5 82zM233 794 q0 -59 15.5 -140t50.5 -154q31 -64 79.5 -119.5t91.5 -86.5q3 -2 20 -15t22.5 -17.5t22 -16.5t25.5 -17.5t25.5 -16.5t28.5 -17l27.5 -14t31 -13.5t31.5 -10.5q71 -23 185 -23q26 0 61.5 1t47.5 1q18 0 39 8t32 14.5l40 24.5q3 2 11 3.5t11 4.5q57 28 70 40q15 13 41 50 q17 22 42 47.5l41 41.5t30 43.5t18 63.5q3 3 7 21.5t6 35.5l3 17q4 11 12.5 36.5t11 35t7 28.5t6 36.5t1.5 40.5q0 85 -13.5 135t-60.5 83q-16 20 -16 34q0 39 -10.5 71t-20 47t-36 47l-37.5 46q-45 60 -88 90t-73.5 35t-81 20.5t-99.5 46.5l-189 21q-1 0 -26 -10.5 t-59.5 -26.5t-52.5 -27q-64 -42 -138.5 -138.5t-130 -210.5t-62.5 -196zM977 422q-2 3 -19.5 33t-22 37l-21.5 33t-26 36l-26.5 29.5t-31 29t-32 20t-37.5 16.5q-1 0 -9 2.5t-10 2.5l-3 2q-9 0 -15 -14.5t-6 -23.5l-1 -13q-1 -12 -1 -17v-15q0 -80 21 -109q7 -10 38 -21.5 t31 -30.5q0 -4 -1 -7t-3.5 -6.5l-4 -5.5t-6 -5.5t-5.5 -4.5t-7 -4l-6 -4q-8 2 -24 2q-15 0 -44 -3.5t-44 -3.5h-24q-15 5 -49 5q-2 2 -12 2q-5 0 -12.5 -0.5t-12.5 -1t-6 -0.5q-3 2 -27 8t-30 8q-18 3 -18 33v10q0 7 6 11q1 0 24.5 11.5t27.5 12.5l8 6q7 6 9 8q7 6 15.5 30 t8.5 37v209q7 21 7 38v73q0 2 2.5 13.5t2.5 12.5v33v36q-5 16 -25 30t-40 24t-36 30t-16 48q0 52 64 52q18 0 54 -3.5t55 -3.5q24 0 69.5 7.5t68.5 7.5l10 -3q9 0 27.5 -1.5t33.5 -2.5l14 -1l24 -12.5l24 -12.5q3 0 34 -6t35 -6q63 -13 96.5 -68.5t33.5 -124.5v-16 q-1 -2 -7 -13t-7 -13l-12 -36q-33 -61 -98 -118q0 -1 -1 -9t-1 -10t1 -10t1 -9q8 -14 12 -19q3 -2 13 -11.5t11 -12.5q1 -1 7 -12t7 -12q5 -10 19.5 -29t23.5 -27q30 -20 36 -31q1 -2 9 -25t17 -30q11 -6 12 -7q2 0 19 -6t18 -6t6.5 -5.5t5.5 -6.5q3 -2 12 -8.5t12.5 -9.5 t9 -9t7.5 -12.5t2 -14.5q0 -38 -67 -38q-154 0 -198 62zM718 874q0 -120 36 -120h7q1 0 13 2l11 3q2 2 13.5 3.5t23.5 2.5t13 1q57 26 85 45q7 6 7 18q0 4 -1 12.5t-1 11.5q3 1 6 11t3 13v35v34q-13 24 -50 56q-31 24 -106 24q-1 0 -8 1t-12 1q-17 0 -21 -7q-12 -15 -12 -25 q-7 -46 -7 -93v-29z" />
<glyph unicode="&#xaf;" horiz-adv-x="918" d="M498 1204q28 18 75 23l18 3h194l63 -4h201q15 -3 24.5 -14t6.5 -18q-1 -13 -12 -37q-12 -28 -37 -49q-6 -11 -23.5 -19t-36.5 -8h-230q-20 5 -172 5l-53 4h-28q-18 6 -24 29t1 36q18 32 33 49z" />
<glyph unicode="&#x2c9;" horiz-adv-x="918" d="M498 1204q28 18 75 23l18 3h194l63 -4h201q15 -3 24.5 -14t6.5 -18q-1 -13 -12 -37q-12 -28 -37 -49q-6 -11 -23.5 -19t-36.5 -8h-230q-20 5 -172 5l-53 4h-28q-18 6 -24 29t1 36q18 32 33 49z" />
<glyph unicode="&#xb0;" horiz-adv-x="693" d="M687 1055q15 0 20 -9.5t16 -9.5h8q13 0 16 5q15 18 28.5 70t13.5 79q0 48 -23 99q-18 40 -50 55.5t-80 15.5q-34 0 -83.5 -29.5t-70.5 -58.5q-5 -12 -5 -33v-9q1 -4 5.5 -34t6.5 -37q10 -51 23 -64q19 -20 59 -33.5t71 -13.5q7 0 22 3.5t23 3.5zM384 1171v7q9 48 14 69 t17.5 60.5t30.5 67t43 49.5q12 10 27 17.5t24 10t31 7t29 6.5l36 12h7h11q56 -4 58 -7q2 0 13 -8t12 -9q8 -5 30.5 -13t33.5 -16q117 -91 117 -206v-5q-2 -10 -4 -31.5t-5 -39t-8 -30.5q-27 -62 -100 -122l-25 -25q-8 -5 -10 -5q-57 -17 -123 -17q-48 0 -91.5 21t-96.5 60 q-8 6 -19 24q-2 3 -12 20t-14.5 26.5l-12 24.5t-10.5 28t-3 24z" />
<glyph unicode="&#xb1;" horiz-adv-x="1225" d="M141 699q22 22 81 22h19q12 0 23 -5h149q75 0 91 16q18 18 18 71l-19 235q0 59 19 81q16 14 51 14q56 0 75 -24l28 -61q5 -5 12 -72q-9 -3 -16 -11q-15 -23 -15 -45q0 -44 12 -98q1 -10 2 -17t1 -9q0 -11 -1.5 -32t-1.5 -27l1 -3q7 -7 9 -7q24 0 72.5 8.5t69.5 8.5 q20 0 48 -10h154q9 0 23 -7q8 -10 8 -30v-76l-17 -19q-33 -33 -90 -33q-32 0 -92.5 11t-82.5 12l-20 -9l-64 -5q-9 -17 -15 -65t-6 -94q0 -47 7 -64q21 -23 21 -38q0 -3 -11 -19l-10 -16l3 -48q0 -22 -8 -30q-13 -10 -45 -10q-25 0 -48 5.5t-30 11.5q-20 37 -28 126t-14 115 l21 77q0 11 -7 21q-22 19 -45 19q-10 0 -33 -4t-38 -4q-24 0 -29 1q-6 7 -24 7l-23 -2q-35 -5 -60 -5q-33 0 -73 5q-34 0 -47 21q-14 22 -14 61q2 18 4 30t4 16zM124 42v46q0 25 2 38t17 27.5t45 17.5h65q52 7 118 7h62q15 0 31 3.5t26 3.5q30 0 87.5 -11t85.5 -11l147 17 q11 0 28 -4.5t24 -4.5q15 0 37 11q0 1 7 1q12 0 45 -7q28 0 41 -1t27.5 -6.5t24.5 -17.5q4 -4 4 -9l-6 -24q2 -6 2 -23q0 -26 -2 -31l-7 -28q-36 -34 -126 -34q-14 0 -71 3q-70 5 -71 5q-177 0 -375 -8q-23 -1 -81 -5t-87 -4t-62 14.5t-38 34.5z" />
<glyph unicode="&#xb2;" horiz-adv-x="807" d="M375 819q0 30 22 44t52.5 17.5t32.5 4.5q3 4 14 12t13 8q19 0 47.5 18.5t28.5 31.5q48 48 53 69v15q0 8 11 26l-2 11l1 -6q-3 5 -3.5 17t-1.5 19q-13 20 -13 25l2 -8l-6 13q-6 14 -14.5 26.5t-18.5 17.5l-3 2l-17 10h-55q-32 -16 -32 -17l-3 -2q-8 -12 -13 -18t-14.5 -12 t-21.5 -8h-6q-12 0 -26 10t-20 20v23q0 34 30 65t40 59h8q8 -1 9 -1h5q17 0 39 12q21 5 49 5q37 0 54 -6l21 -20q0 5 -3 11q12 -4 21 -6t11.5 -2.5t6.5 -2t8.5 -4.5t13.5 -11l19 -21q14 -14 16 -17q24 -25 34.5 -44.5t10.5 -53.5q0 -26 -4 -45.5t-9 -29.5t-16.5 -30 t-18.5 -36q-1 -2 -2.5 -6t-2.5 -5.5t-3 -5t-4.5 -5.5l-6.5 -5t-10 -6t-14 -6q-2 -5 -4.5 -9t-5 -5.5l-5 -3t-4.5 -2t-4 -0.5t-2.5 -0.5t-0.5 -1.5q-3 -2 -7.5 -7.5t-7.5 -9.5t-3 -5q0 -19 49 -22q5 0 15.5 -1t18 -1.5t13.5 -0.5l9 2l-9 -1q36 8 62 8h14q13 14 27.5 36 t24.5 33.5t21 11.5l12 -3q12 -4 27 -30v-10q0 -18 -15 -53.5t-19 -67.5q-6 -37 -17 -37q-6 0 -19 -5.5t-14 -5.5h-102q-8 5 -17 5h-8q-4 0 -17.5 -2.5t-24.5 -2.5q-9 0 -19.5 2t-16.5 2l-18 -2q-16 -2 -28 -2q-10 0 -25.5 2t-20.5 2q-30 0 -44 -8h-82q-15 0 -28.5 14 t-13.5 29z" />
<glyph unicode="&#xb3;" horiz-adv-x="703" d="M584 678zM409 588q-3 5 -3 12q0 19 22.5 37.5t44.5 18.5h46q39 20 67 24v9q28 0 28 44q1 0 -4 19t-12.5 39t-12.5 23q-10 15 -15 17.5t-22.5 2.5t-39.5 5q-9 5 -40.5 6.5t-51.5 11.5t-20 38q0 18 23 36t37 18q12 0 31.5 10t26.5 17q22 0 52 30l8 5v21q2 11 14.5 24.5 t15.5 19.5q-2 8 -2 11v9q0 18 6 31q-11 34 -12 38q-1 9 -12 24q-14 14 -42 14q-26 0 -54 -23t-54 -23q-35 0 -38 54v8q0 36 34 60.5t79 35.5q10 7 48 7h61q14 -9 31.5 -23t26.5 -20q67 -46 67 -95v-16q0 -17 -1.5 -32t-2 -26t-6 -23.5t-7 -19.5t-10.5 -19t-11.5 -16.5 t-16 -18l-17 -17t-21.5 -20t-23 -21.5l-4 -5q0 -9 9.5 -20t20.5 -18.5l23.5 -15.5t13.5 -9q15 -12 27 -31.5t20.5 -39.5t9.5 -22l7 -56l3 -23q0 -18 -6 -33.5t-17.5 -32.5t-15.5 -25q-5 -5 -5 -12q-18 -28 -60 -47q-5 -3 -14 -11t-20 -12.5t-34 -9.5h4q-12 -6 -24 -6 q-7 0 -13.5 2.5t-10.5 2.5q0 -2 -4 -4.5t-8.5 -3.5t-6.5 -1q-18 0 -18 4l-2 1h-1q-33 8 -55 23z" />
<glyph unicode="&#xb4;" horiz-adv-x="905" d="M595 1036q0 40 17 81.5t34 65t54 68t49 60.5l23.5 33t24 32.5t22 23.5t29 22t33.5 10.5t46 5.5h14q26 -37 29 -49v-14q0 -26 -9 -43q-10 -17 -30.5 -33.5t-27.5 -25.5q-16 -20 -19 -29q-15 -25 -32 -46.5t-39 -45.5t-35 -41q-3 -4 -15.5 -25.5t-13.5 -23.5 q-7 -9 -36 -38.5t-40 -39.5h-7q-25 0 -48 13.5t-23 38.5z" />
<glyph unicode="&#xb5;" horiz-adv-x="1226" d="M-98 -287l92 292q10 5 19 19q2 4 12 71q0 7 4 24.5l8.5 35.5t5.5 21l3 6q4 6 7 12.5t6.5 13t3.5 7.5q21 42 21 51q3 6 6 43t3 47q16 72 21 102q1 2 5.5 19t4.5 20q4 21 13 80t16.5 94t29 78.5t52.5 68.5q4 0 20.5 2t18.5 2q94 0 94 -102q0 -99 -125 -324q0 -2 1 -6.5 t1 -7.5q0 -16 -10.5 -50t-10.5 -50q0 -46 19.5 -82t62.5 -36q53 0 137.5 47.5t111.5 94.5q9 19 22 59q7 23 25 70.5t25 71.5q10 34 59 221q8 14 17.5 23.5t24 17t23 11t29 10t27.5 9.5q4 2 5 2l6 -2q35 -19 47.5 -41.5t12.5 -63.5v-30q0 -33 -10 -57q-44 -92 -61 -119 q2 -2 2 -7q0 -9 -8 -21.5t-19.5 -25.5t-14.5 -17q-26 -37 -51 -121l-9 -50q19 -57 21 -61q4 -9 15.5 -23.5t13.5 -14.5h100q14 17 49.5 36.5t40.5 22.5q17 10 39 57t43 54t35.5 -18.5t14.5 -45.5q0 -97 -161 -237q-17 -17 -51 -34.5t-53 -17.5l-7 1q-10 0 -37 4.5t-32 6.5 q-43 7 -70 40t-36.5 69t-21.5 64.5t-29 28.5l-4 -2q-2 -1 -6 -10t-4 -10q-4 -5 -11.5 -18.5t-13.5 -22.5l-6 -9q-43 -43 -109.5 -78t-120.5 -35q-63 0 -101 31q-9 8 -19.5 25t-21.5 27t-30 10q-16 0 -26 -11t-13 -23t-6 -31t-5 -26l-10 -19q-10 -18 -11 -21l-1 -11v-25.5 v-20.5q0 -27 12 -74.5t12 -76.5q0 -33 -1.5 -50.5t-11.5 -42.5t-30 -42l-13.5 -10l-17 -12.5t-7.5 -6.5q-1 0 -7 -1t-9 -1q-2 0 -8.5 1t-7.5 1q-71 32 -71 40v90z" />
<glyph unicode="&#x3bc;" horiz-adv-x="1226" d="M-98 -287l92 292q10 5 19 19q2 4 12 71q0 7 4 24.5l8.5 35.5t5.5 21l3 6q4 6 7 12.5t6.5 13t3.5 7.5q21 42 21 51q3 6 6 43t3 47q16 72 21 102q1 2 5.5 19t4.5 20q4 21 13 80t16.5 94t29 78.5t52.5 68.5q4 0 20.5 2t18.5 2q94 0 94 -102q0 -99 -125 -324q0 -2 1 -6.5 t1 -7.5q0 -16 -10.5 -50t-10.5 -50q0 -46 19.5 -82t62.5 -36q53 0 137.5 47.5t111.5 94.5q9 19 22 59q7 23 25 70.5t25 71.5q10 34 59 221q8 14 17.5 23.5t24 17t23 11t29 10t27.5 9.5q4 2 5 2l6 -2q35 -19 47.5 -41.5t12.5 -63.5v-30q0 -33 -10 -57q-44 -92 -61 -119 q2 -2 2 -7q0 -9 -8 -21.5t-19.5 -25.5t-14.5 -17q-26 -37 -51 -121l-9 -50q19 -57 21 -61q4 -9 15.5 -23.5t13.5 -14.5h100q14 17 49.5 36.5t40.5 22.5q17 10 39 57t43 54t35.5 -18.5t14.5 -45.5q0 -97 -161 -237q-17 -17 -51 -34.5t-53 -17.5l-7 1q-10 0 -37 4.5t-32 6.5 q-43 7 -70 40t-36.5 69t-21.5 64.5t-29 28.5l-4 -2q-2 -1 -6 -10t-4 -10q-4 -5 -11.5 -18.5t-13.5 -22.5l-6 -9q-43 -43 -109.5 -78t-120.5 -35q-63 0 -101 31q-9 8 -19.5 25t-21.5 27t-30 10q-16 0 -26 -11t-13 -23t-6 -31t-5 -26l-10 -19q-10 -18 -11 -21l-1 -11v-25.5 v-20.5q0 -27 12 -74.5t12 -76.5q0 -33 -1.5 -50.5t-11.5 -42.5t-30 -42l-13.5 -10l-17 -12.5t-7.5 -6.5q-1 0 -7 -1t-9 -1q-2 0 -8.5 1t-7.5 1q-71 32 -71 40v90z" />
<glyph unicode="&#xb6;" horiz-adv-x="1444" d="M457 -401q0 54 47.5 90t103.5 36q24 0 42 -11.5t28.5 -29t24.5 -37.5t28.5 -37.5t42 -29t64.5 -11.5h26q12 5 58 40q33 27 45 54t12 71v10q0 1 -5 14t-5 14q0 19 10.5 51t10.5 49q0 14 -2 16q0 5 -4.5 48t-4.5 48q0 19 9 58q1 1 6 13.5t5 15.5v76q0 4 4.5 25t5.5 23v16 q0 11 -5 30.5t-5 31.5v28q0 1 9.5 9.5t9.5 9.5q2 8 -9 19h-5h-16q-2 1 -19 14.5t-19 14.5h-19q-28 5 -100 17t-121.5 23t-95.5 28q-46 16 -79 48q-10 9 -67 67t-68 68q-15 16 -26.5 33t-20.5 39.5l-14 35.5t-13.5 43t-12.5 41q0 2 -4 15t-4 15v22v54q-11 27 -11 29v26v24 q0 2 9.5 18.5t9.5 18.5q2 2 2 14q0 7 -1 21t-1 15q3 21 15.5 45t24 40.5t31.5 41.5t26 34l9 19q7 9 40 45t40 41q0 2 3 11.5t3 11.5q8 9 24.5 12.5t24.5 6.5q21 5 60 28l18 13q18 14 21 16q10 5 44.5 10.5t41.5 8.5q3 3 14.5 11t14.5 8q31 14 63 19.5t82.5 7t65.5 2.5 q1 0 5 2.5t9 5t6 3.5h3h7q5 -3 28 -11h288q22 11 44 11q30 0 56.5 -23t26.5 -52q0 -16 -30 -41q-16 -4 -97 -10l-13 -4q-14 -5 -16 -5q-5 -1 -30 -3.5t-36.5 -5.5t-30.5 -9.5t-30 -19t-17 -30.5v-67q0 -4 -0.5 -18.5t-0.5 -23.5q0 -42 12 -57q9 -108 9 -173q8 -485 10 -529 q0 -97 9 -144q0 -1 5 -19t5 -20v-87q0 -1 4.5 -22.5t4.5 -24.5q0 -24 -9.5 -56t-9.5 -51q0 -14 10 -25.5t10 -21.5l-1 -10q0 -4 -9.5 -34.5t-9.5 -32.5q0 -6 -4 -39t-5 -38q-2 -3 -10.5 -20t-8.5 -19q-1 -4 -5.5 -34t-5.5 -34q-6 -23 -50.5 -85t-64.5 -77l-10 -5l-18.5 -9.5 t-9.5 -4.5q-21 -18 -39 -30q-5 -4 -15 -13t-13 -11.5t-11 -8.5t-11.5 -8t-10 -6.5t-12.5 -7t-14 -5.5l-18 -7q-8 -3 -27.5 -7t-31.5 -12q-6 0 -37 -1t-36 -1h-14t-18.5 0.5t-18 1t-14.5 0.5h-5q-10 0 -61 19q-53 22 -81 54t-51 91q-3 0 -3 9z" />
<glyph unicode="&#xb7;" horiz-adv-x="489" d="M202 625q-7 31 -7 83v30q0 10 21 41q0 9 7 23q11 28 40.5 45t62.5 17q15 0 24 -4t19.5 -12t19.5 -12q2 -2 20 -8q13 -4 19 -10.5t12.5 -18.5t12.5 -20q3 -5 13.5 -15t18 -20t7.5 -20v-38q0 -15 -1 -23.5t-1.5 -14.5t-4.5 -11.5t-6.5 -8t-11 -10l-14.5 -12.5 q-4 -2 -23.5 -21l-20.5 -20l-26 -21h-77q-1 1 -6 4l-9.5 5.5t-5.5 2.5q-2 2 -14.5 8.5t-13.5 7.5q-9 7 -55 53z" />
<glyph unicode="&#x2219;" horiz-adv-x="489" d="M202 625q-7 31 -7 83v30q0 10 21 41q0 9 7 23q11 28 40.5 45t62.5 17q15 0 24 -4t19.5 -12t19.5 -12q2 -2 20 -8q13 -4 19 -10.5t12.5 -18.5t12.5 -20q3 -5 13.5 -15t18 -20t7.5 -20v-38q0 -15 -1 -23.5t-1.5 -14.5t-4.5 -11.5t-6.5 -8t-11 -10l-14.5 -12.5 q-4 -2 -23.5 -21l-20.5 -20l-26 -21h-77q-1 1 -6 4l-9.5 5.5t-5.5 2.5q-2 2 -14.5 8.5t-13.5 7.5q-9 7 -55 53z" />
<glyph unicode="&#xb8;" horiz-adv-x="445" d="M-33 5h78q-1 -1 -8.5 -24.5t-7.5 -25.5q-4 -11 -13.5 -30t-15.5 -34.5t-6 -30.5q0 -26 23.5 -77t23.5 -77v-2q0 -1 -2.5 -10t-2.5 -11q-1 -3 -7 -38t-7 -38q0 -3 -8 -19t-9 -21q-62 -105 -165 -105q-2 0 -18 1.5t-20 1.5q-25 8 -35 23t-10 43q0 36 14 52.5t32 17.5t39 6 t31 19q2 6 2 30q0 29 -15 63t-39 51v102q14 29 19 38q14 26 63.5 52t63.5 43z" />
<glyph unicode="&#xb9;" horiz-adv-x="707" d="M598 782q-4 0 -10 2q-11 0 -27 -2t-26 -2q-24 0 -58.5 6t-49.5 7q-15 16 -15 31q0 10 6 17.5t16.5 15t13.5 10.5q1 -1 -1 -3q6 4 14 6q32 12 35 24q4 21 4 51q0 6 -2 23t-2 28v11l2 6q1 6 3.5 12.5t3.5 7.5l-5 11q-4 11 -4 19q0 23 5 50.5t5 39.5q0 2 -0.5 11.5 t-0.5 13.5v8q0 4 0.5 10t0.5 10v5q-2 1 -11 3t-14 4q-2 1 -12 3t-14 3t-13 3.5t-13 4.5l-10.5 5.5t-9.5 7.5t-5.5 9.5t-2.5 12.5q0 33 24 47t74 14q25 0 74 -1.5t62 -1.5l24 1q24 2 32 2q21 0 36 -16.5t15 -36.5q0 -15 -15.5 -28.5t-31.5 -17.5h-7q-3 0 -11 0.5t-11 0.5h-6 q-18 -3 -21 -13q3 -3 4.5 -14t2.5 -20l1 -9q0 -21 -2.5 -25.5t-2.5 -9.5q0 -11 3 -23l2 -39q-3 -3 -5.5 -12t-4.5 -20t-3 -14v-24q0 -37 -7 -65q0 -32 4 -47t9 -18.5t24 -8.5t34 -12l-6 1l15 -6q0 -1 -4 -1q6 -2 16.5 -2.5t16 -1.5t10 -7.5t4.5 -20.5t-7 -22t-18.5 -14.5 t-14.5 -9.5h-33q-60 0 -79 10z" />
<glyph unicode="&#xba;" horiz-adv-x="732" d="M457 1140q15 -19 24 -58t23 -54q2 -2 19.5 -23t20.5 -24q5 -5 17 -5h16q19 0 30.5 6.5t15.5 13.5t10 25t10 27q2 7 19 33q20 37 20 104v17v64q-15 40 -47 80t-65 40l-19 -2q-2 -1 -8 -10l-6 -9q-6 -8 -23.5 -19t-23.5 -21q-33 -70 -33 -72v-113zM300 1211q0 46 15.5 93 t43.5 80l9 8l16 16t8 9l9 11.5l9 11t8.5 9t12 9t14.5 6.5q5 1 62.5 9t69.5 10h7h5q8 -2 56 -13t56 -13q40 -11 87 -54q1 -1 3.5 -5t5 -8.5t3.5 -5.5q3 -5 17 -50t16 -49q2 -6 11.5 -17t9.5 -22v-106q-6 -16 -7 -19q-1 -1 -7 -16.5t-7 -16.5q0 -3 -2.5 -20.5t-2.5 -19.5 q-10 -23 -28 -46q-44 -63 -98 -88t-136 -25h-20q-61 0 -95 14q-50 22 -92.5 76.5t-51.5 108.5q-7 38 -7 123z" />
<glyph unicode="&#xbb;" horiz-adv-x="874" d="M194 249q-16 -16 -60 -38t-64 -48h-50q-18 0 -33 17l12 29q8 12 24 25t33 32l40 37l43 36q2 1 17 15.5t31 28t23 15.5q6 0 18 10t28 26t20 19q-3 4 -4 20t-4.5 28.5t-10.5 12.5q0 33 -19 68.5t-19 61.5q0 12 1 19q0 1 3 22.5t6 28.5q6 7 31.5 11.5t34.5 4.5q6 0 33 -35.5 t36 -50.5q6 0 13.5 -18t20.5 -38.5t32 -26.5q20 -15 30 -23.5t22.5 -26t12.5 -35.5q0 -14 -5 -24q-14 -32 -75.5 -73t-99.5 -54l-31 -12q-5 -3 -24 -20t-37.5 -30.5t-26.5 -13.5h-2zM528 240q-17 -15 -61 -37.5t-65 -50.5h-50q-10 0 -14.5 3t-15.5 16l13 30q7 10 22 21.5 t33 30.5l24 29q17 20 57 48q4 2 32 28t39 30q6 0 18.5 10t27.5 24.5t20 18.5q-1 4 -2.5 20.5t-5 28t-11.5 12.5q1 36 -20.5 75t-16.5 73q2 7 5 28.5t4 25.5q6 6 32.5 11.5t35.5 5.5q7 0 34.5 -39t30.5 -49q8 0 24 -36.5t33 -39.5q29 -15 53 -40t24 -53q0 -12 -6 -25 q-13 -30 -70.5 -68t-103.5 -58l-30 -9q-3 -2 -40 -33t-48 -31h-2z" />
<glyph unicode="&#xbc;" horiz-adv-x="1715" d="M500 -36l1 3q-5 -8 -19 -22t-26 -24l-12 -10h-13q-20 2 -28.5 3.5t-20.5 10t-18 24.5q-9 18 -9 26q0 5 0.5 9.5t1 7.5t3 7.5l4 7l6.5 10.5l8 13l-2 -3q1 2 4.5 7t4.5 7l60 77q7 8 25.5 26t29.5 32t19 30l205 261q115 153 146 188l-2 -2q13 20 41.5 57.5t37.5 50.5l23 25 q2 2 7 10t6 10v-1q10 18 26 39.5t26.5 34l34.5 40l31 35.5l88 101q8 3 15.5 6.5t17.5 6.5q21 -2 34.5 -17.5t13.5 -35.5q-2 -9 -2 -23q-1 -9 -4.5 -19t-10.5 -22t-11.5 -18l-14.5 -20t-12 -16q-9 -4 -24.5 -22t-27.5 -44q-50 -73 -113 -148t-103 -133l3 10q-15 -23 -18 -26 l1 1q-11 -14 -24.5 -29t-21.5 -25.5l-15 -20.5q-14 -22 -30 -41l-36 -41q-7 -14 -33 -46l-47 -59.5t-21 -35.5q-14 -16 -21.5 -26.5l-18.5 -27t-27 -37.5q-8 -11 -21 -21q-2 -4 -8 -17t-9 -17q-14 -13 -32 -39v1q-10 -15 -15.5 -22l-19 -23.5t-33.5 -43.5zM426 502 q-4 0 -10 2q-11 0 -27 -2t-26 -2q-24 0 -58.5 6t-49.5 7q-15 16 -15 31q0 10 6 17.5t16.5 15t13.5 10.5q1 -1 -1 -3q6 4 14 6q32 12 35 24q4 21 4 51q0 6 -2 23t-2 28v11l2 6q1 6 3.5 12.5t3.5 7.5l-5 11q-4 11 -4 19q0 23 5 50.5t5 39.5q0 2 -0.5 11.5t-0.5 13.5v8 q0 4 0.5 10t0.5 10v5q-2 1 -11 3t-14 4q-2 1 -12 3t-14 3t-13 3.5t-13 4.5l-10.5 5.5t-9.5 7.5t-5.5 9.5t-2.5 12.5q0 33 24 47t74 14q25 0 74 -1.5t62 -1.5l24 1q24 2 32 2q21 0 36 -16.5t15 -36.5q0 -15 -15.5 -28.5t-31.5 -17.5h-7q-3 0 -11 0.5t-11 0.5h-6 q-18 -3 -21 -13q3 -3 4.5 -14t2.5 -20l1 -9q0 -21 -2.5 -25.5t-2.5 -9.5q0 -11 3 -23l2 -39q-3 -3 -5.5 -12t-4.5 -20t-3 -14v-24q0 -37 -7 -65q0 -32 4 -47t9 -18.5t24 -8.5t34 -12l-6 1l15 -6q0 -1 -4 -1q6 -2 16.5 -2.5t16 -1.5t10 -7.5t4.5 -20.5t-7 -22t-18.5 -14.5 t-14.5 -9.5h-33q-60 0 -79 10zM1177 290h-2l-1 2v2zM1025 158q-5 -3 -6 -3q0 -3 42 -14q22 -9 34 -9q1 0 9.5 1t11.5 1h17q17 0 25.5 9.5t10 21t3.5 32.5t5 33v30q0 22 -2 30h-20q4 -3 4 -4q-26 -17 -44.5 -43.5t-38 -49t-51.5 -35.5zM1163 -4zM1170 -10zM1169 -244v-22v-8 q0 -40 23 -40q17 -10 37 -18h24q29 0 44 31.5t15 62.5q0 45 -4 63q3 8 3 20q0 6 -2.5 15.5t-2.5 26.5v56q0 29 3 45q16 8 43 8q2 0 15 -3t16 -3h27q1 -1 3 -1l4 -2l-6 10q18 -18 48 -18q22 0 63 28q33 76 33 94q0 14 -12 30t-28 16q0 -3 -27 -8t-37 -5l-5 -5l4 1l-7 -2 q-79 -15 -121 -19q-32 15 -33 19q0 11 4 34.5t8.5 42.5t5.5 19q0 4 2 22.5t2 23.5v30q1 4 8.5 25t7.5 24v9q0 4 0.5 11.5t0.5 9.5q0 1 -0.5 8t-0.5 10v16q-5 10 -5 22q0 28 3 41q-23 21 -36 21q-32 0 -95 -63q-41 -41 -89 -77q-7 -6 -13 -16.5t-23 -16.5q-5 -7 -24.5 -27 t-25.5 -24q-1 -1 -7 -9l-5 -8l-9 -9q-2 -3 -3 -3l-9 -7l-19 -16.5l-22.5 -20t-19 -20t-7.5 -13.5l-16.5 -16.5l-26.5 -27.5t-23 -31t-11 -32q0 -36 44 -65h11q25 0 54 9h10q39 0 67 -2.5t35 -2.5h31q45 0 72 -8l5 -9q4 -10 10 -16v-40l-2 -6l-1 -22q1 -2 3 -3v-32 q-7 -14 -7 -21v-32q-4 -36 -4 -54z" />
<glyph unicode="&#xbd;" horiz-adv-x="1658" d="M500 -36l1 3q-5 -8 -19 -22t-26 -24l-12 -10h-13q-20 2 -28.5 3.5t-20.5 10t-18 24.5q-9 18 -9 26q0 5 0.5 9.5t1 7.5t3 7.5l4 7l6.5 10.5l8 13l-2 -3q1 2 4.5 7t4.5 7l60 77q7 8 25.5 26t29.5 32t19 30l205 261q115 153 146 188l-2 -2q13 20 41.5 57.5t37.5 50.5l23 25 q2 2 7 10t6 10v-1q10 18 26 39.5t26.5 34l34.5 40l31 35.5l88 101q8 3 15.5 6.5t17.5 6.5q21 -2 34.5 -17.5t13.5 -35.5q-2 -9 -2 -23q-1 -9 -4.5 -19t-10.5 -22t-11.5 -18l-14.5 -20t-12 -16q-9 -4 -24.5 -22t-27.5 -44q-50 -73 -113 -148t-103 -133l3 10q-15 -23 -18 -26 l1 1q-11 -14 -24.5 -29t-21.5 -25.5l-15 -20.5q-14 -22 -30 -41l-36 -41q-7 -14 -33 -46l-47 -59.5t-21 -35.5q-14 -16 -21.5 -26.5l-18.5 -27t-27 -37.5q-8 -11 -21 -21q-2 -4 -8 -17t-9 -17q-14 -13 -32 -39v1q-10 -15 -15.5 -22l-19 -23.5t-33.5 -43.5zM426 502 q-4 0 -10 2q-11 0 -27 -2t-26 -2q-24 0 -58.5 6t-49.5 7q-15 16 -15 31q0 10 6 17.5t16.5 15t13.5 10.5q1 -1 -1 -3q6 4 14 6q32 12 35 24q4 21 4 51q0 6 -2 23t-2 28v11l2 6q1 6 3.5 12.5t3.5 7.5l-5 11q-4 11 -4 19q0 23 5 50.5t5 39.5q0 2 -0.5 11.5t-0.5 13.5v8 q0 4 0.5 10t0.5 10v5q-2 1 -11 3t-14 4q-2 1 -12 3t-14 3t-13 3.5t-13 4.5l-10.5 5.5t-9.5 7.5t-5.5 9.5t-2.5 12.5q0 33 24 47t74 14q25 0 74 -1.5t62 -1.5l24 1q24 2 32 2q21 0 36 -16.5t15 -36.5q0 -15 -15.5 -28.5t-31.5 -17.5h-7q-3 0 -11 0.5t-11 0.5h-6 q-18 -3 -21 -13q3 -3 4.5 -14t2.5 -20l1 -9q0 -21 -2.5 -25.5t-2.5 -9.5q0 -11 3 -23l2 -39q-3 -3 -5.5 -12t-4.5 -20t-3 -14v-24q0 -37 -7 -65q0 -32 4 -47t9 -18.5t24 -8.5t34 -12l-6 1l15 -6q0 -1 -4 -1q6 -2 16.5 -2.5t16 -1.5t10 -7.5t4.5 -20.5t-7 -22t-18.5 -14.5 t-14.5 -9.5h-33q-60 0 -79 10zM956 39q0 30 22 44t52.5 17.5t32.5 4.5q3 4 14 12t13 8q19 0 47.5 18.5t28.5 31.5q48 48 53 69v15q0 8 11 26l-2 11l1 -6q-3 5 -3.5 17t-1.5 19q-13 20 -13 25l2 -8l-6 13q-6 14 -14.5 26.5t-18.5 17.5l-3 2l-17 10h-55q-32 -16 -32 -17l-3 -2 q-8 -12 -13 -18t-14.5 -12t-21.5 -8h-6q-12 0 -26 10t-20 20v23q0 34 30 65t40 59h8q8 -1 9 -1h5q17 0 39 12q21 5 49 5q37 0 54 -6l21 -20q0 5 -3 11q12 -4 21 -6t11.5 -2.5t6.5 -2t8.5 -4.5t13.5 -11l19 -21q14 -14 16 -17q24 -25 34.5 -44.5t10.5 -53.5q0 -26 -4 -45.5 t-9 -29.5t-16.5 -30t-18.5 -36q-1 -2 -2.5 -6t-2.5 -5.5t-3 -5t-4.5 -5.5l-6.5 -5t-10 -6t-14 -6q-2 -5 -4.5 -9t-5 -5.5l-5 -3t-4.5 -2t-4 -0.5t-2.5 -0.5t-0.5 -1.5q-3 -2 -7.5 -7.5t-7.5 -9.5t-3 -5q0 -19 49 -22q5 0 15.5 -1t18 -1.5t13.5 -0.5l9 2l-9 -1q36 8 62 8h14 q13 14 27.5 36t24.5 33.5t21 11.5l12 -3q12 -4 27 -30v-10q0 -18 -15 -53.5t-19 -67.5q-6 -37 -17 -37q-6 0 -19 -5.5t-14 -5.5h-102q-7 5 -17 5h-8q-4 0 -17.5 -2.5t-24.5 -2.5q-9 0 -19.5 2t-16.5 2l-18 -2q-16 -2 -28 -2q-10 0 -25.5 2t-20.5 2q-30 0 -44 -8h-82 q-15 0 -28.5 14t-13.5 29z" />
<glyph unicode="&#xbe;" horiz-adv-x="1829" d="M614 -36l1 3q-5 -8 -19 -22t-26 -24l-12 -10h-13q-20 2 -28.5 3.5t-20.5 10t-18 24.5q-9 18 -9 26q0 5 0.5 9.5t1 7.5t3 7.5l4 7l6.5 10.5l8 13l-2 -3q1 2 4.5 7t4.5 7l60 77q7 8 25.5 26t29.5 32t19 30l205 261q115 153 146 188l-2 -2q13 20 41.5 57.5t37.5 50.5l23 25 q2 2 7 10t6 10v-1q10 18 26 39.5t26.5 34l34.5 40l31 35.5l88 101q8 3 15.5 6.5t17.5 6.5q21 -2 34.5 -17.5t13.5 -35.5q-2 -9 -2 -23q-1 -9 -4.5 -19t-10.5 -22t-11.5 -18l-14.5 -20t-12 -16q-9 -4 -24.5 -22t-27.5 -44q-50 -73 -113 -148t-103 -133l3 10q-15 -23 -18 -26 l1 1q-11 -14 -24.5 -29t-21.5 -25.5l-15 -20.5q-14 -22 -30 -41l-36 -41q-7 -14 -33 -46l-47 -59.5t-21 -35.5q-14 -16 -21.5 -26.5l-18.5 -27t-27 -37.5q-8 -11 -21 -21q-2 -4 -8 -17t-9 -17q-14 -13 -32 -39v1q-10 -15 -15.5 -22l-19 -23.5t-33.5 -43.5zM428 398zM253 308 q-3 5 -3 12q0 19 22.5 37.5t44.5 18.5h46q39 20 67 24v9q28 0 28 44q1 0 -4 19t-12.5 39t-12.5 23q-10 15 -15 17.5t-22.5 2.5t-39.5 5q-9 5 -40.5 6.5t-51.5 11.5t-20 38q0 18 23 36t37 18q12 0 31.5 10t26.5 17q22 0 52 30l8 5v21q2 11 14.5 24.5t15.5 19.5q-2 8 -2 11v9 q0 18 6 31q-11 34 -12 38q-1 9 -12 24q-14 14 -42 14q-26 0 -54 -23t-54 -23q-35 0 -38 54v8q0 36 34 60.5t79 35.5q10 7 48 7h61q14 -9 31.5 -23t26.5 -20q67 -46 67 -95v-16q0 -17 -1.5 -32t-2 -26t-6 -23.5t-7 -19.5t-10.5 -19t-11.5 -16.5t-16 -18l-17 -17t-21.5 -20 t-23 -21.5l-4 -5q0 -9 9.5 -20t20.5 -18.5l23.5 -15.5t13.5 -9q15 -12 27 -31.5t20.5 -39.5t9.5 -22l7 -56l3 -23q0 -18 -6 -33.5t-17.5 -32.5t-15.5 -25q-5 -5 -5 -12q-18 -28 -60 -47q-5 -3 -14 -11t-20 -12.5t-34 -9.5h4q-12 -6 -24 -6q-7 0 -13.5 2.5t-10.5 2.5 q0 -2 -4 -4.5t-8.5 -3.5t-6.5 -1q-18 0 -18 4l-2 1h-1q-33 8 -55 23zM1291 290h-2l-1 2v2zM1139 158q-5 -3 -6 -3q0 -3 42 -14q22 -9 34 -9q1 0 9.5 1t11.5 1h17q17 0 25.5 9.5t10 21t3.5 32.5t5 33v30q0 22 -2 30h-20q4 -3 4 -4q-26 -17 -44.5 -43.5t-38 -49t-51.5 -35.5z M1277 -4zM1284 -10zM1283 -244v-22v-8q0 -40 23 -40q17 -10 37 -18h24q29 0 44 31.5t15 62.5q0 45 -4 63q3 8 3 20q0 6 -2.5 15.5t-2.5 26.5v56q0 29 3 45q16 8 43 8q2 0 15 -3t16 -3h27q1 -1 3 -1l4 -2l-6 10q18 -18 48 -18q22 0 63 28q33 76 33 94q0 14 -12 30t-28 16 q0 -3 -27 -8t-37 -5l-5 -5l4 1l-7 -2q-79 -15 -121 -19q-32 15 -33 19q0 11 4 34.5t8.5 42.5t5.5 19q0 4 2 22.5t2 23.5v30q1 4 8.5 25t7.5 24v9q0 4 0.5 11.5t0.5 9.5q0 1 -0.5 8t-0.5 10v16q-5 10 -5 22q0 28 3 41q-23 21 -36 21q-32 0 -95 -63q-41 -41 -89 -77 q-7 -6 -13 -16.5t-23 -16.5q-5 -7 -24.5 -27t-25.5 -24q-1 -1 -7 -9l-5 -8l-9 -9q-2 -3 -3 -3l-9 -7l-19 -16.5l-22.5 -20t-19 -20t-7.5 -13.5l-16.5 -16.5l-26.5 -27.5t-23 -31t-11 -32q0 -36 44 -65h11q25 0 54 9h10q39 0 67 -2.5t35 -2.5h31q45 0 72 -8l5 -9 q4 -10 10 -16v-40l-2 -6l-1 -22q1 -2 3 -3v-32q-7 -14 -7 -21v-32q-4 -36 -4 -54z" />
<glyph unicode="&#xbf;" horiz-adv-x="746" d="M757 1097q0 -15 -3.5 -23.5t-8 -12t-12.5 -10.5t-14 -16q0 -2 1.5 -16t1.5 -21q0 -12 -1.5 -36.5t-1.5 -37.5q0 -37 12 -62v-156q0 -1 -4 -12l-9 -25t-6 -20q-14 -31 -32 -51.5t-56.5 -48t-48.5 -35.5q-11 -3 -36.5 -13.5t-41.5 -12.5q-5 0 -26.5 -3t-23.5 -4t-9 -8.5 t-14 -16.5l-8 -8q-9 0 -16 -7q-40 -10 -71 -10q-9 -8 -22.5 -26.5t-29.5 -27.5q-5 -3 -33 -17t-31 -16q-6 -7 -25.5 -44.5t-19.5 -45.5q0 -20 35 -45.5t59 -25.5q20 0 67 13t71 13q40 0 65 -13t53 -44v-3q0 -74 -61 -116.5t-138 -42.5h-16q-136 24 -193 115t-57 239v14 q0 10 2.5 32.5t3.5 24.5q5 15 28.5 39t29.5 41l79 76q1 1 12 6t12 6q2 3 16 15.5t17 12.5q2 0 14 1l23.5 2t12.5 2q11 4 51.5 41.5t52.5 37.5h71q7 9 26 21.5t26 22.5q30 42 42 89t20 117q3 9 13 27.5t10 27.5t-26 53t-26 78v16q4 2 11 6.5l9.5 6t7.5 3.5t9 2.5t10 0.5 q29 0 88 -26t59 -43zM840 1464q0 -45 -31 -110t-71 -65q-34 0 -65 5.5t-62.5 18t-50 38t-18.5 61.5q0 29 15.5 55.5t45 60t38.5 45.5q7 5 26 5h24q58 0 103.5 -30t45.5 -84z" />
<glyph unicode="&#xc0;" horiz-adv-x="1381" d="M785 718q0 -29 13.5 -41t43.5 -23l20 -9h112q16 0 31.5 22.5t32 60t19.5 42.5q5 12 21 28q14 17 14 22q2 8 18 52t18 52q-2 0 -2 3q0 4 2 4q0 18 7 20q0 21 5 28q2 3 20 36.5t22 39.5q-7 23 -18 23h-1q-27 -15 -35 -23q-1 -1 -8 -10t-8 -10l-12 -14q-37 -15 -43 -21 q-25 -34 -26 -35q-40 -24 -43 -29q-3 -2 -17.5 -16t-17.5 -19q-2 0 -11.5 -5.5t-9.5 -6.5q-4 -3 -14 -13.5l-18.5 -19t-10.5 -8.5q-2 -7 -13 -30t-14 -26q-7 -12 -27 -21.5t-35 -21t-15 -31.5zM-187 24q0 43 35 64q1 2 14 10.5l28 18.5t20 14q13 8 37 15t32 11q25 20 28 23 q30 12 41 12q1 2 8 5t8 4q84 56 116 90q2 2 12 15l10 12q6 5 27 19t29 25q8 7 18.5 31t15.5 31q27 17 50 38t36.5 36.5l40.5 48.5q0 6 7 8q1 0 10 3t10 4q19 12 35 24.5t23.5 19.5t25.5 25.5l27 27.5q2 0 14.5 3t13.5 4q1 2 9.5 12.5t9.5 10.5q16 5 38 19q0 1 5.5 13.5 t6.5 13.5q1 4 12 14.5t16 13.5l20 14q14 13 40 44.5t43 45.5l14 7q17 21 37 36q23 23 34 26q112 87 118 92q1 1 6 5.5t9.5 9l5.5 5.5l6 14q7 10 17.5 15.5t17.5 12.5q18 15 44 47t46 50q5 5 85 64q10 5 14 5q0 1 6 8t6 8q12 0 78 6l9 4q9 3 10 3h17q60 0 60 -48 q0 -68 -43 -147q0 -2 -9 -17.5t-10 -17.5l-7 -12v-10v-24q-2 -11 -14 -23q-4 -8 -10 -25t-10 -25q-14 -24 -27.5 -71.5t-21.5 -66.5q-1 -1 -14 -16.5t-15 -18.5q0 -1 -2.5 -14t-2.5 -14q-14 -28 -14 -41q-11 -9 -17 -20.5t-11.5 -29.5t-8.5 -25q-3 -21 -13 -38 q-2 -2 -14.5 -25.5t-13.5 -27.5q0 -2 -3.5 -18t-3.5 -17q-9 -33 -37 -92.5t-37 -89.5q-2 -1 -5.5 -13.5t-6.5 -26t-4 -15.5q0 -1 -9.5 -17t-9.5 -18q-7 -7 -16 -29q-27 -40 -27 -52q0 -8 18 -20t35.5 -30.5t17.5 -41.5q0 -20 -2 -22q-6 -15 -69 -28q-13 0 -111 -7h-9h-6 q-14 7 -26 7h-175q-6 5 -17.5 11.5t-18 13t-6.5 17.5q0 38 19.5 51.5t54.5 19.5t53 20q51 42 96 139q0 2 5.5 17t7.5 17q11 14 15 14q11 17 17.5 54.5t8.5 42.5q1 2 12 27.5t11 29.5v19v12q0 25 -7 32q-12 6 -23 6q-2 2 -23 11t-24 10h-8h-14q-8 0 -28 -2l-36 -3.5t-17 -1.5 l-11 -3q-10 -3 -12 -5h-3q-9 0 -26.5 4t-27.5 4q-19 0 -51 -14t-44 -29q-4 -2 -21 -28q-3 0 -8 -7q-25 -17 -48.5 -40.5t-52.5 -56t-43 -46.5l-25 -25.5l-38 -38.5t-22 -21l-19 -14q-24 -20 -40.5 -51t-16.5 -61v-12l42 -42q8 -9 8 -27v-9q0 -19 -7 -27t-24 -8q-9 0 -27 4.5 t-27 4.5q-10 0 -25 -7.5t-25 -8.5h-31q-25 0 -76 4.5t-76 4.5q-12 0 -34.5 -8t-34.5 -8q-29 0 -46 7t-34 28v5zM907 1651q-9 19 -9 38q0 47 56 73q8 4 23 4q51 0 130.5 -47.5t92.5 -83.5q34 -7 124.5 -79t104.5 -101q4 -8 4 -16q0 -13 -20 -23q-8 -4 -19 -4 q-18 0 -49.5 19.5t-43.5 21.5q-19 4 -27 6l-14 3.5t-8.5 3t-5.5 3.5l-10.5 7t-17.5 10q-29 18 -89 37t-84 31q-41 31 -47 38q-8 6 -29.5 15t-38 19.5t-23.5 24.5z" />
<glyph unicode="&#xc1;" horiz-adv-x="1381" d="M785 718q0 -29 13.5 -41t43.5 -23l20 -9h112q16 0 31.5 22.5t32 60t19.5 42.5q5 12 21 28q14 17 14 22q2 8 18 52t18 52q-2 0 -2 3q0 4 2 4q0 18 7 20q0 21 5 28q2 3 20 36.5t22 39.5q-7 23 -18 23h-1q-27 -15 -35 -23q-1 -1 -8 -10t-8 -10l-12 -14q-37 -15 -43 -21 q-25 -34 -26 -35q-40 -24 -43 -29q-3 -2 -17.5 -16t-17.5 -19q-2 0 -11.5 -5.5t-9.5 -6.5q-4 -3 -14 -13.5l-18.5 -19t-10.5 -8.5q-2 -7 -13 -30t-14 -26q-7 -12 -27 -21.5t-35 -21t-15 -31.5zM-187 24q0 43 35 64q1 2 14 10.5l28 18.5t20 14q13 8 37 15t32 11q25 20 28 23 q30 12 41 12q1 2 8 5t8 4q84 56 116 90q2 2 12 15l10 12q6 5 27 19t29 25q8 7 18.5 31t15.5 31q27 17 50 38t36.5 36.5l40.5 48.5q0 6 7 8q1 0 10 3t10 4q19 12 35 24.5t23.5 19.5t25.5 25.5l27 27.5q2 0 14.5 3t13.5 4q1 2 9.5 12.5t9.5 10.5q16 5 38 19q0 1 5.5 13.5 t6.5 13.5q1 4 12 14.5t16 13.5l20 14q14 13 40 44.5t43 45.5l14 7q17 21 37 36q23 23 34 26q112 87 118 92q1 1 6 5.5t9.5 9l5.5 5.5l6 14q7 10 17.5 15.5t17.5 12.5q18 15 44 47t46 50q5 5 85 64q10 5 14 5q0 1 6 8t6 8q12 0 78 6l9 4q9 3 10 3h17q60 0 60 -48 q0 -68 -43 -147q0 -2 -9 -17.5t-10 -17.5l-7 -12v-10v-24q-2 -11 -14 -23q-4 -8 -10 -25t-10 -25q-14 -24 -27.5 -71.5t-21.5 -66.5q-1 -1 -14 -16.5t-15 -18.5q0 -1 -2.5 -14t-2.5 -14q-14 -28 -14 -41q-11 -9 -17 -20.5t-11.5 -29.5t-8.5 -25q-3 -21 -13 -38 q-2 -2 -14.5 -25.5t-13.5 -27.5q0 -2 -3.5 -18t-3.5 -17q-9 -33 -37 -92.5t-37 -89.5q-2 -1 -5.5 -13.5t-6.5 -26t-4 -15.5q0 -1 -9.5 -17t-9.5 -18q-7 -7 -16 -29q-27 -40 -27 -52q0 -8 18 -20t35.5 -30.5t17.5 -41.5q0 -20 -2 -22q-6 -15 -69 -28q-13 0 -111 -7h-9h-6 q-14 7 -26 7h-175q-6 5 -17.5 11.5t-18 13t-6.5 17.5q0 38 19.5 51.5t54.5 19.5t53 20q51 42 96 139q0 2 5.5 17t7.5 17q11 14 15 14q11 17 17.5 54.5t8.5 42.5q1 2 12 27.5t11 29.5v19v12q0 25 -7 32q-12 6 -23 6q-2 2 -23 11t-24 10h-8h-14q-8 0 -28 -2l-36 -3.5t-17 -1.5 l-11 -3q-10 -3 -12 -5h-3q-9 0 -26.5 4t-27.5 4q-19 0 -51 -14t-44 -29q-4 -2 -21 -28q-3 0 -8 -7q-25 -17 -48.5 -40.5t-52.5 -56t-43 -46.5l-25 -25.5l-38 -38.5t-22 -21l-19 -14q-24 -20 -40.5 -51t-16.5 -61v-12l42 -42q8 -9 8 -27v-9q0 -19 -7 -27t-24 -8q-9 0 -27 4.5 t-27 4.5q-10 0 -25 -7.5t-25 -8.5h-31q-25 0 -76 4.5t-76 4.5q-12 0 -34.5 -8t-34.5 -8q-29 0 -46 7t-34 28v5zM1316 1432q8 39 32.5 76.5t46 58t65.5 56.5t60 50q7 6 29.5 28t30.5 28.5t26 18.5t34.5 16t37.5 4q20 0 40 -4q2 -1 7 -2t7 -1q4 -7 11.5 -27t7.5 -26 q-2 -10 -2 -14q-6 -27 -17 -41q-13 -15 -36.5 -27t-31.5 -19q-23 -23 -24 -25q-20 -22 -40.5 -40t-47 -37.5t-42.5 -33.5q-19 -19 -37 -43q-29 -23 -90 -62q-4 1 -7 1q-24 5 -44 23t-16 42z" />
<glyph unicode="&#xc2;" horiz-adv-x="1381" d="M785 718q0 -29 13.5 -41t43.5 -23l20 -9h112q16 0 31.5 22.5t32 60t19.5 42.5q5 12 21 28q14 17 14 22q2 8 18 52t18 52q-2 0 -2 3q0 4 2 4q0 18 7 20q0 21 5 28q2 3 20 36.5t22 39.5q-7 23 -18 23h-1q-27 -15 -35 -23q-1 -1 -8 -10t-8 -10l-12 -14q-37 -15 -43 -21 q-25 -34 -26 -35q-40 -24 -43 -29q-3 -2 -17.5 -16t-17.5 -19q-2 0 -11.5 -5.5t-9.5 -6.5q-4 -3 -14 -13.5l-18.5 -19t-10.5 -8.5q-2 -7 -13 -30t-14 -26q-7 -12 -27 -21.5t-35 -21t-15 -31.5zM-187 24q0 43 35 64q1 2 14 10.5l28 18.5t20 14q13 8 37 15t32 11q25 20 28 23 q30 12 41 12q1 2 8 5t8 4q84 56 116 90q2 2 12 15l10 12q6 5 27 19t29 25q8 7 18.5 31t15.5 31q27 17 50 38t36.5 36.5l40.5 48.5q0 6 7 8q1 0 10 3t10 4q19 12 35 24.5t23.5 19.5t25.5 25.5l27 27.5q2 0 14.5 3t13.5 4q1 2 9.5 12.5t9.5 10.5q16 5 38 19q0 1 5.5 13.5 t6.5 13.5q1 4 12 14.5t16 13.5l20 14q14 13 40 44.5t43 45.5l14 7q17 21 37 36q23 23 34 26q112 87 118 92q1 1 6 5.5t9.5 9l5.5 5.5l6 14q7 10 17.5 15.5t17.5 12.5q18 15 44 47t46 50q5 5 85 64q10 5 14 5q0 1 6 8t6 8q12 0 78 6l9 4q9 3 10 3h17q60 0 60 -48 q0 -68 -43 -147q0 -2 -9 -17.5t-10 -17.5l-7 -12v-10v-24q-2 -11 -14 -23q-4 -8 -10 -25t-10 -25q-14 -24 -27.5 -71.5t-21.5 -66.5q-1 -1 -14 -16.5t-15 -18.5q0 -1 -2.5 -14t-2.5 -14q-14 -28 -14 -41q-11 -9 -17 -20.5t-11.5 -29.5t-8.5 -25q-3 -21 -13 -38 q-2 -2 -14.5 -25.5t-13.5 -27.5q0 -2 -3.5 -18t-3.5 -17q-9 -33 -37 -92.5t-37 -89.5q-2 -1 -5.5 -13.5t-6.5 -26t-4 -15.5q0 -1 -9.5 -17t-9.5 -18q-7 -7 -16 -29q-27 -40 -27 -52q0 -8 18 -20t35.5 -30.5t17.5 -41.5q0 -20 -2 -22q-6 -15 -69 -28q-13 0 -111 -7h-9h-6 q-14 7 -26 7h-175q-6 5 -17.5 11.5t-18 13t-6.5 17.5q0 38 19.5 51.5t54.5 19.5t53 20q51 42 96 139q0 2 5.5 17t7.5 17q11 14 15 14q11 17 17.5 54.5t8.5 42.5q1 2 12 27.5t11 29.5v19v12q0 25 -7 32q-12 6 -23 6q-2 2 -23 11t-24 10h-8h-14q-8 0 -28 -2l-36 -3.5t-17 -1.5 l-11 -3q-10 -3 -12 -5h-3q-9 0 -26.5 4t-27.5 4q-19 0 -51 -14t-44 -29q-4 -2 -21 -28q-3 0 -8 -7q-25 -17 -48.5 -40.5t-52.5 -56t-43 -46.5l-25 -25.5l-38 -38.5t-22 -21l-19 -14q-24 -20 -40.5 -51t-16.5 -61v-12l42 -42q8 -9 8 -27v-9q0 -19 -7 -27t-24 -8q-9 0 -27 4.5 t-27 4.5q-10 0 -25 -7.5t-25 -8.5h-31q-25 0 -76 4.5t-76 4.5q-12 0 -34.5 -8t-34.5 -8q-29 0 -46 7t-34 28v5zM1525 1578q11 -16 17 -48q4 -32 14 -45l4 -42q-1 -5 -12 -9.5t-13 -6.5l-17 9l-28 40q-3 5 -11.5 8.5t-12.5 7.5q-3 3 -8.5 12t-10.5 14t-18.5 11t-19.5 14 q-3 7 -8.5 13t-15.5 13t-12 9q-10 -5 -23.5 -10t-20.5 -8t-15.5 -8t-14.5 -12q-37 -13 -94.5 -41.5t-86.5 -39.5q-54 -25 -58 -28q0 29 7 54q48 54 119 107q13 14 46.5 35t46.5 39q39 42 135 90l9 -9q60 -49 69 -89l2 -25l11 -14.5t13.5 -20t6.5 -20.5z" />
<glyph unicode="&#xc3;" horiz-adv-x="1381" d="M785 718q0 -29 13.5 -41t43.5 -23l20 -9h112q16 0 31.5 22.5t32 60t19.5 42.5q5 12 21 28q14 17 14 22q2 8 18 52t18 52q-2 0 -2 3q0 4 2 4q0 18 7 20q0 21 5 28q2 3 20 36.5t22 39.5q-7 23 -18 23h-1q-27 -15 -35 -23q-1 -1 -8 -10t-8 -10l-12 -14q-37 -15 -43 -21 q-25 -34 -26 -35q-40 -24 -43 -29q-3 -2 -17.5 -16t-17.5 -19q-2 0 -11.5 -5.5t-9.5 -6.5q-4 -3 -14 -13.5l-18.5 -19t-10.5 -8.5q-2 -7 -13 -30t-14 -26q-7 -12 -27 -21.5t-35 -21t-15 -31.5zM-187 24q0 43 35 64q1 2 14 10.5l28 18.5t20 14q13 8 37 15t32 11q25 20 28 23 q30 12 41 12q1 2 8 5t8 4q84 56 116 90q2 2 12 15l10 12q6 5 27 19t29 25q8 7 18.5 31t15.5 31q27 17 50 38t36.5 36.5l40.5 48.5q0 6 7 8q1 0 10 3t10 4q19 12 35 24.5t23.5 19.5t25.5 25.5l27 27.5q2 0 14.5 3t13.5 4q1 2 9.5 12.5t9.5 10.5q16 5 38 19q0 1 5.5 13.5 t6.5 13.5q1 4 12 14.5t16 13.5l20 14q14 13 40 44.5t43 45.5l14 7q17 21 37 36q23 23 34 26q112 87 118 92q1 1 6 5.5t9.5 9l5.5 5.5l6 14q7 10 17.5 15.5t17.5 12.5q18 15 44 47t46 50q5 5 85 64q10 5 14 5q0 1 6 8t6 8q12 0 78 6l9 4q9 3 10 3h17q60 0 60 -48 q0 -68 -43 -147q0 -2 -9 -17.5t-10 -17.5l-7 -12v-10v-24q-2 -11 -14 -23q-4 -8 -10 -25t-10 -25q-14 -24 -27.5 -71.5t-21.5 -66.5q-1 -1 -14 -16.5t-15 -18.5q0 -1 -2.5 -14t-2.5 -14q-14 -28 -14 -41q-11 -9 -17 -20.5t-11.5 -29.5t-8.5 -25q-3 -21 -13 -38 q-2 -2 -14.5 -25.5t-13.5 -27.5q0 -2 -3.5 -18t-3.5 -17q-9 -33 -37 -92.5t-37 -89.5q-2 -1 -5.5 -13.5t-6.5 -26t-4 -15.5q0 -1 -9.5 -17t-9.5 -18q-7 -7 -16 -29q-27 -40 -27 -52q0 -8 18 -20t35.5 -30.5t17.5 -41.5q0 -20 -2 -22q-6 -15 -69 -28q-13 0 -111 -7h-9h-6 q-14 7 -26 7h-175q-6 5 -17.5 11.5t-18 13t-6.5 17.5q0 38 19.5 51.5t54.5 19.5t53 20q51 42 96 139q0 2 5.5 17t7.5 17q11 14 15 14q11 17 17.5 54.5t8.5 42.5q1 2 12 27.5t11 29.5v19v12q0 25 -7 32q-12 6 -23 6q-2 2 -23 11t-24 10h-8h-14q-8 0 -28 -2l-36 -3.5t-17 -1.5 l-11 -3q-10 -3 -12 -5h-3q-9 0 -26.5 4t-27.5 4q-19 0 -51 -14t-44 -29q-4 -2 -21 -28q-3 0 -8 -7q-25 -17 -48.5 -40.5t-52.5 -56t-43 -46.5l-25 -25.5l-38 -38.5t-22 -21l-19 -14q-24 -20 -40.5 -51t-16.5 -61v-12l42 -42q8 -9 8 -27v-9q0 -19 -7 -27t-24 -8q-9 0 -27 4.5 t-27 4.5q-10 0 -25 -7.5t-25 -8.5h-31q-25 0 -76 4.5t-76 4.5q-12 0 -34.5 -8t-34.5 -8q-29 0 -46 7t-34 28v5zM1212 1504h-5q-6 -1 -58 -6.5t-58 -6.5h-19q-52 0 -52 33q0 4 41 56t56 67q15 12 40.5 24.5t42.5 12.5q3 0 14.5 -2t12.5 -2h4q8 0 25 13t30 13q17 0 52.5 -11 t56.5 -11h5q33 8 132 22q11 3 36.5 20.5t46.5 17.5h10q18 0 18 -12q0 -3 4 -10.5t4 -18.5t-1.5 -16.5t-1.5 -13.5q0 -7 -6 -20t-6 -20q-7 -23 -14 -35t-13.5 -16t-21.5 -11.5t-29 -16.5q-17 -10 -39 -25.5l-33.5 -23.5t-32.5 -14t-47 -6q-33 0 -97.5 9.5t-96.5 9.5z" />
</font>
</defs>
</svg>
